<svg xmlns="http://www.w3.org/2000/svg" viewBox="0 0 150 130" enable-background="new 0 0 150 130"><g stroke="#4D4B50" stroke-width="2.5" stroke-miterlimit="10" fill="none"><path d="M49.2 127.5L2.7 80.9l65.8-65.8 23.4 1.7 21.4 21.5 1.8 23.3zM94.1 46.8c-3 3-7.8 3-10.8 0-3-3-3-7.8 0-10.8 3-3 7.8-3 10.8 0 .3.3.6.7.8 1 2.2 3 1.9 7.1-.8 9.8z"/><path stroke-linejoin="round" d="M95 37c-3 1.9-5.5 3.7-5.5 3.7s11.3-30.3 30.8-36.2c16-4.9 23.6.6 25.9 4.3 2.1 3.3 1.9 11.2-5.6 14.3-8 3.3-16.2 2.4-27.1 4.8-2.1.5-4.8 1.6-7.5 2.9"/><path d="M67.3 44.6l-42 42M76 53.3l-42 42M84.7 62l-42 42"/></g></svg>