<svg xmlns="http://www.w3.org/2000/svg" viewBox="0 0 726 210" enable-background="new 0 0 726 210"><g stroke="#fff" stroke-width="2.5" stroke-miterlimit="10" fill="none"><path d="M388 189.6v.9c0 1.3-1.1 2.4-2.4 2.4h-41.8c-1.3 0-2.4-1.1-2.4-2.4v-.9H184v6.1c0 5.1 4.2 9.3 9.3 9.3h342.8c5.1 0 9.3-4.2 9.3-9.3v-6.1H388zM341.5 189.6v.9c0 1.3 1.1 2.4 2.4 2.4h41.8c1.3 0 2.4-1.1 2.4-2.4v-.9h112V11.8c0-3.7-3-6.8-6.8-6.8h-257c-3.7 0-6.8 3-6.8 6.8v177.9h112z"/></g><g stroke="#fff" stroke-width="2.5" stroke-miterlimit="10" fill="none"><path d="M138.8 205H38.2c-2.9 0-5.3-2.4-5.3-5.3v-145c0-2.9 2.4-5.3 5.3-5.3h100.5c2.9 0 5.3 2.4 5.3 5.3v145c0 2.9-2.3 5.3-5.2 5.3z"/><circle cx="87.7" cy="193.4" r="4.8"/></g><path stroke="#fff" stroke-width="2.5" stroke-miterlimit="10" d="M642.9 205h-53.7c-2.1 0-3.8-1.7-3.8-3.8V97.7c0-2.1 1.7-3.8 3.8-3.8h53.7c2.1 0 3.8 1.7 3.8 3.8v103.6c-.1 2-1.8 3.7-3.8 3.7z" fill="none"/><circle stroke="#fff" stroke-width="2.5" stroke-miterlimit="10" cx="616" cy="193.4" r="4.8" fill="none"/></svg>