<svg xmlns="http://www.w3.org/2000/svg" viewBox="0 0 175 155" enable-background="new 0 0 175 155"><path stroke="#4D4B50" stroke-width="2.5" stroke-miterlimit="10" d="M165.5 152.5H9.5c-3.2 0-5.9-2.6-5.9-5.9V8.5c0-3.2 2.6-5.9 5.9-5.9h155.9c3.2 0 5.9 2.6 5.9 5.9v138.1c0 3.3-2.6 5.9-5.8 5.9zM3.7 21V8.4c0-3.2 2.6-5.9 5.9-5.9h155.9c3.2 0 5.9 2.6 5.9 5.9V21H3.7z" fill="none"/><circle stroke="#4D4B50" stroke-width="2.5" stroke-miterlimit="10" cx="14.3" cy="11.8" r="3" fill="none"/><circle stroke="#4D4B50" stroke-width="2.5" stroke-miterlimit="10" cx="26" cy="11.8" r="3" fill="none"/><circle stroke="#4D4B50" stroke-width="2.5" stroke-miterlimit="10" cx="37.7" cy="11.8" r="3" fill="none"/><g stroke="#4D4B50" stroke-width="2.5" stroke-miterlimit="10" fill="none"><path d="M60.7 86.5c0-13.2 9.4-24.6 22.4-27.1l-1.5-7.9c-16.7 3.2-28.9 17.9-28.9 34.9 0 9.5 3.7 18.4 10.4 25.1l-6 6 19.9 1.8-2.1-19.6-6.1 6.1c-5.2-5-8.1-11.9-8.1-19.3zM114.3 85.8c0 13.2-9.4 24.6-22.4 27.1l1.5 7.9c16.7-3.2 28.9-17.9 28.9-34.9 0-9.5-3.7-18.4-10.4-25.1l6-6L98 52.9l2.1 19.6 6.1-6.1c5.2 5.1 8.1 12 8.1 19.4z"/></g></svg>
