<?xml version="1.0" encoding="UTF-8"?>
<svg width="41px" height="51px" viewBox="0 0 41 51" version="1.1" xmlns="http://www.w3.org/2000/svg" xmlns:xlink="http://www.w3.org/1999/xlink">
    <!-- Generator: Sketch 43.2 (39069) - http://www.bohemiancoding.com/sketch -->
    <title>fingerprint</title>
    <desc>Created with Sketch.</desc>
    <defs></defs>
    <g id="Page-1" stroke="none" stroke-width="1" fill="none" fill-rule="evenodd">
        <g id="fingerprint" fill-rule="nonzero" fill="#ED4A38">
            <path d="M19.4248339,20.0181115 C18.47959,20.257174 17.8913859,21.2856408 18.1111042,22.3141075 C19.9237758,30.7983359 20.3197249,39.6909629 19.2531794,48.0307604 C19.1204316,49.0779038 19.7910282,50.0441149 20.7522942,50.1885484 C20.8346891,50.2009996 20.9170814,50.2072251 20.9971868,50.2072251 C21.860036,50.2072251 22.6130272,49.5149399 22.7366183,48.5586899 C23.8603846,39.7581993 23.4461241,30.3837118 21.5350382,21.4475058 C21.3153193,20.416549 20.3700753,19.7840294 19.4248339,20.0181115 Z M15.3509016,30.78713 C14.3850596,30.884249 13.6732657,31.8155967 13.7625256,32.8677209 C14.1905175,37.8842981 14.0783705,42.8361314 13.4283719,47.5850084 C13.2864708,48.6296618 13.9502011,49.6033433 14.9091778,49.7577379 C14.9961486,49.7726794 15.0831204,49.778905 15.1700924,49.778905 C16.0260765,49.778905 16.7767786,49.0965808 16.9072345,48.1478015 C17.5961398,43.0963612 17.717444,37.8357385 17.2642767,32.5141078 C17.1750145,31.4619834 16.2869911,30.6775595 15.3509016,30.78713 Z M18.106528,13.8062217 C16.1244911,14.3080038 14.4399886,15.6203575 13.3619993,17.5004845 C12.2840091,19.3831016 11.9452781,21.6056357 12.4053118,23.7571982 C12.6273183,24.8018516 12.8287255,25.8477499 13.0049572,26.8924033 C13.1766119,27.932076 14.1149893,28.6181357 15.0487897,28.428878 C16.0054759,28.2383751 16.6371657,27.2410362 16.4609327,26.2026084 C16.2755476,25.1006797 16.0649836,23.9975058 15.8292455,22.8918419 C15.5820638,21.7338828 15.7651596,20.5385703 16.3464963,19.525045 C16.9278328,18.5102746 17.8364567,17.801803 18.9007155,17.5328575 C21.107047,16.9737999 23.3065109,18.4779015 23.8168964,20.8710166 C25.7050952,29.6976524 26.1994609,38.5417197 25.2862588,47.1591783 C25.1741115,48.2088121 25.8675952,49.1575913 26.8311481,49.2783678 C26.89981,49.2870837 26.9684719,49.2908189 27.0348444,49.2908189 C27.916005,49.2908189 28.6758612,48.5723862 28.7788541,47.5974595 C29.737831,38.5429649 29.2205777,29.2593712 27.2408298,20.0056601 C26.2932993,15.5618371 22.2056343,12.780245 18.106528,13.8062217 Z M12.0093628,15.1646445 C12.6135853,14.3353965 12.4831282,13.1326132 11.7209825,12.4776817 C10.9565487,11.821505 9.85338297,11.9671837 9.25373634,12.7914513 C8.94475933,13.2160362 8.65637907,13.6630334 8.39088721,14.1262169 C6.4843785,17.4556604 5.88244376,21.3889854 6.69951964,25.2027794 C8.20092256,32.231466 8.55109812,39.4519004 7.71342423,46.0846422 C7.58067893,47.1305405 8.25356342,48.0955064 9.21482816,48.2399399 C9.29722299,48.2511459 9.37732845,48.2573715 9.45743265,48.2573715 C10.3225711,48.2573715 11.0755624,47.5638411 11.1968651,46.605101 C12.0917561,39.5154013 11.7209822,31.8155967 10.1234518,24.3361777 C9.52151757,21.5184777 9.96553026,18.6111288 11.3753852,16.1482871 C11.5722151,15.8046348 11.782778,15.4771689 12.0093628,15.1646445 Z M33.1594753,32.688424 C32.191344,32.7407189 31.4429312,33.6372033 31.4909926,34.6930626 C31.6512035,38.2217248 31.600853,41.7665757 31.3422278,45.2280016 C31.2621223,46.2813706 31.9830694,47.2040024 32.9512005,47.2899158 C32.9992644,47.293651 33.047328,47.2961413 33.0953894,47.2961413 C34.0017264,47.2961413 34.7707371,46.5391101 34.8439775,45.5392811 C35.1163357,41.9122547 35.1689756,38.1993129 35.0018993,34.5038049 C34.9538357,33.4479453 34.1070061,32.6610314 33.1594753,32.688424 Z M32.7314821,30.0500206 C32.8047225,30.0500206 32.8779604,30.0450402 32.9512005,30.0350791 C33.9147533,29.9055871 34.5967935,28.9493371 34.4777809,27.9021933 C34.1230279,24.78442 33.6057748,21.6417442 32.946622,18.5625692 C31.5482107,11.9970663 25.9911858,7.23075756 19.7338097,7.23075756 C18.7450803,7.23075756 17.7563509,7.35277914 16.790509,7.59433172 C15.9917455,7.7960408 15.2089993,8.07619196 14.4605866,8.42856014 C13.5702731,8.8481657 13.1605911,9.97499667 13.5450966,10.9436973 C13.9318912,11.9136436 14.9686842,12.3606408 15.8567088,11.9397911 C16.4105822,11.6783163 16.9942055,11.470382 17.5824096,11.3209678 C18.2850478,11.1454061 19.0082841,11.0557578 19.7338097,11.0557578 C24.3730564,11.0557578 28.488187,14.5757041 29.5226909,19.4291709 C30.1543781,22.3800987 30.648744,25.3895468 30.9897638,28.3728476 C31.099622,29.341549 31.8571892,30.0500206 32.7314821,30.0500206 Z M38.6547058,17.1269493 C37.8559376,13.371676 36.0867562,9.92270178 33.5439805,7.14733559 C32.8596512,6.40026515 31.747331,6.40259993 31.0584232,7.14967011 C30.3695179,7.89549539 30.3695179,9.12193574 31.0538472,9.86900592 C33.1342985,12.1400992 34.5784844,14.9875263 35.2307721,18.0480246 C36.8672107,25.7067405 37.5996039,33.5648062 37.4073487,41.2496673 C37.3821747,42.3055266 38.1466072,43.35 39.1170254,43.35 L39.1650915,43.35 C40.1149092,43.35 40.8953685,42.39393 40.9228294,41.3555022 C41.1219497,33.3431755 40.359804,25.10317 38.6547058,17.1269493 Z M3.51590183,32.7793175 C3.60058451,32.7793175 3.68755656,32.7730919 3.77452786,32.7593956 C4.73350399,32.6062462 5.39723479,31.6338098 5.25762189,30.5891564 C5.04477037,29.0128379 4.76325721,27.3954308 4.41765989,25.7780234 C3.45868375,21.3043175 4.16361108,16.6861777 6.40427304,12.777755 C8.63807018,8.87680347 12.1398202,6.15373217 16.2549473,5.1115691 C19.8093394,4.22131029 23.5926021,4.74674978 26.8609031,6.53473812 C27.7237522,7.01286312 28.7834326,6.62936709 29.2205779,5.6868134 C29.6577255,4.74301454 29.3075487,3.59252619 28.4401234,3.11813669 C24.4462968,0.930465675 19.820783,0.297946335 15.4630491,1.38493356 C10.4301415,2.65993356 6.15251411,5.98688669 3.41977508,10.7531947 C0.682459829,15.5319541 -0.178100941,21.1760703 0.993726206,26.6446251 C1.31643691,28.1586876 1.57963991,29.671505 1.77875925,31.1444786 C1.90692783,32.0957481 2.65762992,32.7793175 3.51590183,32.7793175 Z M4.04002023,35.7 L3.98051329,35.7 C3.01009334,35.7 2.25023629,36.3358147 2.28227862,37.3916741 C2.35094052,39.5531974 2.29143358,41.4206519 2.10604666,43.4850564 C2.00992042,44.5359354 2.71713636,45.4677936 3.68297833,45.5711385 C3.74019666,45.5773641 3.79970335,45.5776219 3.85692168,45.5776219 C4.74952453,45.5776219 5.5139588,44.97231 5.60321871,43.9849322 C5.80462716,41.7536822 5.87099969,39.5917307 5.79776057,37.2608713 C5.76343013,36.2274239 4.98297507,35.7 4.04002023,35.7 Z" id="Shape"></path>
        </g>
    </g>
</svg>