<?xml version="1.0" encoding="UTF-8" standalone="no"?>
<!DOCTYPE svg  PUBLIC '-//W3C//DTD SVG 1.1//EN'  'http://www.w3.org/Graphics/SVG/1.1/DTD/svg11.dtd'>
<svg xmlns="http://www.w3.org/2000/svg">
<defs>
<font id="Gotham-Book" horiz-adv-x="819">
<font-face underline-position="-102" font-weight="325" descent="-410" panose-1="0 0 0 0 0 0 0 0 0 0" units-per-em="2048" unicode-range="U+0020-FB04" bbox="-440 -500 2374 2036" x-height="1059" underline-thickness="102" font-family="Gotham" ascent="1638" cap-height="1434"/>
<missing-glyph d="M0 -410v2048h1024v-2048h-1024zM145 1536l367 -799l367 799h-734zM102 -156l353 770l-353 770v-1540zM922 1384l-353 -770l353 -770v1540zM512 492l-367 -799h734z" horiz-adv-x="1024"/>
<glyph glyph-name="f_f" horiz-adv-x="1505" unicode="ff" d="M236 0v920h-146v137h146v92q0 180 87 267t232 87q100 0 174 -26v-138q-94 27 -154 27q-184 0 -184 -225v-86h336v-135h-334v-920h-157zM989 0v920h-145v137h145v92q0 182 90 272q86 82 228 82q102 0 174 -26v-138q-90 27 -152 27q-184 0 -184 -225v-86h334v-135h-334 v-920h-156z"/>
<glyph glyph-name="fi" horiz-adv-x="1292" unicode="fi" d="M236 0v920h-146v137h146v92q0 180 87 267t232 87q100 0 174 -26v-138q-94 27 -154 27q-184 0 -184 -225v-86h336v-135h-334v-920h-157zM944 0v1059h156v-1059h-156zM932 1290v174h180v-174h-180z"/>
<glyph glyph-name="fl" horiz-adv-x="1292" unicode="fl" d="M236 0v920h-146v137h146v92q0 180 87 267t232 87q100 0 174 -26v-138q-94 27 -154 27q-184 0 -184 -225v-86h336v-135h-334v-920h-157zM944 0v1495h156v-1495h-156z"/>
<glyph glyph-name="f_f_i" horiz-adv-x="2043" unicode="ffi" d="M236 0v920h-146v137h146v92q0 180 87 267t232 87q100 0 174 -26v-138q-94 27 -154 27q-184 0 -184 -225v-86h336v-135h-334v-920h-157zM989 0v920h-145v137h145v92q0 182 90 272q86 82 228 82q102 0 174 -26v-138q-90 27 -152 27q-184 0 -184 -225v-86h334v-135h-334 v-920h-156zM1696 0v1059h157v-1059h-157zM1686 1290v174h178v-174h-178z"/>
<glyph glyph-name="f_f_l" horiz-adv-x="2043" unicode="ffl" d="M236 0v920h-146v137h146v92q0 180 87 267t232 87q100 0 174 -26v-138q-94 27 -154 27q-184 0 -184 -225v-86h336v-135h-334v-920h-157zM989 0v920h-145v137h145v92q0 182 90 272q86 82 228 82q102 0 174 -26v-138q-90 27 -152 27q-184 0 -184 -225v-86h334v-135h-334 v-920h-156zM1696 0v1495h157v-1495h-157z"/>
<glyph glyph-name=".notdef" d="M0 -410v2048h1024v-2048h-1024zM145 1536l367 -799l367 799h-734zM102 -156l353 770l-353 770v-1540zM922 1384l-353 -770l353 -770v1540zM512 492l-367 -799h734z" horiz-adv-x="1024"/>
<glyph glyph-name=".null" horiz-adv-x="0"/>
<glyph glyph-name="nonmarkingreturn" horiz-adv-x="681"/>
<glyph glyph-name="space" horiz-adv-x="614" unicode=" "/>
<glyph glyph-name="exclam" horiz-adv-x="555" unicode="!" d="M186 1434h185v-115l-49 -913h-89l-47 913v115zM184 0v215h189v-215h-189z"/>
<glyph glyph-name="quotedbl" horiz-adv-x="901" unicode='&quot;' d="M784 1434v-11l-166 -546h-86l64 557h188zM385 1434v-11l-166 -546h-86l62 557h190z"/>
<glyph glyph-name="numbersign" horiz-adv-x="1433" unicode="#" d="M1260 504v-142h-267l-61 -362h-144l62 362h-391l-62 -362h-143l61 362h-223v142h248l74 434h-242v141h266l62 355h143l-61 -355h391l61 355h144l-62 -355h223v-141h-247l-74 -434h242zM559 940l-76 -438h391l74 438h-389z"/>
<glyph glyph-name="dollar" horiz-adv-x="1302" unicode="$" d="M1165 384q0 -161 -121 -266t-315 -118v-201h-131v205q-264 25 -483 211l92 123q190 -172 397 -197v514q-232 55 -334 147t-102 251v2q0 158 121 263t309 116v118h131v-122q205 -23 391 -164l-88 -123q-152 123 -309 147v-506q233 -51 337 -145t105 -255zM1008 377 q0 94 -60 151t-225 101v-494q131 8 208 74t77 166v2zM326 1066q0 -94 58 -152t220 -101v483q-127 -6 -203 -70q-75 -65 -75 -160z"/>
<glyph glyph-name="percent" horiz-adv-x="1708" unicode="%" d="M430 717q-141 0 -232 106t-92 256v4q0 151 92 259t235 108t233 -106t90 -257v-4q0 -150 -92 -258t-234 -108zM621 1083q1 106 -55 179t-137 73h-2q-79 0 -131 -71.5t-52 -176.5v-4q0 -106 55 -179t136 -73t133 72t53 176v4zM807 748l500 686h145l-1051 -1434h-147z M1275 -16q-142 0 -233 106q-90 106 -90 256v4q0 150 92 258t234 109q142 -1 231 -107q90 -106 90 -256v-4q0 -152 -91 -259t-233 -107zM1087 350q-1 -106 55 -179t137 -73t133 72t52 176v4q0 106 -55 179t-136 73t-133 -72t-53 -176v-4z"/>
<glyph glyph-name="ampersand" horiz-adv-x="1425" unicode="&amp;" d="M543 -20q-195 0 -323 112t-128 289v4q0 279 346 414q-143 168 -143 315v4q0 144 105 242q104 98 264 98t259 -94t99 -229v-5q0 -254 -338 -372l328 -334q92 133 172 319l133 -61q-109 -231 -207 -360l250 -256l-123 -95l-225 232q-207 -223 -469 -223zM870 1122v4 q0 86 -57 142t-149 57q-92 0 -152 -59t-61 -148v-4q1 -64 31 -120t112 -144q276 94 276 272zM555 117q188 0 358 186l-383 395q-138 -51 -206 -132t-68 -175v-4q0 -117 84 -193t215 -77z"/>
<glyph glyph-name="quotesingle" horiz-adv-x="501" unicode="&apos;" d="M387 1434v-11l-166 -546h-88l62 557h192z"/>
<glyph glyph-name="parenleft" horiz-adv-x="888" unicode="(" d="M299 588q0 -469 475 -772l-67 -105q-567 319 -567 877t567 876l67 -104q-475 -303 -475 -772z"/>
<glyph glyph-name="parenright" horiz-adv-x="888" unicode=")" d="M590 588q0 469 -475 772l67 104q567 -318 567 -876t-567 -877l-67 105q475 303 475 772z"/>
<glyph glyph-name="asterisk" horiz-adv-x="880" unicode="*" d="M387 813l21 256l-211 -149l-56 96l238 108l-238 111l56 94l211 -147l-21 256h107l-21 -256l211 147l55 -94l-237 -111l237 -108l-55 -96l-211 149l21 -256h-107z"/>
<glyph glyph-name="plus" horiz-adv-x="1280" unicode="+" d="M563 225v422h-424v148h424v422h154v-422h424v-148h-424v-422h-154z"/>
<glyph glyph-name="comma" horiz-adv-x="501" unicode="," d="M158 0v215h188v-184q0 -123 -54 -189t-173 -92l-25 72q138 49 138 159q0 10 -1 19h-73z"/>
<glyph glyph-name="hyphen" horiz-adv-x="835" unicode="-" d="M133 532v166h569v-166h-569z"/>
<glyph glyph-name="period" horiz-adv-x="501" unicode="." d="M158 0v215h188v-215h-188z"/>
<glyph glyph-name="slash" horiz-adv-x="1040" unicode="/" d="M-43 -262l950 1896h146l-951 -1896h-145z"/>
<glyph glyph-name="zero" horiz-adv-x="1464" unicode="0" d="M731 -25q-270 0 -437 214t-167 524v4q0 309 169 525t439 216t436 -214t166 -523v-4q0 -309 -168 -525t-438 -217zM735 123q195 0 315 173t119 417v4q0 244 -121 419q-122 175 -317 175t-315 -172t-121 -418v-4q1 -244 123 -419t317 -175z"/>
<glyph glyph-name="one" horiz-adv-x="733" unicode="1" d="M367 0v1276l-271 -84l-39 131l351 121h118v-1444h-159z"/>
<glyph glyph-name="two" horiz-adv-x="1226" unicode="2" d="M98 0v125l520 459q168 150 234 246t66 212q0 115 -84 191t-203 76h-4q-117 0 -205 -59.5t-178 -186.5l-119 86q104 157 221 231q116 74 302 74t312 -115t125 -290v-5q1 -150 -79 -266t-283 -291l-383 -340h760v-147h-1002z"/>
<glyph glyph-name="three" horiz-adv-x="1255" unicode="3" d="M637 -25q-338 0 -535 256l119 105q172 -213 418 -213q133 0 223 78t90 200v5q0 132 -110 204t-291 72h-92l-33 96l453 510h-701v146h916v-119l-451 -500q205 -15 339 -117t134 -286v-4q0 -188 -138 -310t-341 -123z"/>
<glyph glyph-name="four" horiz-adv-x="1374" unicode="4" d="M885 0v340h-756l-41 119l811 985h143v-969h222v-135h-222v-340h-157zM885 475v739l-602 -739h602z"/>
<glyph glyph-name="five" horiz-adv-x="1253" unicode="5" d="M621 -25q-285 0 -512 228l106 116q202 -196 406 -196h2q153 0 249 90t97 227v4q1 134 -99 218t-252 84t-307 -82l-108 71l41 699h825v-150h-684l-31 -459q145 63 283 64q215 0 355 -119t141 -319v-5q1 -209 -143 -340t-369 -131z"/>
<glyph glyph-name="six" horiz-adv-x="1325" unicode="6" d="M1196 453q0 -207 -147.5 -342.5t-369.5 -135.5h-3q-225 0 -371 146q-92 92 -136 219t-44 336v4q0 336 161 557t435 221q223 0 424 -164l-94 -125q-168 141 -338 142q-199 0 -311 -178t-111 -437v-20q152 221 409 221q208 0 352 -122t144 -318v-4zM683 119q157 0 252 94 t95 233v5q0 133 -98 220t-253 87t-256 -94t-101 -220v-4q0 -137 102 -229t259 -92z"/>
<glyph glyph-name="seven" horiz-adv-x="1220" unicode="7" d="M139 1286v148h973v-121l-651 -1313h-180l647 1286h-789z"/>
<glyph glyph-name="eight" horiz-adv-x="1290" unicode="8" d="M645 -20q-231 0 -385 114t-154 291v4q0 123 80 213t215 139q-246 113 -245 330v4q0 162 144 271q144 108 345 108t345 -108t145 -271v-4q0 -217 -246 -330q135 -51 215 -139t80 -211v-4q0 -179 -154 -293t-385 -114zM645 799q139 0 234 73q94 74 94 189v4q0 106 -94 177 q-95 71 -235 71t-233 -71t-94 -177v-4q1 -115 94.5 -188.5t229.5 -73.5h4zM270 389q0 -113 101.5 -190.5t270.5 -77.5h4q171 0 273 78q101 78 101 190v4q0 119 -109 196t-267 77t-266 -77t-108 -196v-4z"/>
<glyph glyph-name="nine" horiz-adv-x="1325" unicode="9" d="M618 123q188 0 303 176q114 176 113 422v29q-147 -227 -405 -228q-221 0 -361 125q-139 125 -139 320v4q0 207 145 347q144 140 372 140t376 -147q178 -178 178 -555v-4q0 -342 -166 -559t-430 -218q-229 0 -442 177l94 124q174 -153 362 -153zM648 662q157 0 256 97 t100 226v4q0 139 -101.5 232.5t-258.5 93.5h-3q-158 0 -252 -98t-94 -238v-4q0 -137 98 -225t255 -88z"/>
<glyph glyph-name="colon" horiz-adv-x="522" unicode=":" d="M168 844v215h188v-215h-188zM168 0v215h188v-215h-188z"/>
<glyph glyph-name="semicolon" horiz-adv-x="522" unicode=";" d="M168 844v215h188v-215h-188zM168 0v215h188v-184q0 -123 -54 -189t-173 -92l-25 72q139 49 139 160q0 9 -1 18h-74z"/>
<glyph glyph-name="less" horiz-adv-x="1280" unicode="&lt;" d="M1094 176l-963 477v135l963 478v-158l-791 -385l791 -387v-160z"/>
<glyph glyph-name="equal" horiz-adv-x="1280" unicode="=" d="M164 885v151h952v-151h-952zM164 406v151h952v-151h-952z"/>
<glyph glyph-name="greater" horiz-adv-x="1280" unicode="&gt;" d="M188 176v158l789 385l-789 387v160l961 -478v-135z"/>
<glyph glyph-name="question" horiz-adv-x="1099" unicode="?" d="M838 1040q0 113 -82 190t-217 77q-207 0 -373 -193l-105 100q197 238 482 238q205 0 331 -115t127 -290v-5q-1 -182 -119 -285t-307 -130l-20 -221h-104l-31 331l10 11q197 4 302 80t106 208v4zM408 0v215h188v-215h-188z"/>
<glyph glyph-name="at" horiz-adv-x="2007" unicode="@" d="M1022 -332q-389 0 -651 261t-262 631t261 634t634 264q374 0 634 -243t260 -568q0 -244 -114 -373t-268 -129q-109 0 -183 46t-104 126q-145 -172 -338 -172h-3q-152 0 -257.5 103.5t-106.5 269.5q0 211 146 361q146 149 338 149t288 -170l27 141l137 -18l-82 -465 q-14 -80 -14 -142t46 -105q46 -44 128 -44q119 0 203 109t84 313q0 291 -239 516q-238 225 -584 225t-583 -241q-237 -242 -237 -587t237.5 -583.5t599.5 -238.5h3q272 0 510 139l33 -55q-252 -154 -543 -154zM928 272q118 0 223.5 106.5t105.5 259.5q0 115 -70 189t-184 74 h-3q-116 0 -218 -100q-110 -114 -110 -270q0 -123 70 -191t186 -68z"/>
<glyph glyph-name="A" horiz-adv-x="1617" unicode="A" d="M80 0l653 1444h152l653 -1444h-174l-168 379h-780l-170 -379h-166zM479 526h654l-326 729z"/>
<glyph glyph-name="B" horiz-adv-x="1478" unicode="B" d="M203 0v1434h610q244 0 375 -127q92 -96 92 -230v-4q0 -233 -227 -332q307 -92 307 -346v-4q0 -183 -141 -287t-379 -104h-637zM1116 1051v4q0 109 -83 171t-234 62h-437v-493h424q150 1 240 67t90 189zM1196 406q0 119 -97 182t-284 63h-453v-506h482q164 0 258 69 t94 187v5z"/>
<glyph glyph-name="C" horiz-adv-x="1511" unicode="C" d="M858 -25q-307 0 -513 213t-206 525v4q0 309 207 525t518 216q182 0 312 -57t247 -170l-110 -119q-207 197 -448 197t-399 -170t-159 -418v-4q0 -250 160 -421t395 -171q140 0 246 51t217 156l107 -105q-122 -125 -255 -188.5t-313 -63.5h-6z"/>
<glyph glyph-name="D" horiz-adv-x="1601" unicode="D" d="M203 0v1434h497q334 0 548 -204t214 -509v-4q0 -307 -214 -512t-548 -205h-497zM700 1284h-335v-1134h335q266 0 430 160t164 403v4q0 243 -164 405t-430 162z"/>
<glyph glyph-name="E" horiz-adv-x="1372" unicode="E" d="M203 0v1434h1036v-148h-874v-489h782v-148h-782v-502h884v-147h-1046z"/>
<glyph glyph-name="F" horiz-adv-x="1343" unicode="F" d="M203 0v1434h1030v-150h-868v-512h776v-147h-776v-625h-162z"/>
<glyph glyph-name="G" horiz-adv-x="1605" unicode="G" d="M868 -25q-330 0 -530 211t-199 527v4q0 303 203 522t516 219q172 0 296 -47t239 -143l-105 -123q-188 164 -428 164t-397 -172q-156 -172 -156 -416v-4q0 -260 155 -428q154 -168 402 -168t424 143v357h-436v145h592v-571q-246 -220 -576 -220z"/>
<glyph glyph-name="H" horiz-adv-x="1556" unicode="H" d="M203 0v1434h162v-637h827v637h162v-1434h-162v645h-827v-645h-162z"/>
<glyph glyph-name="I" horiz-adv-x="595" unicode="I" d="M217 0v1434h162v-1434h-162z"/>
<glyph glyph-name="J" horiz-adv-x="1132" unicode="J" d="M506 -20q-287 0 -443 253l117 101q70 -104 145 -154t191 -51q116 0 195 89q78 89 77 255v961h164v-959q0 -246 -131 -377q-122 -118 -315 -118z"/>
<glyph glyph-name="K" horiz-adv-x="1472" unicode="K" d="M203 0v1434h162v-856l823 856h209l-615 -627l641 -807h-202l-551 694l-305 -309v-385h-162z"/>
<glyph glyph-name="L" horiz-adv-x="1267" unicode="L" d="M203 0v1434h162v-1284h806v-150h-968z"/>
<glyph glyph-name="M" horiz-adv-x="1777" unicode="M" d="M203 0v1434h164l522 -783l522 783h164v-1434h-162v1161l-522 -768h-8l-523 766v-1159h-157z"/>
<glyph glyph-name="N" horiz-adv-x="1617" unicode="N" d="M203 0v1434h151l903 -1149v1149h158v-1434h-129l-926 1176v-1176h-157z"/>
<glyph glyph-name="O" horiz-adv-x="1740" unicode="O" d="M868 -25q-319 0 -524 216t-205 522v4q0 305 207 523t526 218q318 0 524 -216t206 -521v-4q0 -305 -208 -523t-526 -219zM872 125q244 0 403 170t159 418v4q0 248 -161 420t-405 172t-402 -170t-159 -418v-4q1 -248 161 -420t404 -172z"/>
<glyph glyph-name="P" horiz-adv-x="1368" unicode="P" d="M203 0v1434h536q244 0 390 -122t147 -333v-4q0 -223 -161 -346t-402 -123h-348v-506h-162zM365 653h354q178 0 286 87t107 229v4q0 151 -103 231t-282 80h-362v-631z"/>
<glyph glyph-name="Q" horiz-adv-x="1740" unicode="Q" d="M868 -25q-319 0 -524 216t-205 522v4q0 305 207 523t526 218q318 0 524 -216t206 -521v-4q0 -270 -170 -479l188 -160l-111 -121l-190 170q-195 -152 -451 -152zM872 125q190 0 332 106l-268 230l108 121l269 -244q121 160 121 375v4q0 248 -161 420t-405 172t-402 -170 t-159 -418v-4q1 -248 161 -420t404 -172z"/>
<glyph glyph-name="R" horiz-adv-x="1480" unicode="R" d="M203 0v1434h616q264 0 408 -144q111 -111 110 -282v-4q0 -172 -106 -278t-283 -140l441 -586h-199l-416 557h-409v-557h-162zM365 702h440q164 0 266 80t103 215v4q0 133 -98 208t-269 75h-442v-582z"/>
<glyph glyph-name="S" horiz-adv-x="1310" unicode="S" d="M694 -20q-330 0 -585 229l100 119q115 -104 230 -153.5t254 -49.5h6q144 0 233 69q88 69 88 175v4q0 103 -78 165t-314 112t-348 144q-114 94 -114 265v4q0 171 133 281t338 110q285 0 504 -176l-94 -125q-190 156 -414 156q-137 0 -221 -67t-84 -165v-4q0 -105 81 -167 t317 -113t346 -147q112 -96 112 -257v-4q0 -182 -137 -294q-138 -111 -353 -111z"/>
<glyph glyph-name="T" horiz-adv-x="1327" unicode="T" d="M582 0v1284h-482v150h1127v-150h-482v-1284h-163z"/>
<glyph glyph-name="U" horiz-adv-x="1554" unicode="U" d="M777 -23q-273 0 -435 163t-162 460v834h162v-824q0 -229 117 -356t321 -127t318 121q115 121 114 352v834h162v-822q0 -307 -162 -471t-435 -164z"/>
<glyph glyph-name="V" horiz-adv-x="1536" unicode="V" d="M696 -10l-616 1444h180l510 -1235l512 1235h174l-616 -1444h-144z"/>
<glyph glyph-name="W" horiz-adv-x="2267" unicode="W" d="M604 -10l-512 1444h176l410 -1194l393 1198h133l393 -1198l410 1194h170l-512 -1444h-137l-393 1163l-396 -1163h-135z"/>
<glyph glyph-name="X" horiz-adv-x="1484" unicode="X" d="M1182 1434h188l-528 -703l549 -731h-193l-459 618l-458 -618h-187l549 731l-528 703h190l438 -590z"/>
<glyph glyph-name="Y" horiz-adv-x="1466" unicode="Y" d="M651 0v567l-596 867h197l483 -717l488 717h188l-596 -865v-569h-164z"/>
<glyph glyph-name="Z" horiz-adv-x="1419" unicode="Z" d="M137 0v109l928 1179h-897v146h1118v-109l-930 -1180h930v-145h-1149z"/>
<glyph glyph-name="bracketleft" horiz-adv-x="899" unicode="[" d="M193 -266v1700h585v-123h-436v-1454h436v-123h-585z"/>
<glyph glyph-name="backslash" horiz-adv-x="1040" unicode="\" d="M938 -262l-950 1896h145l950 -1896h-145z"/>
<glyph glyph-name="bracketright" horiz-adv-x="899" unicode="]" d="M121 -266v123h438v1454h-438v123h588v-1700h-588z"/>
<glyph glyph-name="asciicircum" horiz-adv-x="1024" unicode="^" d="M133 1010l318 428h122l318 -428h-139l-242 315l-242 -315h-135z"/>
<glyph glyph-name="underscore" horiz-adv-x="1228" unicode="_" d="M-4 -328v129h1237v-129h-1237z"/>
<glyph glyph-name="grave" horiz-adv-x="1024" unicode="`" d="M528 1219l-233 221l164 76l192 -297h-123z"/>
<glyph glyph-name="a" horiz-adv-x="1185" unicode="a" d="M492 -23q-160 1 -278 89t-118 241v4q0 164 123 253t309 89t346 -45v37q0 141 -81 215q-82 74 -234 74t-321 -78l-48 129q194 88 402 88t321 -112t113 -307v-7v-647h-152v160q-138 -183 -382 -183zM256 313q0 -95 76 -153t207 -58q130 0 234 81q103 81 104 206v103 q-155 45 -307 45h-5q-148 0 -228.5 -59.5t-80.5 -160.5v-4z"/>
<glyph glyph-name="b" horiz-adv-x="1359" unicode="b" d="M739 -23q-250 0 -405 226v-203h-158v1495h158v-649q159 235 403 235h2h3q201 0 352.5 -149.5t150.5 -399.5v-4q1 -248 -150.5 -399.5t-352.5 -151.5h-3zM714 119q157 1 263 111t106 296v4q0 182 -108 296q-109 114 -263 114t-270 -116q-115 -116 -114 -292v-4 q0 -178 114 -294q115 -115 272 -115z"/>
<glyph glyph-name="c" horiz-adv-x="1169" unicode="c" d="M662 -25q-238 0 -395 162t-156 387v4q0 227 156 391q157 163 395 163t415 -189l-104 -111q-152 160 -317 160q-164 0 -274 -119t-110 -291v-4q0 -172 111.5 -291.5t280.5 -119.5h3q171 0 318 157l100 -94q-185 -205 -423 -205z"/>
<glyph glyph-name="d" horiz-adv-x="1359" unicode="d" d="M621 -23q-203 0 -355 150t-151 399v4q0 248 151 400q151 151 352 151h3q250 0 405 -225v639h158v-1495h-158v213q-159 -236 -405 -236zM649 119h3q152 0 266.5 115.5t113.5 293.5v4q0 176 -114 292q-115 116 -272 116t-263 -111t-107 -297v-4q0 -182 109.5 -295.5 t260.5 -113.5h3z"/>
<glyph glyph-name="e" horiz-adv-x="1212" unicode="e" d="M639 -25q-223 0 -376 155t-152 396v4q0 232 145 392t367 160t356 -160q133 -160 133 -400q0 -33 -2 -51h-840q16 -168 122 -263t251 -95q190 0 334 149l98 -88q-178 -199 -436 -199zM620 948q-144 0 -238 -102q-96 -102 -112 -258h682q-12 156 -100 258t-232 102z"/>
<glyph glyph-name="f" horiz-adv-x="751" unicode="f" d="M236 0v920h-146v137h146v92q0 180 87 267t232 87q100 0 174 -26v-138q-94 27 -154 27q-184 0 -184 -225v-86h336v-135h-334v-920h-157z"/>
<glyph glyph-name="g" horiz-adv-x="1359" unicode="g" d="M1184 184q0 -240 -138 -378t-404 -138q-265 0 -478 148l72 123q186 -135 407 -136h4q174 0 277.5 97.5t103.5 279.5v125q-168 -223 -416 -223q-201 0 -349 138t-148 358v4q0 223 149 361q150 138 348 138q254 0 414 -213v191h158v-875zM276 582q0 -156 108 -258t261 -103 h3q153 0 268.5 101.5t115.5 257.5v4q0 158 -116 258t-272 100t-261 -98q-106 -98 -107 -258v-4z"/>
<glyph glyph-name="h" horiz-adv-x="1261" unicode="h" d="M176 0v1495h158v-621q125 207 362 207h3q186 0 294.5 -115.5t108.5 -308.5v-657h-158v618q0 150 -77 235t-215 85t-228 -92t-90 -240v-606h-158z"/>
<glyph glyph-name="i" horiz-adv-x="538" unicode="i" d="M180 1290v174h180v-174h-180zM190 0v1059h158v-1059h-158z"/>
<glyph glyph-name="j" horiz-adv-x="538" unicode="j" d="M180 1290v174h180v-174h-180zM90 -334q-55 0 -98 10v129q37 -6 78 -6q121 0 120 142v1118h158v-1120q0 -137 -68 -205t-190 -68z"/>
<glyph glyph-name="k" horiz-adv-x="1165" unicode="k" d="M176 0v1495h158v-1032l571 596h197l-445 -455l459 -604h-188l-379 494l-215 -218v-276h-158z"/>
<glyph glyph-name="l" horiz-adv-x="538" unicode="l" d="M190 0v1495h158v-1495h-158z"/>
<glyph glyph-name="m" horiz-adv-x="1947" unicode="m" d="M176 0v1059h158v-178q132 200 340 200h2q238 0 340 -211q137 211 373 211q182 -1 287 -115t106 -311v-655h-158v618q0 154 -73 237t-199 83t-210 -88q-83 -88 -83 -240v-610h-158v623q0 147 -73 231q-74 84 -200 84t-210 -94t-84 -240v-604h-158z"/>
<glyph glyph-name="n" horiz-adv-x="1261" unicode="n" d="M176 0v1059h158v-185q125 207 362 207h3q186 0 294.5 -115.5t108.5 -308.5v-657h-158v618q0 150 -77 235t-215 85t-228 -92t-90 -240v-606h-158z"/>
<glyph glyph-name="o" horiz-adv-x="1323" unicode="o" d="M659 -25q-237 0 -393 161t-155 388v4q0 227 158 391q159 163 395 163t394 -162q156 -158 156 -382v-6v-4q0 -227 -160 -390t-395 -163zM272 528q0 -172 112.5 -291.5t278.5 -119.5h3q168 0 278 119t109 288v4q0 172 -114 293t-281 121q-166 0 -276 -120t-110 -290v-4z "/>
<glyph glyph-name="p" horiz-adv-x="1359" unicode="p" d="M176 -328v1387h158v-213q159 235 403 235h2h3q201 0 352.5 -149.5t150.5 -399.5v-4q1 -248 -150.5 -399.5t-352.5 -151.5h-3q-250 0 -405 226v-531h-158zM714 119q157 1 263 111t106 296v4q0 182 -108 296q-109 114 -263 114t-270 -116q-115 -116 -114 -292v-4 q0 -178 114 -294q115 -115 272 -115z"/>
<glyph glyph-name="q" horiz-adv-x="1359" unicode="q" d="M1026 -328v541q-160 -236 -405 -236q-203 0 -355 150t-151 399v4q0 248 151 400q151 151 352 151h3q250 0 405 -225v203h158v-1387h-158zM649 119h3q152 0 266.5 115.5t113.5 293.5v4q0 176 -114 292q-115 116 -272 116t-263 -111t-107 -297v-4q0 -182 109.5 -295.5 t260.5 -113.5h3z"/>
<glyph glyph-name="r" horiz-adv-x="829" unicode="r" d="M176 0v1059h158v-277q61 137 170 216t242 79h20v-170h-12q-182 0 -301 -127t-119 -358v-422h-158z"/>
<glyph glyph-name="s" horiz-adv-x="1019" unicode="s" d="M526 -20q-114 0 -232 42t-206 113l80 113q180 -135 367 -135q96 0 157 46t62 122v4q0 73 -67 111t-173 68t-152 48q-47 18 -106 52q-117 67 -117 206v4q-1 135 101 219t260 84q205 0 381 -116l-72 -119q-158 102 -313 102q-92 0 -148 -43t-57 -110v-5q0 -97 189 -154 t256 -92q67 -34 97 -64q70 -69 70 -175v-4q-1 -147 -107 -232t-270 -85z"/>
<glyph glyph-name="t" horiz-adv-x="827" unicode="t" d="M514 -18q-120 0 -202 72q-81 72 -81 227v639h-147v139h147v319h158v-319h336v-139h-336v-619q0 -176 178 -176q78 0 154 37v-135q-87 -45 -207 -45z"/>
<glyph glyph-name="u" horiz-adv-x="1261" unicode="u" d="M565 -23q-188 0 -297 116t-108 308v658h157v-619q0 -150 77 -234t215 -85q138 0 229 92q90 92 90 240v606h155v-1059h-155v184q-130 -207 -363 -207z"/>
<glyph glyph-name="v" horiz-adv-x="1202" unicode="v" d="M530 -8l-458 1067h174l356 -879l359 879h169l-460 -1067h-140z"/>
<glyph glyph-name="w" horiz-adv-x="1763" unicode="w" d="M457 -8l-371 1067h168l278 -850l285 854h131l287 -854l278 850h164l-372 -1067h-138l-284 835l-287 -835h-139z"/>
<glyph glyph-name="x" horiz-adv-x="1175" unicode="x" d="M276 1059l312 -414l315 414h176l-401 -518l418 -541h-183l-327 436l-330 -436h-176l414 539l-398 520h180z"/>
<glyph glyph-name="y" horiz-adv-x="1210" unicode="y" d="M343 -334q-118 0 -228 53l53 125q76 -39 157 -39t130 44t96 155l-481 1055h174l385 -883l340 883h168l-445 -1094q-68 -163 -150 -231t-199 -68z"/>
<glyph glyph-name="z" horiz-adv-x="1138" unicode="z" d="M115 0v100l702 826h-678v133h893v-101l-704 -825h704v-133h-917z"/>
<glyph glyph-name="braceleft" horiz-adv-x="989" unicode="{" d="M168 526h-53v123h53q133 1 187 61t55 185l-2 156q0 174 92 270t352 143l25 -104q-205 -53 -263 -118t-57 -212l2 -153q0 -123 -54 -190t-159 -99q109 -35 161 -101t52 -188l-2 -154q0 -147 57 -212t263 -117l-25 -105q-260 47 -352 143t-92 271l2 156q0 125 -54 185 t-188 60z"/>
<glyph glyph-name="bar" horiz-adv-x="620" unicode="|" d="M244 -262v1896h133v-1896h-133z"/>
<glyph glyph-name="braceright" horiz-adv-x="989" unicode="}" d="M872 649v-123h-53q-131 0 -185 -60t-54 -185l2 -156q0 -175 -92 -271t-353 -143l-26 105q207 54 264 118t57 211l-2 154q0 123 54 189t159 100q-109 34 -161 100t-52 189l2 153q0 147 -57 212t-264 118l26 104q260 -47 352 -143t93 -270l-2 -156q0 -125 54 -185t185 -61 h53z"/>
<glyph glyph-name="asciitilde" horiz-adv-x="970" unicode="~" d="M640 504q-62 0 -158 42t-133 42q-35 0 -57 -22t-46 -81l-96 27q31 117 75 167q45 50 107 50t156 -42t132 -42t59 23q22 23 46 80l94 -27q-31 -117 -75 -167q-42 -50 -104 -50z"/>
<glyph glyph-name="uni00A0" horiz-adv-x="614" unicode=" "/>
<glyph glyph-name="exclamdown" horiz-adv-x="555" unicode="¡" d="M184 1219v215h189v-215h-189zM186 0v117l47 911h89l49 -911v-117h-185z"/>
<glyph glyph-name="cent" horiz-adv-x="1189" unicode="¢" d="M668 315q178 0 325 158l99 -92q-182 -207 -433 -207q-37 0 -55 2l-37 -188h-133l43 217q-160 57 -259 199t-99 319v4q0 227 157 390q158 163 386 163h24l33 166h133l-37 -186q143 -37 270 -170l-102 -107q-104 104 -201 137l-157 -803q14 -2 43 -2zM279 727 q0 -127 63 -229t168 -150l156 791h-9q-159 0 -269 -119t-109 -289v-4z"/>
<glyph glyph-name="sterling" horiz-adv-x="1318" unicode="£" d="M137 0v94l172 43v467h-172v141h172v222q0 235 126 361t327 126q268 0 438 -221l-125 -98q-67 84 -139 127t-184 43t-193 -76q-88 -92 -88 -262v-222h571v-141h-571v-461h727v-143h-1061z"/>
<glyph glyph-name="yen" horiz-adv-x="1404" unicode="¥" d="M205 545v127h368l-518 762h193l457 -701l460 701h185l-523 -762h373v-127h-420v-180h420v-127h-420v-238h-155v238h-420v127h420v180h-420z"/>
<glyph glyph-name="section" horiz-adv-x="1294" unicode="§" d="M1049 256v-4q-1 -123 -102.5 -197.5t-269.5 -74.5h-5q-279 0 -469 194l102 98q161 -157 368 -157h3q102 0 157 38q54 38 54 97v4q0 57 -75 101q-76 44 -284 93t-305 115q-96 66 -96 170v4q0 93 74 153t196 81q-152 78 -151 207v4q0 124 102 198t275 74q279 0 469 -194 l-103 -99q-162 158 -371 158q-102 0 -156 -37t-54 -98v-4q0 -57 72 -101q73 -43 285 -93t307 -115t95 -171v-4q1 -90 -73 -152t-197 -81q152 -74 152 -207zM279 750q-1 -110 275 -176q142 -35 237 -35h5q95 0 157 42t63 99v4q0 107 -277 175q-147 36 -241 36t-156 -42 t-63 -99v-4z"/>
<glyph glyph-name="dieresis" horiz-adv-x="1024" unicode="¨" d="M600 1219v194h182v-194h-182zM242 1219v194h182v-194h-182z"/>
<glyph glyph-name="copyright" horiz-adv-x="1699" unicode="©" d="M848 -25q-309 0 -524 216t-215 522v4q0 305 217 523t526 218t524 -216t215 -521v-4q0 -305 -217 -523t-526 -219zM176 713q0 -281 194 -477t479 -197q287 0 481 199t194 479v4q0 281 -194 477t-480 197q-286 0 -480 -199t-194 -479v-4zM863 334q-167 0 -277 115t-109 276 v4q0 162 111 277q112 114 276 114t293 -123l-76 -82q-106 103 -221 103q-116 0 -192 -84t-76 -203v-4q0 -119 79 -204t193 -85t223 103l74 -72q-131 -135 -298 -135z"/>
<glyph glyph-name="ordfeminine" horiz-adv-x="798" unicode="ª" d="M344 836q-88 0 -154 49t-65 135v4q0 90 70 140t167 50t179 -22v10q0 70 -42 108t-118 38t-176 -45l-31 86q118 51 228 51t180 -66q59 -59 59 -172v-354h-100v78q-74 -90 -197 -90zM231 1024q0 -46 38 -74q39 -28 103 -28t116 40t53 103v49q-76 23 -152 23t-117 -30 t-41 -79v-4zM119 592v96h532v-96h-532z"/>
<glyph glyph-name="guillemotleft" horiz-adv-x="1126" unicode="«" d="M893 86l-338 436v17l338 434l113 -66l-271 -375l271 -380zM436 86l-338 436v17l338 434l115 -66l-272 -375l272 -380z"/>
<glyph glyph-name="registered" horiz-adv-x="825" unicode="®" d="M770 1096q0 -147 -104 -253t-254 -106q-148 1 -251 105t-104 252v2q1 146 105 252t253 106t252 -104t103 -252v-2zM414 776q133 0 224 94t91 226v2q0 131 -91 224t-224 93q-132 0 -224 -94t-92 -225v-2q0 -131 91 -225q92 -93 225 -93zM274 922v362h164q60 0 100 -30 t40 -85q0 -86 -84 -110l96 -137h-84l-86 125h-76v-125h-70zM344 1104h88q74 0 74 59t-74 60h-88v-119z"/>
<glyph glyph-name="macron" horiz-adv-x="1024" unicode="¯" d="M193 1260v129h638v-129h-638z"/>
<glyph glyph-name="degree" horiz-adv-x="937" unicode="°" d="M469 819q-127 0 -224 94t-98 217v5q-1 125 97 218t225 93t224 -93t98 -218v-5q1 -123 -97 -217t-225 -94zM469 926q86 0 144 61t59 143v5q0 82 -58 143t-145 61q-86 0 -144 -61t-59 -143v-5q0 -82 58 -143t145 -61z"/>
<glyph glyph-name="plusminus" horiz-adv-x="1280" unicode="±" d="M1124 745h-409v-401h-150v401h-407v144h407v401h150v-401h409v-144zM1124 0h-966v141h966v-141z"/>
<glyph glyph-name="two.sup" d="M121 868v90l295 259q86 73 122 123t36 108t-44 98q-43 39 -108 39q-119 0 -213 -137l-78 55q117 178 297 178h3q110 0 181.5 -65.5t71.5 -153.5t-42 -149t-144 -150l-232 -196h424v-99h-569z" unicode="²"/>
<glyph glyph-name="three.sup" d="M403 848q-180 0 -299 143l72 72q100 -119 230 -119q70 0 117.5 40.5t47.5 106.5q0 71 -56.5 108.5t-144.5 37.5h-5h-68l-21 68l259 258h-385v98h520v-86l-254 -252q120 -9 192 -67t72 -164t-79 -176q-79 -68 -198 -68z" unicode="³"/>
<glyph glyph-name="acute" horiz-adv-x="1024" unicode="´" d="M373 1219l192 297l164 -76l-233 -221h-123z"/>
<glyph glyph-name="paragraph" horiz-adv-x="1044" unicode="¶" d="M692 0v541h-22h-4q-249 0 -408.5 117.5t-159.5 326.5v4q0 205 150 325t391 120h217v-1434h-164z"/>
<glyph glyph-name="periodcentered" horiz-adv-x="501" unicode="·" d="M158 508v217h188v-217h-188z"/>
<glyph glyph-name="cedilla" horiz-adv-x="1024" unicode="¸" d="M461 -317l-154 69l189 275h125z"/>
<glyph glyph-name="one.sup" horiz-adv-x="665" unicode="¹" d="M432 868h-106v695l-176 -68l-27 92l225 88h84v-807z"/>
<glyph glyph-name="ordmasculine" horiz-adv-x="798" unicode="º" d="M398 834q-128 0 -214 88t-86 213v4q0 127 87 216t215 89t214 -88t86 -213v-4q0 -127 -87 -216t-215 -89zM104 592v96h590v-96h-590zM401 932q82 0 136 59q53 59 53 144v4q0 86 -55 146q-55 61 -137 61t-136 -60q-53 -60 -53 -143v-4q0 -87 55 -147t137 -60z"/>
<glyph glyph-name="guillemotright" horiz-adv-x="1126" unicode="»" d="M690 86l-115 66l273 376l-273 379l115 66l338 -434v-17zM236 86l-115 66l270 376l-270 379l115 66l335 -434v-17z"/>
<glyph glyph-name="onequarter" horiz-adv-x="1689" unicode="¼" d="M1485 178v-182h-99v182h-389l-22 92l395 535h115v-539h110v-88h-110zM276 0l508 735l467 699h111l-508 -736l-467 -698h-111zM426 641h-107v694l-176 -67l-26 92l225 86h84v-805zM1386 266v412l-303 -412h303z"/>
<glyph glyph-name="onehalf" horiz-adv-x="1689" unicode="½" d="M1012 0v90l295 258q86 72 121 123q36 51 36 109t-43 98q-43 39 -108 39q-119 0 -213 -137l-78 55q117 178 297 178h3q109 0 180.5 -65.5t72.5 -153.5q0 -88 -42 -150t-144 -149l-232 -197h424v-98h-569zM256 0l508 735l467 699h110l-507 -736l-467 -698h-111zM426 641 h-107v694l-176 -67l-26 92l225 86h84v-805z"/>
<glyph glyph-name="threequarters" horiz-adv-x="1843" unicode="¾" d="M1638 178v-182h-98v182h-389l-23 92l396 535h114v-539h111v-88h-111zM403 621q-180 0 -299 143l72 72q100 -119 230 -119q70 0 118 41q47 39 47 105q0 71 -57 109t-149 38h-68l-21 67l259 258h-385v99h520v-86l-254 -252q120 -10 192 -68t72 -164q0 -107 -79 -175 t-198 -68zM420 0l508 735l467 699h110l-508 -736l-467 -698h-110zM1540 266v412l-303 -412h303z"/>
<glyph glyph-name="questiondown" horiz-adv-x="1099" unicode="¿" d="M504 1219v215h188v-215h-188zM557 -18q-207 0 -333 114t-126 291v4q0 181 119 285t307 131l19 221h104l33 -332l-10 -10q-197 -4 -302 -81t-106 -208v-4q0 -113 82 -189t217 -77q207 0 371 192l104 -100q-196 -237 -479 -237z"/>
<glyph glyph-name="Agrave" horiz-adv-x="1617" unicode="À" d="M80 0l653 1444h152l653 -1444h-174l-168 379h-780l-170 -379h-166zM479 526h654l-326 729zM874 1581h-131l-235 191l160 73z"/>
<glyph glyph-name="Aacute" horiz-adv-x="1617" unicode="Á" d="M80 0l653 1444h152l653 -1444h-174l-168 379h-780l-170 -379h-166zM479 526h654l-326 729zM743 1581l205 264l162 -73l-236 -191h-131z"/>
<glyph glyph-name="Acircumflex" horiz-adv-x="1617" unicode="Â" d="M80 0l653 1444h152l653 -1444h-174l-168 379h-780l-170 -379h-166zM479 526h654l-326 729zM510 1577l225 242h148l225 -242h-147l-154 123l-154 -123h-143z"/>
<glyph glyph-name="Atilde" horiz-adv-x="1617" unicode="Ã" d="M80 0l653 1444h152l653 -1444h-174l-168 379h-780l-170 -379h-166zM479 526h654l-326 729zM477 1591q59 209 181 209q60 0 160 -40q101 -40 133 -40t54 22t46 75l100 -29q-59 -207 -181 -207q-60 0 -158 40q-99 40 -133 40q-33 0 -55 -22t-46 -76z"/>
<glyph glyph-name="Adieresis" horiz-adv-x="1617" unicode="Ä" d="M80 0l653 1444h152l653 -1444h-174l-168 379h-780l-170 -379h-166zM479 526h654l-326 729zM905 1581v184h191v-184h-191zM522 1581v184h191v-184h-191z"/>
<glyph glyph-name="Aring" horiz-adv-x="1617" unicode="Å" d="M80 0l614 1360q-112 56 -112 174q0 88 66 146q67 58 161 58t161 -58t66 -144q0 -117 -112 -176l614 -1360h-174l-168 379h-780l-170 -379h-166zM479 526h654l-326 729zM809 1411q59 0 98 36t39 89t-39 89t-98 36t-98 -36t-39 -89t39 -89t98 -36z"/>
<glyph glyph-name="AE" horiz-adv-x="2140" unicode="Æ" d="M2007 1434v-148h-838v-489h746v-148h-746v-502h848v-147h-1011v379h-578l-223 -379h-170l842 1434h1130zM1006 526v764h-50l-446 -764h496z"/>
<glyph glyph-name="Ccedilla" horiz-adv-x="1511" unicode="Ç" d="M139 713v4q0 309 207 525t518 216q182 0 312 -57t247 -170l-110 -119q-207 197 -448 197t-399 -170t-159 -418v-4q0 -250 160 -421t395 -171q140 0 246 51t217 156l107 -105q-117 -119 -243 -181t-298 -69l-135 -294l-154 69l158 230q-272 35 -447 240q-174 206 -174 491 z"/>
<glyph glyph-name="Egrave" horiz-adv-x="1372" unicode="È" d="M791 1561h-132l-235 190l160 74zM203 0v1434h1036v-148h-874v-489h782v-148h-782v-502h884v-147h-1046z"/>
<glyph glyph-name="Eacute" horiz-adv-x="1372" unicode="É" d="M657 1561l205 264l162 -74l-236 -190h-131zM203 0v1434h1036v-148h-874v-489h782v-148h-782v-502h884v-147h-1046z"/>
<glyph glyph-name="Ecircumflex" horiz-adv-x="1372" unicode="Ê" d="M203 0v1434h1036v-148h-874v-489h782v-148h-782v-502h884v-147h-1046zM424 1561l225 241h148l225 -241h-148l-153 122l-154 -122h-143z"/>
<glyph glyph-name="Edieresis" horiz-adv-x="1372" unicode="Ë" d="M821 1561v184h191v-184h-191zM438 1561v184h191v-184h-191zM203 0v1434h1036v-148h-874v-489h782v-148h-782v-502h884v-147h-1046z"/>
<glyph glyph-name="Igrave" horiz-adv-x="595" unicode="Ì" d="M217 0v1434h162v-1434h-162zM365 1561h-132l-235 190l160 74z"/>
<glyph glyph-name="Iacute" horiz-adv-x="595" unicode="Í" d="M217 0v1434h162v-1434h-162zM233 1561l205 264l162 -74l-235 -190h-132z"/>
<glyph glyph-name="Icircumflex" horiz-adv-x="595" unicode="Î" d="M217 0v1434h162v-1434h-162zM0 1561l225 241h148l225 -241h-147l-154 122l-154 -122h-143z"/>
<glyph glyph-name="Idieresis" horiz-adv-x="595" unicode="Ï" d="M217 0v1434h162v-1434h-162zM397 1561v184h191v-184h-191zM14 1561v184h191v-184h-191z"/>
<glyph glyph-name="Eth" horiz-adv-x="1662" unicode="Ð" d="M264 0v647h-153v148h153v639h498q334 0 548 -204t214 -509v-4q0 -307 -214 -512t-548 -205h-498zM856 647h-430v-497h336q266 0 430 160t164 403v4q0 243 -164 405t-430 162h-336v-489h430v-148z"/>
<glyph glyph-name="Ntilde" horiz-adv-x="1617" unicode="Ñ" d="M679 1634q-33 0 -55 -22t-46 -76l-101 29q59 207 181 209q60 0 160 -40q101 -40 133 -40t54 22t46 74l100 -29q-59 -207 -181 -207q-60 0 -158 40q-99 40 -133 40zM203 0v1434h151l903 -1149v1149h158v-1434h-129l-926 1176v-1176h-157z"/>
<glyph glyph-name="Ograve" horiz-adv-x="1740" unicode="Ò" d="M936 1581h-131l-236 191l160 73zM868 -25q-319 0 -524 216t-205 522v4q0 305 207 523t526 218q318 0 524 -216t206 -521v-4q0 -305 -208 -523t-526 -219zM872 125q244 0 403 170t159 418v4q0 248 -161 420t-405 172t-402 -170t-159 -418v-4q1 -248 161 -420t404 -172z "/>
<glyph glyph-name="Oacute" horiz-adv-x="1740" unicode="Ó" d="M805 1581l205 264l161 -73l-235 -191h-131zM868 -25q-319 0 -524 216t-205 522v4q0 305 207 523t526 218q318 0 524 -216t206 -521v-4q0 -305 -208 -523t-526 -219zM872 125q244 0 403 170t159 418v4q0 248 -161 420t-405 172t-402 -170t-159 -418v-4q1 -248 161 -420 t404 -172z"/>
<glyph glyph-name="Ocircumflex" horiz-adv-x="1740" unicode="Ô" d="M868 -25q-319 0 -524 216t-205 522v4q0 305 207 523t526 218q318 0 524 -216t206 -521v-4q0 -305 -208 -523t-526 -219zM872 125q244 0 403 170t159 418v4q0 248 -161 420t-405 172t-402 -170t-159 -418v-4q1 -248 161 -420t404 -172zM571 1581l226 242h147l225 -242 h-147l-154 123l-153 -123h-144z"/>
<glyph glyph-name="Otilde" horiz-adv-x="1740" unicode="Õ" d="M539 1591q59 209 179 209q60 0 162 -40t133 -40t53 22t46 75l100 -29q-60 -207 -180 -207q-60 0 -158 40q-100 40 -134 40t-56 -22t-45 -76zM868 -25q-319 0 -524 216t-205 522v4q0 305 207 523t526 218q318 0 524 -216t206 -521v-4q0 -305 -208 -523t-526 -219zM872 125 q244 0 403 170t159 418v4q0 248 -161 420t-405 172t-402 -170t-159 -418v-4q1 -248 161 -420t404 -172z"/>
<glyph glyph-name="Odieresis" horiz-adv-x="1740" unicode="Ö" d="M967 1581v184h190v-184h-190zM584 1581v184h190v-184h-190zM868 -25q-319 0 -524 216t-205 522v4q0 305 207 523t526 218q318 0 524 -216t206 -521v-4q0 -305 -208 -523t-526 -219zM872 125q244 0 403 170t159 418v4q0 248 -161 420t-405 172t-402 -170t-159 -418v-4 q1 -248 161 -420t404 -172z"/>
<glyph glyph-name="multiply" horiz-adv-x="1280" unicode="×" d="M995 260l-356 363l-356 -363l-103 102l361 357l-361 356l107 107l356 -363l356 363l103 -103l-363 -356l363 -356z"/>
<glyph glyph-name="Oslash" horiz-adv-x="1740" unicode="Ø" d="M1602 717q0 -305 -207 -523t-527 -219q-258 0 -450 150l-125 -135h-170l201 221q-184 211 -185 502v4q0 305 207 523t526 218q256 0 449 -149l127 135h170l-203 -223q186 -209 187 -500v-4zM305 719q0 -225 129 -389l785 860q-154 123 -351 123q-244 0 -404 -171 t-159 -421v-2zM872 121q244 0 404 171t160 421v2q0 219 -131 387l-785 -858q149 -123 352 -123z"/>
<glyph glyph-name="Ugrave" horiz-adv-x="1554" unicode="Ù" d="M842 1554h-131l-236 191l160 74zM777 -23q-273 0 -435 163t-162 460v834h162v-824q0 -229 117 -356t321 -127t318 121q115 121 114 352v834h162v-822q0 -307 -162 -471t-435 -164z"/>
<glyph glyph-name="Uacute" horiz-adv-x="1554" unicode="Ú" d="M711 1554l204 265l162 -74l-235 -191h-131zM777 -23q-273 0 -435 163t-162 460v834h162v-824q0 -229 117 -356t321 -127t318 121q115 121 114 352v834h162v-822q0 -307 -162 -471t-435 -164z"/>
<glyph glyph-name="Ucircumflex" horiz-adv-x="1554" unicode="Û" d="M777 -23q-273 0 -435 163t-162 460v834h162v-824q0 -229 117 -356t321 -127t318 121q115 121 114 352v834h162v-822q0 -307 -162 -471t-435 -164zM477 1554l225 242h148l225 -242h-147l-154 123l-153 -123h-144z"/>
<glyph glyph-name="Udieresis" horiz-adv-x="1554" unicode="Ü" d="M874 1554v185h191v-185h-191zM492 1554v185h190v-185h-190zM777 -23q-273 0 -435 163t-162 460v834h162v-824q0 -229 117 -356t321 -127t318 121q115 121 114 352v834h162v-822q0 -307 -162 -471t-435 -164z"/>
<glyph glyph-name="Yacute" horiz-adv-x="1466" unicode="Ý" d="M651 0v567l-596 867h197l483 -717l488 717h188l-596 -865v-569h-164zM668 1554l204 265l162 -74l-235 -191h-131z"/>
<glyph glyph-name="Thorn" horiz-adv-x="1378" unicode="Þ" d="M203 0v1434h162v-246h374q244 0 390 -123t147 -332v-4q0 -223 -161 -347t-402 -124h-348v-258h-162zM365 406h354q178 0 286 88t107 229v4q0 151 -103 231t-282 80h-362v-632z"/>
<glyph glyph-name="germandbls" horiz-adv-x="1269" unicode="ß" d="M989 393v4q0 119 -103 191t-288 90v117q303 113 303 331v4q0 106 -75 174q-72 66 -193 66h-7q-126 0 -209 -93t-83 -249v-1028h-158v1026q0 217 126 350t328 133t317 -105q116 -105 116 -263v-4q0 -133 -81 -227t-204 -148q162 -37 268 -127t105 -238v-4 q-1 -189 -146.5 -293t-388.5 -104h-18v127q184 4 288 74q103 70 103 196z"/>
<glyph glyph-name="agrave" horiz-adv-x="1185" unicode="à" d="M492 -23q-160 1 -278 89t-118 241v4q0 164 123 253t309 89t346 -45v37q0 141 -81 215q-82 74 -234 74t-321 -78l-48 129q194 88 402 88t321 -112t113 -307v-7v-647h-152v160q-138 -183 -382 -183zM256 313q0 -95 76 -153t207 -58q130 0 234 81q103 81 104 206v103 q-155 45 -307 45h-5q-148 0 -228.5 -59.5t-80.5 -160.5v-4zM535 1219l-234 221l164 76l192 -297h-122z"/>
<glyph glyph-name="aacute" horiz-adv-x="1185" unicode="á" d="M492 -23q-160 1 -278 89t-118 241v4q0 164 123 253t309 89t346 -45v37q0 141 -81 215q-82 74 -234 74t-321 -78l-48 129q194 88 402 88t321 -112t113 -307v-7v-647h-152v160q-138 -183 -382 -183zM256 313q0 -95 76 -153t207 -58q130 0 234 81q103 81 104 206v103 q-155 45 -307 45h-5q-148 0 -228.5 -59.5t-80.5 -160.5v-4zM528 1219l193 297l164 -76l-234 -221h-123z"/>
<glyph glyph-name="acircumflex" horiz-adv-x="1185" unicode="â" d="M492 -23q-160 1 -278 89t-118 241v4q0 164 123 253t309 89t346 -45v37q0 141 -81 215q-82 74 -234 74t-321 -78l-48 129q194 88 402 88t321 -112t113 -307v-7v-647h-152v160q-138 -183 -382 -183zM256 313q0 -95 76 -153t207 -58q130 0 234 81q103 81 104 206v103 q-155 45 -307 45h-5q-148 0 -228.5 -59.5t-80.5 -160.5v-4zM305 1219l217 268h140l217 -268h-136l-153 137l-154 -137h-131z"/>
<glyph glyph-name="atilde" horiz-adv-x="1185" unicode="ã" d="M492 -23q-160 1 -278 89t-118 241v4q0 164 123 253t309 89t346 -45v37q0 141 -81 215q-82 74 -234 74t-321 -78l-48 129q194 88 402 88t321 -112t113 -307v-7v-647h-152v160q-138 -183 -382 -183zM256 313q0 -95 76 -153t207 -58q130 0 234 81q103 81 104 206v103 q-155 45 -307 45h-5q-148 0 -228.5 -59.5t-80.5 -160.5v-4zM264 1227q58 215 180 215q60 0 162 -41q90 -41 128 -41t60 22t46 78l96 -26q-58 -215 -182 -215q-62 0 -158 41q-96 40 -132 40t-58 -22t-46 -78z"/>
<glyph glyph-name="adieresis" horiz-adv-x="1185" unicode="ä" d="M492 -23q-160 1 -278 89t-118 241v4q0 164 123 253t309 89t346 -45v37q0 141 -81 215q-82 74 -234 74t-321 -78l-48 129q194 88 402 88t321 -112t113 -307v-7v-647h-152v160q-138 -183 -382 -183zM256 313q0 -95 76 -153t207 -58q130 0 234 81q103 81 104 206v103 q-155 45 -307 45h-5q-148 0 -228.5 -59.5t-80.5 -160.5v-4zM680 1219v194h182v-194h-182zM322 1219v194h182v-194h-182z"/>
<glyph glyph-name="aring" horiz-adv-x="1185" unicode="å" d="M492 -23q-160 1 -278 89t-118 241v4q0 164 123 253t309 89t346 -45v37q0 141 -81 215q-82 74 -234 74t-321 -78l-48 129q194 88 402 88t321 -112t113 -307v-7v-647h-152v160q-138 -183 -382 -183zM256 313q0 -95 76 -153t207 -58q130 0 234 81q103 81 104 206v103 q-155 45 -307 45h-5q-148 0 -228.5 -59.5t-80.5 -160.5v-4zM592 1214q-92 0 -158 64t-66 152t66 150t158 62t158 -62t66 -150t-66 -152t-158 -64zM592 1288q57 0 99 42t42 100t-42 99q-42 42 -99 42t-99 -42t-42 -99q0 -58 42 -100t99 -42z"/>
<glyph glyph-name="ae" horiz-adv-x="1951" unicode="æ" d="M496 -23h-4q-162 0 -279 87.5t-117 242.5v4q0 164 122 253t300 89t336 -45v37q0 141 -79 215t-223 74t-314 -78l-48 129q193 88 375 88q309 0 389 -227q64 109 170 172t236 63h3q225 0 357.5 -159.5t132.5 -399.5q0 -14 -4 -51h-837q14 -166 120 -262t250 -96 q190 0 334 149l99 -88q-174 -199 -437 -199q-128 1 -238 57t-182 156q-202 -211 -462 -211zM1361 948q-143 0 -239 -101t-112 -259h682q-12 156 -100 258t-231 102zM514 104q213 0 381 189q-37 92 -43 201q-164 43 -301 43h-4q-134 0 -212.5 -59.5t-78.5 -160.5v-4 q0 -97 74 -153t184 -56z"/>
<glyph glyph-name="ccedilla" horiz-adv-x="1169" unicode="ç" d="M111 524v4q0 227 156 391q157 163 395 163t415 -189l-104 -111q-152 160 -317 160q-164 0 -274 -119t-110 -291v-4q0 -172 111.5 -291.5t280.5 -119.5h3q171 0 318 157l100 -94q-172 -193 -401 -203l-135 -294l-154 69l160 234q-195 32 -319 186t-125 352z"/>
<glyph glyph-name="egrave" horiz-adv-x="1212" unicode="è" d="M639 -25q-223 0 -376 155t-152 396v4q0 232 145 392t367 160t356 -160q133 -160 133 -400q0 -33 -2 -51h-840q16 -168 122 -263t251 -95q190 0 334 149l98 -88q-178 -199 -436 -199zM620 948q-144 0 -238 -102q-96 -102 -112 -258h682q-12 156 -100 258t-232 102z M557 1219l-233 221l163 76l193 -297h-123z"/>
<glyph glyph-name="eacute" horiz-adv-x="1212" unicode="é" d="M553 1219l192 297l164 -76l-233 -221h-123zM639 -25q-223 0 -376 155t-152 396v4q0 232 145 392t367 160t356 -160q133 -160 133 -400q0 -33 -2 -51h-840q16 -168 122 -263t251 -95q190 0 334 149l98 -88q-178 -199 -436 -199zM620 948q-144 0 -238 -102 q-96 -102 -112 -258h682q-12 156 -100 258t-232 102z"/>
<glyph glyph-name="ecircumflex" horiz-adv-x="1212" unicode="ê" d="M330 1219l217 268h139l217 -268h-135l-154 137l-153 -137h-131zM639 -25q-223 0 -376 155t-152 396v4q0 232 145 392t367 160t356 -160q133 -160 133 -400q0 -33 -2 -51h-840q16 -168 122 -263t251 -95q190 0 334 149l98 -88q-178 -199 -436 -199zM620 948 q-144 0 -238 -102q-96 -102 -112 -258h682q-12 156 -100 258t-232 102z"/>
<glyph glyph-name="edieresis" horiz-adv-x="1212" unicode="ë" d="M705 1219v194h182v-194h-182zM346 1219v194h182v-194h-182zM639 -25q-223 0 -376 155t-152 396v4q0 232 145 392t367 160t356 -160q133 -160 133 -400q0 -33 -2 -51h-840q16 -168 122 -263t251 -95q190 0 334 149l98 -88q-178 -199 -436 -199zM620 948q-144 0 -238 -102 q-96 -102 -112 -258h682q-12 156 -100 258t-232 102z"/>
<glyph glyph-name="igrave" horiz-adv-x="538" unicode="ì" d="M190 0v1059h158v-1059h-158zM211 1219l-234 221l164 76l193 -297h-123z"/>
<glyph glyph-name="iacute" horiz-adv-x="538" unicode="í" d="M207 1219l192 297l164 -76l-233 -221h-123zM190 0v1059h158v-1059h-158z"/>
<glyph glyph-name="icircumflex" horiz-adv-x="538" unicode="î" d="M-16 1219l217 268h139l217 -268h-135l-154 137l-153 -137h-131zM190 0v1059h158v-1059h-158z"/>
<glyph glyph-name="idieresis" horiz-adv-x="538" unicode="ï" d="M358 1219v194h183v-194h-183zM0 1219v194h182v-194h-182zM190 0v1059h158v-1059h-158z"/>
<glyph glyph-name="eth" horiz-adv-x="1323" unicode="ð" d="M1210 578q0 -264 -153 -434q-153 -169 -393 -169t-397 163t-156 394v5q0 225 148 372t352 147t366 -147q-86 174 -285 361l-235 -96l-47 96l194 80q-88 76 -182 145h227l99 -84l215 90l47 -98l-176 -74q377 -367 376 -747v-4zM272 524q0 -170 113 -288t280 -119 q167 1 275 117t109 290v4q0 170 -113 283t-285 113t-275 -113t-104 -283v-4z"/>
<glyph glyph-name="ntilde" horiz-adv-x="1261" unicode="ñ" d="M176 0v1059h158v-185q125 207 362 207h3q186 0 294.5 -115.5t108.5 -308.5v-657h-158v618q0 150 -77 235t-215 85t-228 -92t-90 -240v-606h-158zM309 1227q59 215 181 215q60 0 161 -41q90 -41 128 -41t60 22t46 78l96 -26q-59 -215 -183 -215q-62 0 -157 41 q-96 40 -132 40q-35 0 -57 -22t-46 -78z"/>
<glyph glyph-name="ograve" horiz-adv-x="1323" unicode="ò" d="M659 -25q-237 0 -393 161t-155 388v4q0 227 158 391q159 163 395 163t394 -162q156 -158 156 -382v-6v-4q0 -227 -160 -390t-395 -163zM272 528q0 -172 112.5 -291.5t278.5 -119.5h3q168 0 278 119t109 288v4q0 172 -114 293t-281 121q-166 0 -276 -120t-110 -290v-4z M602 1219l-233 221l163 76l193 -297h-123z"/>
<glyph glyph-name="oacute" horiz-adv-x="1323" unicode="ó" d="M598 1219l193 297l163 -76l-233 -221h-123zM659 -25q-237 0 -393 161t-155 388v4q0 227 158 391q159 163 395 163t394 -162q156 -158 156 -382v-6v-4q0 -227 -160 -390t-395 -163zM272 528q0 -172 112.5 -291.5t278.5 -119.5h3q168 0 278 119t109 288v4q0 172 -114 293 t-281 121q-166 0 -276 -120t-110 -290v-4z"/>
<glyph glyph-name="ocircumflex" horiz-adv-x="1323" unicode="ô" d="M375 1219l217 268h139l217 -268h-135l-154 137l-153 -137h-131zM659 -25q-237 0 -393 161t-155 388v4q0 227 158 391q159 163 395 163t394 -162q156 -158 156 -382v-6v-4q0 -227 -160 -390t-395 -163zM272 528q0 -172 112.5 -291.5t278.5 -119.5h3q168 0 278 119t109 288 v4q0 172 -114 293t-281 121q-166 0 -276 -120t-110 -290v-4z"/>
<glyph glyph-name="otilde" horiz-adv-x="1323" unicode="õ" d="M659 -25q-237 0 -393 161t-155 388v4q0 227 158 391q159 163 395 163t394 -162q156 -158 156 -382v-6v-4q0 -227 -160 -390t-395 -163zM272 528q0 -172 112.5 -291.5t278.5 -119.5h3q168 0 278 119t109 288v4q0 172 -114 293t-281 121q-166 0 -276 -120t-110 -290v-4z M332 1227q58 215 180 215q59 0 162 -41q90 -41 128 -41t60 22t45 78l97 -26q-58 -215 -182 -215q-62 0 -158 41q-96 40 -132 40t-58 -22t-46 -78z"/>
<glyph glyph-name="odieresis" horiz-adv-x="1323" unicode="ö" d="M750 1219v194h182v-194h-182zM391 1219v194h182v-194h-182zM659 -25q-237 0 -393 161t-155 388v4q0 227 158 391q159 163 395 163t394 -162q156 -158 156 -382v-6v-4q0 -227 -160 -390t-395 -163zM272 528q0 -172 112.5 -291.5t278.5 -119.5h3q168 0 278 119t109 288v4 q0 172 -114 293t-281 121q-166 0 -276 -120t-110 -290v-4z"/>
<glyph glyph-name="divide" horiz-adv-x="1280" unicode="÷" d="M537 1022v213h206v-213h-206zM1141 649h-1002v144h1002v-144zM537 209v211h206v-211h-206z"/>
<glyph glyph-name="oslash" horiz-adv-x="1323" unicode="ø" d="M1214 532v-4q0 -227 -160 -390t-395 -163q-186 0 -331 109l-90 -94h-158l162 174q-131 150 -131 360v4q0 227 158 391q158 162 392 162h3q184 0 329 -108l92 98h160l-166 -176q135 -154 135 -363zM664 113h3q170 0 279.5 119.5t108.5 291.5v2q0 147 -80 256l-549 -587 q105 -82 238 -82zM659 944q-171 0 -281 -120t-110 -278t80 -272l549 588q-104 82 -238 82z"/>
<glyph glyph-name="ugrave" horiz-adv-x="1261" unicode="ù" d="M565 -23q-188 0 -297 116t-108 308v658h157v-619q0 -150 77 -234t215 -85q138 0 229 92q90 92 90 240v606h155v-1059h-155v184q-130 -207 -363 -207zM561 1219l-233 221l164 76l192 -297h-123z"/>
<glyph glyph-name="uacute" horiz-adv-x="1261" unicode="ú" d="M557 1219l193 297l163 -76l-233 -221h-123zM565 -23q-188 0 -297 116t-108 308v658h157v-619q0 -150 77 -234t215 -85q138 0 229 92q90 92 90 240v606h155v-1059h-155v184q-130 -207 -363 -207z"/>
<glyph glyph-name="ucircumflex" horiz-adv-x="1261" unicode="û" d="M334 1219l217 268h139l217 -268h-135l-154 137l-153 -137h-131zM565 -23q-188 0 -297 116t-108 308v658h157v-619q0 -150 77 -234t215 -85q138 0 229 92q90 92 90 240v606h155v-1059h-155v184q-130 -207 -363 -207z"/>
<glyph glyph-name="udieresis" horiz-adv-x="1261" unicode="ü" d="M709 1219v194h182v-194h-182zM350 1219v194h182v-194h-182zM565 -23q-188 0 -297 116t-108 308v658h157v-619q0 -150 77 -234t215 -85q138 0 229 92q90 92 90 240v606h155v-1059h-155v184q-130 -207 -363 -207z"/>
<glyph glyph-name="yacute" horiz-adv-x="1210" unicode="ý" d="M343 -334q-118 0 -228 53l53 125q76 -39 157 -39t130 44t96 155l-481 1055h174l385 -883l340 883h168l-445 -1094q-68 -163 -150 -231t-199 -68zM547 1219l192 297l164 -76l-233 -221h-123z"/>
<glyph glyph-name="thorn" horiz-adv-x="1359" unicode="þ" d="M176 -328v1823h158v-649q159 235 403 235h2h3q201 0 352.5 -149.5t150.5 -399.5v-4q1 -248 -150.5 -399.5t-352.5 -151.5h-3q-250 0 -405 226v-531h-158zM714 119q157 1 263 111t106 296v4q0 182 -108 296q-109 114 -263 114t-270 -116q-115 -116 -114 -292v-4 q0 -178 114 -294q115 -115 272 -115z"/>
<glyph glyph-name="ydieresis" horiz-adv-x="1210" unicode="ÿ" d="M343 -334q-118 0 -228 53l53 125q76 -39 157 -39t130 44t96 155l-481 1055h174l385 -883l340 883h168l-445 -1094q-68 -163 -150 -231t-199 -68zM698 1219v194h183v-194h-183zM340 1219v194h182v-194h-182z"/>
<glyph glyph-name="Amacron" horiz-adv-x="1617" unicode="Ā" d="M80 0l653 1444h152l653 -1444h-174l-168 379h-780l-170 -379h-166zM479 526h654l-326 729zM473 1624v131h672v-131h-672z"/>
<glyph glyph-name="amacron" horiz-adv-x="1185" unicode="ā" d="M492 -23q-160 1 -278 89t-118 241v4q0 164 123 253t309 89t346 -45v37q0 141 -81 215q-82 74 -234 74t-321 -78l-48 129q194 88 402 88t321 -112t113 -307v-7v-647h-152v160q-138 -183 -382 -183zM256 313q0 -95 76 -153t207 -58q130 0 234 81q103 81 104 206v103 q-155 45 -307 45h-5q-148 0 -228.5 -59.5t-80.5 -160.5v-4zM272 1260v129h639v-129h-639z"/>
<glyph glyph-name="Abreve" horiz-adv-x="1617" unicode="Ă" d="M80 0l653 1444h152l653 -1444h-174l-168 379h-780l-170 -379h-166zM479 526h654l-326 729zM809 1577q-129 0 -212 62t-91 171h123q37 -106 180 -106t180 106h123q-8 -109 -91 -171t-212 -62z"/>
<glyph glyph-name="abreve" horiz-adv-x="1185" unicode="ă" d="M492 -23q-160 1 -278 89t-118 241v4q0 164 123 253t309 89t346 -45v37q0 141 -81 215q-82 74 -234 74t-321 -78l-48 129q194 88 402 88t321 -112t113 -307v-7v-647h-152v160q-138 -183 -382 -183zM256 313q0 -95 76 -153t207 -58q130 0 234 81q103 81 104 206v103 q-155 45 -307 45h-5q-148 0 -228.5 -59.5t-80.5 -160.5v-4zM592 1214q-129 0 -212 68t-91 188h114q41 -129 189 -129t188 129h115q-8 -120 -91 -188t-212 -68z"/>
<glyph glyph-name="Aogonek" horiz-adv-x="1617" unicode="Ą" d="M1554 -246v-90q-8 -2 -24 -2q-125 2 -194 48q-68 46 -68 123t96 167l-168 379h-780l-170 -379h-166l653 1444h152l653 -1444h-37q-98 -84 -98 -151q0 -87 151 -95zM479 526h654l-326 729z"/>
<glyph glyph-name="aogonek" horiz-adv-x="1185" unicode="ą" d="M764 -163q0 81 110 175v148q-139 -182 -382 -183q-160 1 -278 89t-118 241v4q0 164 123 253t309 89t346 -45v37q0 141 -81 215q-82 74 -234 74t-321 -78l-48 129q194 88 402 88t321 -112t113 -307v-7v-647h-29q-98 -84 -98 -150q0 -88 152 -96v-90q-8 -2 -25 -2 q-126 2 -194 48t-68 127zM256 313q0 -95 76 -153t207 -58q130 0 234 81q103 81 104 206v103q-155 45 -307 45h-5q-148 0 -228.5 -59.5t-80.5 -160.5v-4z"/>
<glyph glyph-name="Cacute" horiz-adv-x="1511" unicode="Ć" d="M858 -25q-307 0 -513 213t-206 525v4q0 309 207 525t518 216q182 0 312 -57t247 -170l-110 -119q-207 197 -448 197t-399 -170t-159 -418v-4q0 -250 160 -421t395 -171q140 0 246 51t217 156l107 -105q-122 -125 -255 -188.5t-313 -63.5h-6zM782 1581l205 264l162 -73 l-236 -191h-131z"/>
<glyph glyph-name="cacute" horiz-adv-x="1169" unicode="ć" d="M578 1219l192 297l164 -76l-234 -221h-122zM662 -25q-238 0 -395 162t-156 387v4q0 227 156 391q157 163 395 163t415 -189l-104 -111q-152 160 -317 160q-164 0 -274 -119t-110 -291v-4q0 -172 111.5 -291.5t280.5 -119.5h3q171 0 318 157l100 -94q-185 -205 -423 -205z "/>
<glyph glyph-name="Cdotaccent" horiz-adv-x="1511" unicode="Ċ" d="M750 1581v184h196v-184h-196zM858 -25q-307 0 -513 213t-206 525v4q0 309 207 525t518 216q182 0 312 -57t247 -170l-110 -119q-207 197 -448 197t-399 -170t-159 -418v-4q0 -250 160 -421t395 -171q140 0 246 51t217 156l107 -105q-122 -125 -255 -188.5t-313 -63.5h-6z "/>
<glyph glyph-name="cdotaccent" horiz-adv-x="1169" unicode="ċ" d="M662 -25q-238 0 -395 162t-156 387v4q0 227 156 391q157 163 395 163t415 -189l-104 -111q-152 160 -317 160q-164 0 -274 -119t-110 -291v-4q0 -172 111.5 -291.5t280.5 -119.5h3q171 0 318 157l100 -94q-185 -205 -423 -205zM547 1219v196h192v-196h-192z"/>
<glyph glyph-name="Ccaron" horiz-adv-x="1511" unicode="Č" d="M858 -25q-307 0 -513 213t-206 525v4q0 309 207 525t518 216q182 0 312 -57t247 -170l-110 -119q-207 197 -448 197t-399 -170t-159 -418v-4q0 -250 160 -421t395 -171q140 0 246 51t217 156l107 -105q-122 -125 -255 -188.5t-313 -63.5h-6zM1147 1823l-225 -242h-148 l-225 242h147l154 -123l154 123h143z"/>
<glyph glyph-name="ccaron" horiz-adv-x="1169" unicode="č" d="M930 1487l-217 -268h-140l-217 268h136l153 -137l154 137h131zM662 -25q-238 0 -395 162t-156 387v4q0 227 156 391q157 163 395 163t415 -189l-104 -111q-152 160 -317 160q-164 0 -274 -119t-110 -291v-4q0 -172 111.5 -291.5t280.5 -119.5h3q171 0 318 157l100 -94 q-185 -205 -423 -205z"/>
<glyph glyph-name="Dcaron" horiz-adv-x="1601" unicode="Ď" d="M203 0v1434h497q334 0 548 -204t214 -509v-4q0 -307 -214 -512t-548 -205h-497zM700 1284h-335v-1134h335q266 0 430 160t164 403v4q0 243 -164 405t-430 162zM1067 1802l-225 -241h-148l-225 241h147l154 -123l154 123h143z"/>
<glyph glyph-name="dcaron" horiz-adv-x="1359" unicode="ď" d="M1497 1534v-6l-106 -332h-76l31 338h151zM621 -23q-203 0 -355 150t-151 399v4q0 248 151 400q151 151 352 151h3q250 0 405 -225v639h158v-1495h-158v213q-159 -236 -405 -236zM649 119h3q152 0 266.5 115.5t113.5 293.5v4q0 176 -114 292q-115 116 -272 116t-263 -111 t-107 -297v-4q0 -182 109.5 -295.5t260.5 -113.5h3z"/>
<glyph glyph-name="Dcroat" horiz-adv-x="1662" unicode="Đ" d="M264 0v647h-153v148h153v639h498q334 0 548 -204t214 -509v-4q0 -307 -214 -512t-548 -205h-498zM856 647h-430v-497h336q266 0 430 160t164 403v4q0 243 -164 405t-430 162h-336v-489h430v-148z"/>
<glyph glyph-name="dcroat" horiz-adv-x="1359" unicode="đ" d="M664 1251v115h362v129h158v-129h141v-115h-141v-1251h-158v213q-160 -236 -405 -236q-203 0 -355 150t-151 399v4q0 248 151 400q151 151 352 151h3q250 0 405 -225v395h-362zM649 119h3q152 0 266.5 115.5t113.5 293.5v4q0 176 -114 292q-115 116 -272 116t-263 -111 t-107 -297v-4q0 -182 109.5 -295.5t260.5 -113.5h3z"/>
<glyph glyph-name="Emacron" horiz-adv-x="1372" unicode="Ē" d="M387 1604v131h672v-131h-672zM203 0v1434h1036v-148h-874v-489h782v-148h-782v-502h884v-147h-1046z"/>
<glyph glyph-name="emacron" horiz-adv-x="1212" unicode="ē" d="M639 -25q-223 0 -376 155t-152 396v4q0 232 145 392t367 160t356 -160q133 -160 133 -400q0 -33 -2 -51h-840q16 -168 122 -263t251 -95q190 0 334 149l98 -88q-178 -199 -436 -199zM620 948q-144 0 -238 -102q-96 -102 -112 -258h682q-12 156 -100 258t-232 102z M297 1260v129h639v-129h-639z"/>
<glyph glyph-name="Ebreve" horiz-adv-x="1372" unicode="Ĕ" d="M723 1556q-129 0 -212 62t-91 172h123q37 -106 180 -106t180 106h123q-8 -110 -91 -172t-212 -62zM203 0v1434h1036v-148h-874v-489h782v-148h-782v-502h884v-147h-1046z"/>
<glyph glyph-name="ebreve" horiz-adv-x="1212" unicode="ĕ" d="M639 -25q-223 0 -376 155t-152 396v4q0 232 145 392t367 160t356 -160q133 -160 133 -400q0 -33 -2 -51h-840q16 -168 122 -263t251 -95q190 0 334 149l98 -88q-178 -199 -436 -199zM620 948q-144 0 -238 -102q-96 -102 -112 -258h682q-12 156 -100 258t-232 102z M616 1214q-129 0 -212 68t-91 188h115q41 -129 188 -129t189 129h115q-8 -120 -92 -188t-212 -68z"/>
<glyph glyph-name="Edotaccent" horiz-adv-x="1372" unicode="Ė" d="M625 1561v184h196v-184h-196zM203 0v1434h1036v-148h-874v-489h782v-148h-782v-502h884v-147h-1046z"/>
<glyph glyph-name="edotaccent" horiz-adv-x="1212" unicode="ė" d="M639 -25q-223 0 -376 155t-152 396v4q0 232 145 392t367 160t356 -160q133 -160 133 -400q0 -33 -2 -51h-840q16 -168 122 -263t251 -95q190 0 334 149l98 -88q-178 -199 -436 -199zM620 948q-144 0 -238 -102q-96 -102 -112 -258h682q-12 156 -100 258t-232 102z M520 1219v196h193v-196h-193z"/>
<glyph glyph-name="Eogonek" horiz-adv-x="1372" unicode="Ę" d="M203 0v1434h1036v-148h-874v-489h782v-148h-782v-502h884v-147h-57q-98 -84 -98 -150q0 -88 151 -96v-90q-8 -2 -24 -2q-125 2 -194 48t-69 123t97 167h-852z"/>
<glyph glyph-name="eogonek" horiz-adv-x="1212" unicode="ę" d="M620 948q-144 0 -238 -102q-96 -102 -112 -258h682q-12 156 -100 258t-232 102zM690 -167q0 77 74 155q-55 -12 -125 -13q-223 0 -376 155t-152 396v4q0 232 145 392t367 160t356 -160q133 -160 133 -400q0 -33 -2 -51h-840q16 -168 122 -263t251 -95h3q189 0 331 149 l98 -88q-45 -51 -110 -104q-141 -121 -142 -207q0 -51 36 -77t118 -32v-90q-8 -2 -25 -2q-130 2 -196 48t-66 123z"/>
<glyph glyph-name="Ecaron" horiz-adv-x="1372" unicode="Ě" d="M1022 1802l-225 -241h-148l-225 241h147l154 -123l154 123h143zM203 0v1434h1036v-148h-874v-489h782v-148h-782v-502h884v-147h-1046z"/>
<glyph glyph-name="ecaron" horiz-adv-x="1212" unicode="ě" d="M903 1487l-217 -268h-139l-217 268h135l153 -137l154 137h131zM639 -25q-223 0 -376 155t-152 396v4q0 232 145 392t367 160t356 -160q133 -160 133 -400q0 -33 -2 -51h-840q16 -168 122 -263t251 -95q190 0 334 149l98 -88q-178 -199 -436 -199zM620 948 q-144 0 -238 -102q-96 -102 -112 -258h682q-12 156 -100 258t-232 102z"/>
<glyph glyph-name="Gbreve" horiz-adv-x="1605" unicode="Ğ" d="M844 1577q-129 0 -212 62t-91 171h123q37 -106 180 -106t180 106h123q-8 -109 -91 -171t-212 -62zM868 -25q-330 0 -530 211t-199 527v4q0 303 203 522t516 219q172 0 296 -47t239 -143l-105 -123q-188 164 -428 164t-397 -172q-156 -172 -156 -416v-4q0 -260 155 -428 q154 -168 402 -168t424 143v357h-436v145h592v-571q-246 -220 -576 -220z"/>
<glyph glyph-name="gbreve" horiz-adv-x="1359" unicode="ğ" d="M1184 184q0 -240 -138 -378t-404 -138q-265 0 -478 148l72 123q186 -135 407 -136h4q174 0 277.5 97.5t103.5 279.5v125q-168 -223 -416 -223q-201 0 -349 138t-148 358v4q0 223 149 361q150 138 348 138q254 0 414 -213v191h158v-875zM276 582q0 -156 108 -258t261 -103 h3q153 0 268.5 101.5t115.5 257.5v4q0 158 -116 258t-272 100t-261 -98q-106 -98 -107 -258v-4zM686 1214q-129 0 -212 68t-91 188h115q41 -129 188 -129t188 129h115q-8 -120 -91 -188t-212 -68z"/>
<glyph glyph-name="Gdotaccent" horiz-adv-x="1605" unicode="Ġ" d="M745 1581v184h197v-184h-197zM868 -25q-330 0 -530 211t-199 527v4q0 303 203 522t516 219q172 0 296 -47t239 -143l-105 -123q-188 164 -428 164t-397 -172q-156 -172 -156 -416v-4q0 -260 155 -428q154 -168 402 -168t424 143v357h-436v145h592v-571 q-246 -220 -576 -220z"/>
<glyph glyph-name="gdotaccent" horiz-adv-x="1359" unicode="ġ" d="M1184 184q0 -240 -138 -378t-404 -138q-265 0 -478 148l72 123q186 -135 407 -136h4q174 0 277.5 97.5t103.5 279.5v125q-168 -223 -416 -223q-201 0 -349 138t-148 358v4q0 223 149 361q150 138 348 138q254 0 414 -213v191h158v-875zM276 582q0 -156 108 -258t261 -103 h3q153 0 268.5 101.5t115.5 257.5v4q0 158 -116 258t-272 100t-261 -98q-106 -98 -107 -258v-4zM590 1219v196h192v-196h-192z"/>
<glyph glyph-name="Gcommaaccent" horiz-adv-x="1605" unicode="Ģ" d="M750 -315v170h184v-146q0 -186 -213 -209l-14 62q69 12 97 40t28 69q0 7 -1 14h-81zM868 -25q-330 0 -530 211t-199 527v4q0 303 203 522t516 219q172 0 296 -47t239 -143l-105 -123q-188 164 -428 164t-397 -172q-156 -172 -156 -416v-4q0 -260 155 -428 q154 -168 402 -168t424 143v357h-436v145h592v-571q-246 -220 -576 -220z"/>
<glyph glyph-name="gcommaaccent" horiz-adv-x="1359" unicode="ģ" d="M776 1389v-170h-184v145q0 186 213 209l14 -62q-69 -12 -97 -40t-28 -71v-11h82zM1184 184q0 -240 -138 -378t-404 -138q-265 0 -478 148l72 123q186 -135 407 -136h4q174 0 277.5 97.5t103.5 279.5v125q-168 -223 -416 -223q-201 0 -349 138t-148 358v4q0 223 149 361 q150 138 348 138q254 0 414 -213v191h158v-875zM276 582q0 -156 108 -258t261 -103h3q153 0 268.5 101.5t115.5 257.5v4q0 158 -116 258t-272 100t-261 -98q-106 -98 -107 -258v-4z"/>
<glyph glyph-name="Hbar" horiz-adv-x="1646" unicode="Ħ" d="M96 1044v125h152v265h162v-265h827v265h162v-265h151v-125h-151v-1044h-162v639h-827v-639h-162v1044h-152zM410 788h827v256h-827v-256z"/>
<glyph glyph-name="hbar" horiz-adv-x="1261" unicode="ħ" d="M696 1251h-362v-377q125 207 362 207h3q186 0 294.5 -115.5t108.5 -308.5v-657h-158v618q0 150 -77 235t-215 85t-228 -92t-90 -240v-606h-158v1251h-141v115h141v129h158v-129h362v-115z"/>
<glyph glyph-name="Imacron" horiz-adv-x="595" unicode="Ī" d="M217 0v1434h162v-1434h-162zM-37 1604v131h672v-131h-672z"/>
<glyph glyph-name="imacron" horiz-adv-x="538" unicode="ī" d="M190 0v1059h158v-1059h-158zM-49 1260v129h639v-129h-639z"/>
<glyph glyph-name="Ibreve" horiz-adv-x="595" unicode="Ĭ" d="M217 0v1434h162v-1434h-162zM299 1556q-129 0 -212 62t-91 172h123q37 -106 180 -106t180 106h123q-8 -110 -91 -172t-212 -62z"/>
<glyph glyph-name="ibreve" horiz-adv-x="538" unicode="ĭ" d="M190 0v1059h158v-1059h-158zM270 1214q-129 0 -212 68t-91 188h115q41 -129 188 -129t189 129h114q-8 -120 -91 -188t-212 -68z"/>
<glyph glyph-name="Iogonek" horiz-adv-x="595" unicode="Į" d="M217 0v1434h162v-1434h-21q-98 -84 -98 -150q0 -88 152 -96v-90q-8 -2 -25 -2q-125 2 -193 48t-69 123q0 77 96 167h-4z"/>
<glyph glyph-name="iogonek" horiz-adv-x="538" unicode="į" d="M190 0v1059h158v-1059h-18q-98 -84 -99 -150q0 -88 152 -96v-90q-8 -2 -25 -2q-126 2 -194 48t-68 123t97 167h-3zM180 1290v174h180v-174h-180z"/>
<glyph glyph-name="Idotaccent" horiz-adv-x="595" unicode="İ" d="M217 0v1434h162v-1434h-162zM201 1561v184h196v-184h-196z"/>
<glyph glyph-name="dotlessi" horiz-adv-x="538" unicode="ı" d="M190 0v1059h158v-1059h-158z"/>
<glyph glyph-name="Kcommaaccent" horiz-adv-x="1472" unicode="Ķ" d="M649 -303v170h185v-146q0 -185 -213 -208l-15 61q70 12 98 40t28 69q0 7 -1 14h-82zM203 0v1434h162v-856l823 856h209l-615 -627l641 -807h-202l-551 694l-305 -309v-385h-162z"/>
<glyph glyph-name="kcommaaccent" horiz-adv-x="1165" unicode="ķ" d="M518 -313v170h184v-146q0 -186 -213 -209l-14 62q69 12 97 40t28 71v12h-82zM176 0v1495h158v-1032l571 596h197l-445 -455l459 -604h-188l-379 494l-215 -218v-276h-158z"/>
<glyph glyph-name="Lacute" horiz-adv-x="1267" unicode="Ĺ" d="M242 1561l204 264l162 -74l-235 -190h-131zM203 0v1434h162v-1284h806v-150h-968z"/>
<glyph glyph-name="lacute" horiz-adv-x="538" unicode="ĺ" d="M207 1602l205 264l161 -74l-235 -190h-131zM190 0v1495h158v-1495h-158z"/>
<glyph glyph-name="Lcommaaccent" horiz-adv-x="1267" unicode="Ļ" d="M586 -313v170h184v-146q0 -186 -213 -209l-14 62q69 12 97 40t28 71v12h-82zM203 0v1434h162v-1284h806v-150h-968z"/>
<glyph glyph-name="lcommaaccent" horiz-adv-x="538" unicode="ļ" d="M176 -313v170h184v-146q0 -186 -213 -209l-14 62q69 12 97 40t28 71v12h-82zM190 0v1495h158v-1495h-158z"/>
<glyph glyph-name="Lcaron" horiz-adv-x="1267" unicode="Ľ" d="M735 1436v-6l-106 -332h-76l31 338h151zM203 0v1434h162v-1284h806v-150h-968z"/>
<glyph glyph-name="lcaron" horiz-adv-x="538" unicode="ľ" d="M662 1534v-6l-107 -332h-76l31 338h152zM190 0v1495h158v-1495h-158z"/>
<glyph glyph-name="Ldot" horiz-adv-x="1267" unicode="Ŀ" d="M856 655v197h188v-197h-188zM203 0v1434h162v-1284h806v-150h-968z"/>
<glyph glyph-name="ldot" horiz-adv-x="677" unicode="ŀ" d="M524 662v188h174v-188h-174zM190 0v1495h158v-1495h-158z"/>
<glyph glyph-name="Lslash" horiz-adv-x="1329" unicode="Ł" d="M424 150h809v-150h-969v575l-153 -69v158l153 71v699h160v-625l364 170v-158l-364 -172v-499z"/>
<glyph glyph-name="lslash" horiz-adv-x="661" unicode="ł" d="M410 0h-156v635l-156 -84v160l156 82v702h156v-618l155 84v-158l-155 -84v-719z"/>
<glyph glyph-name="Nacute" horiz-adv-x="1617" unicode="Ń" d="M743 1554l205 265l162 -74l-236 -191h-131zM203 0v1434h151l903 -1149v1149h158v-1434h-129l-926 1176v-1176h-157z"/>
<glyph glyph-name="nacute" horiz-adv-x="1261" unicode="ń" d="M573 1219l193 297l164 -76l-234 -221h-123zM176 0v1059h158v-185q125 207 362 207h3q186 0 294.5 -115.5t108.5 -308.5v-657h-158v618q0 150 -77 235t-215 85t-228 -92t-90 -240v-606h-158z"/>
<glyph glyph-name="Ncommaaccent" horiz-adv-x="1617" unicode="Ņ" d="M715 -303v170h184v-146q0 -185 -213 -208l-14 61q70 12 98 40t28 69q0 7 -1 14h-82zM203 0v1434h151l903 -1149v1149h158v-1434h-129l-926 1176v-1176h-157z"/>
<glyph glyph-name="ncommaaccent" horiz-adv-x="1261" unicode="ņ" d="M543 -313v170h184v-146q0 -186 -213 -209l-14 62q70 12 98 40t28 69q0 7 -1 14h-82zM176 0v1059h158v-185q125 207 362 207h3q186 0 294.5 -115.5t108.5 -308.5v-657h-158v618q0 150 -77 235t-215 85t-228 -92t-90 -240v-606h-158z"/>
<glyph glyph-name="Ncaron" horiz-adv-x="1617" unicode="Ň" d="M1108 1796l-225 -242h-148l-225 242h147l154 -123l154 123h143zM203 0v1434h151l903 -1149v1149h158v-1434h-129l-926 1176v-1176h-157z"/>
<glyph glyph-name="ncaron" horiz-adv-x="1261" unicode="ň" d="M924 1487l-217 -268h-140l-217 268h135l154 -137l154 137h131zM176 0v1059h158v-185q125 207 362 207h3q186 0 294.5 -115.5t108.5 -308.5v-657h-158v618q0 150 -77 235t-215 85t-228 -92t-90 -240v-606h-158z"/>
<glyph glyph-name="Omacron" horiz-adv-x="1740" unicode="Ō" d="M535 1624v131h671v-131h-671zM868 -25q-319 0 -524 216t-205 522v4q0 305 207 523t526 218q318 0 524 -216t206 -521v-4q0 -305 -208 -523t-526 -219zM872 125q244 0 403 170t159 418v4q0 248 -161 420t-405 172t-402 -170t-159 -418v-4q1 -248 161 -420t404 -172z"/>
<glyph glyph-name="omacron" horiz-adv-x="1323" unicode="ō" d="M342 1260v129h639v-129h-639zM659 -25q-237 0 -393 161t-155 388v4q0 227 158 391q159 163 395 163t394 -162q156 -158 156 -382v-6v-4q0 -227 -160 -390t-395 -163zM272 528q0 -172 112.5 -291.5t278.5 -119.5h3q168 0 278 119t109 288v4q0 172 -114 293t-281 121 q-166 0 -276 -120t-110 -290v-4z"/>
<glyph glyph-name="Obreve" horiz-adv-x="1740" unicode="Ŏ" d="M870 1577q-129 0 -212 62t-91 171h123q37 -106 180 -106t181 106h123q-8 -109 -92 -171t-212 -62zM868 -25q-319 0 -524 216t-205 522v4q0 305 207 523t526 218q318 0 524 -216t206 -521v-4q0 -305 -208 -523t-526 -219zM872 125q244 0 403 170t159 418v4q0 248 -161 420 t-405 172t-402 -170t-159 -418v-4q1 -248 161 -420t404 -172z"/>
<glyph glyph-name="obreve" horiz-adv-x="1323" unicode="ŏ" d="M659 -25q-237 0 -393 161t-155 388v4q0 227 158 391q159 163 395 163t394 -162q156 -158 156 -382v-6v-4q0 -227 -160 -390t-395 -163zM272 528q0 -172 112.5 -291.5t278.5 -119.5h3q168 0 278 119t109 288v4q0 172 -114 293t-281 121q-166 0 -276 -120t-110 -290v-4z M662 1214q-129 0 -212 68t-92 188h115q41 -129 189 -129t188 129h115q-8 -120 -91 -188t-212 -68z"/>
<glyph glyph-name="Ohungarumlaut" horiz-adv-x="1740" unicode="Ő" d="M868 -25q-319 0 -524 216t-205 522v4q0 305 207 523t526 218q318 0 524 -216t206 -521v-4q0 -305 -208 -523t-526 -219zM872 125q244 0 403 170t159 418v4q0 248 -161 420t-405 172t-402 -170t-159 -418v-4q1 -248 161 -420t404 -172zM629 1581l205 264l157 -73 l-235 -191h-127zM942 1581l207 264l158 -73l-236 -191h-129z"/>
<glyph glyph-name="ohungarumlaut" horiz-adv-x="1323" unicode="ő" d="M733 1219l195 297l153 -76l-225 -221h-123zM428 1219l193 297l153 -76l-223 -221h-123zM659 -25q-237 0 -393 161t-155 388v4q0 227 158 391q159 163 395 163t394 -162q156 -158 156 -382v-6v-4q0 -227 -160 -390t-395 -163zM272 528q0 -172 112.5 -291.5t278.5 -119.5h3 q168 0 278 119t109 288v4q0 172 -114 293t-281 121q-166 0 -276 -120t-110 -290v-4z"/>
<glyph glyph-name="OE" horiz-adv-x="2316" unicode="Œ" d="M901 0q-334 0 -548 204t-214 509v4q0 307 214 512t548 205h1282v-148h-837v-489h745v-148h-745v-502h847v-147h-1292zM901 150h283v1134h-283q-266 0 -430 -160t-164 -403v-4q0 -243 164 -405t430 -162z"/>
<glyph glyph-name="oe" horiz-adv-x="2148" unicode="œ" d="M653 -25q-229 0 -386 162t-156 387v4q0 227 158 391q158 162 387 162h3q152 -1 275 -77t188 -203q61 129 175.5 204.5t254.5 75.5h4q227 0 360 -159q132 -160 132 -400q0 -33 -2 -51h-838q14 -166 120 -262t251 -96q190 0 334 149l98 -88q-174 -199 -434 -199 q-147 0 -269 76t-188 209q-66 -129 -190 -207t-277 -78zM1558 948q-144 0 -240 -101t-112 -259h682q-12 156 -99 258t-231 102zM272 528q0 -172 112.5 -291.5t276.5 -119.5h3q166 0 274 119t109 288v4q0 172 -113 293t-279 121q-167 0 -275 -120t-108 -290v-4z"/>
<glyph glyph-name="Racute" horiz-adv-x="1480" unicode="Ŕ" d="M203 0v1434h616q264 0 408 -144q111 -111 110 -282v-4q0 -172 -106 -278t-283 -140l441 -586h-199l-416 557h-409v-557h-162zM365 702h440q164 0 266 80t103 215v4q0 133 -98 208t-269 75h-442v-582zM653 1561l205 264l162 -74l-236 -190h-131z"/>
<glyph glyph-name="racute" horiz-adv-x="829" unicode="ŕ" d="M377 1219l192 297l164 -76l-233 -221h-123zM176 0v1059h158v-277q61 137 170 216t242 79h20v-170h-12q-182 0 -301 -127t-119 -358v-422h-158z"/>
<glyph glyph-name="Rcommaaccent" horiz-adv-x="1480" unicode="Ŗ" d="M203 0v1434h616q264 0 408 -144q111 -111 110 -282v-4q0 -172 -106 -278t-283 -140l441 -586h-199l-416 557h-409v-557h-162zM365 702h440q164 0 266 80t103 215v4q0 133 -98 208t-269 75h-442v-582zM625 -303v170h184v-146q0 -185 -213 -208l-14 61q70 12 98 40t28 69 q0 7 -1 14h-82z"/>
<glyph glyph-name="rcommaaccent" horiz-adv-x="829" unicode="ŗ" d="M178 -313v170h184v-146q1 -186 -212 -209l-15 62q69 12 97 40t28 71v12h-82zM176 0v1059h158v-277q61 137 170 216t242 79h20v-170h-12q-182 0 -301 -127t-119 -358v-422h-158z"/>
<glyph glyph-name="Rcaron" horiz-adv-x="1480" unicode="Ř" d="M203 0v1434h616q264 0 408 -144q111 -111 110 -282v-4q0 -172 -106 -278t-283 -140l441 -586h-199l-416 557h-409v-557h-162zM365 702h440q164 0 266 80t103 215v4q0 133 -98 208t-269 75h-442v-582zM1018 1802l-225 -241h-148l-225 241h147l154 -123l153 123h144z"/>
<glyph glyph-name="rcaron" horiz-adv-x="829" unicode="ř" d="M729 1487l-217 -268h-139l-217 268h135l153 -137l154 137h131zM176 0v1059h158v-277q61 137 170 216t242 79h20v-170h-12q-182 0 -301 -127t-119 -358v-422h-158z"/>
<glyph glyph-name="Sacute" horiz-adv-x="1310" unicode="Ś" d="M694 -20q-330 0 -585 229l100 119q115 -104 230 -153.5t254 -49.5h6q144 0 233 69q88 69 88 175v4q0 103 -78 165t-314 112t-348 144q-114 94 -114 265v4q0 171 133 281t338 110q285 0 504 -176l-94 -125q-190 156 -414 156q-137 0 -221 -67t-84 -165v-4q0 -105 81 -167 t317 -113t346 -147q112 -96 112 -257v-4q0 -182 -137 -294q-138 -111 -353 -111zM604 1581l205 264l162 -73l-236 -191h-131z"/>
<glyph glyph-name="sacute" horiz-adv-x="1019" unicode="ś" d="M453 1219l192 297l164 -76l-234 -221h-122zM526 -20q-114 0 -232 42t-206 113l80 113q180 -135 367 -135q96 0 157 46t62 122v4q0 73 -67 111t-173 68t-152 48q-47 18 -106 52q-117 67 -117 206v4q-1 135 101 219t260 84q205 0 381 -116l-72 -119q-158 102 -313 102 q-92 0 -148 -43t-57 -110v-5q0 -97 189 -154t256 -92q67 -34 97 -64q70 -69 70 -175v-4q-1 -147 -107 -232t-270 -85z"/>
<glyph glyph-name="Scedilla" horiz-adv-x="1310" unicode="Ş" d="M699 125q144 0 233 69q88 69 88 175v4q0 103 -78 165t-314 112t-348 144q-114 94 -114 265v4q0 171 133 281t338 110q285 0 504 -176l-94 -125q-190 156 -414 156q-137 0 -221 -67t-84 -165v-4q0 -105 81 -167t317 -113t346 -147q112 -96 112 -257v-4q0 -172 -122 -281 t-321 -122l-137 -299l-153 69l157 232q-276 25 -499 225l100 119q115 -104 230 -153.5t254 -49.5h6z"/>
<glyph glyph-name="scedilla" horiz-adv-x="1019" unicode="ş" d="M535 113q96 0 157 46t62 122v4q0 73 -67 111t-173 68t-152 48q-47 18 -106 52q-117 67 -117 206v4q-1 135 101 219t260 84q205 0 381 -116l-72 -119q-158 102 -313 102q-92 0 -148 -43t-57 -110v-5q0 -97 189 -154t256 -92q67 -34 97 -64q70 -69 70 -175v-4 q0 -137 -94 -221t-242 -94l-137 -299l-154 69l160 234q-195 25 -348 149l80 113q180 -135 367 -135z"/>
<glyph glyph-name="Scaron" horiz-adv-x="1310" unicode="Š" d="M694 -20q-330 0 -585 229l100 119q115 -104 230 -153.5t254 -49.5h6q144 0 233 69q88 69 88 175v4q0 103 -78 165t-314 112t-348 144q-114 94 -114 265v4q0 171 133 281t338 110q285 0 504 -176l-94 -125q-190 156 -414 156q-137 0 -221 -67t-84 -165v-4q0 -105 81 -167 t317 -113t346 -147q112 -96 112 -257v-4q0 -182 -137 -294q-138 -111 -353 -111zM967 1823l-226 -242h-147l-225 242h147l154 -123l153 123h144z"/>
<glyph glyph-name="scaron" horiz-adv-x="1019" unicode="š" d="M803 1487l-217 -268h-140l-217 268h136l153 -137l154 137h131zM526 -20q-114 0 -232 42t-206 113l80 113q180 -135 367 -135q96 0 157 46t62 122v4q0 73 -67 111t-173 68t-152 48q-47 18 -106 52q-117 67 -117 206v4q-1 135 101 219t260 84q205 0 381 -116l-72 -119 q-158 102 -313 102q-92 0 -148 -43t-57 -110v-5q0 -97 189 -154t256 -92q67 -34 97 -64q70 -69 70 -175v-4q-1 -147 -107 -232t-270 -85z"/>
<glyph glyph-name="Tcommaaccent" horiz-adv-x="1327" unicode="Ţ" d="M569 -313v170h185v-146q0 -186 -213 -209l-15 62q70 12 98 40t28 69q0 7 -1 14h-82zM582 0v1284h-482v150h1127v-150h-482v-1284h-163z"/>
<glyph glyph-name="tcommaaccent" horiz-adv-x="827" unicode="ţ" d="M369 -313v170h184v-146q0 -186 -213 -209l-14 62q70 12 98 40t28 69q0 7 -1 14h-82zM514 -18q-120 0 -202 72q-81 72 -81 227v639h-147v139h147v319h158v-319h336v-139h-336v-619q0 -176 178 -176q78 0 154 37v-135q-87 -45 -207 -45z"/>
<glyph glyph-name="Tcaron" horiz-adv-x="1327" unicode="Ť" d="M963 1802l-226 -241h-147l-225 241h147l154 -123l153 123h144zM582 0v1284h-482v150h1127v-150h-482v-1284h-163z"/>
<glyph glyph-name="tcaron" horiz-adv-x="827" unicode="ť" d="M743 1534v-6l-106 -332h-76l31 338h151zM514 -18q-120 0 -202 72q-81 72 -81 227v639h-147v139h147v319h158v-319h336v-139h-336v-619q0 -176 178 -176q78 0 154 37v-135q-87 -45 -207 -45z"/>
<glyph glyph-name="Umacron" horiz-adv-x="1554" unicode="Ū" d="M440 1597v132h672v-132h-672zM777 -23q-273 0 -435 163t-162 460v834h162v-824q0 -229 117 -356t321 -127t318 121q115 121 114 352v834h162v-822q0 -307 -162 -471t-435 -164z"/>
<glyph glyph-name="umacron" horiz-adv-x="1261" unicode="ū" d="M565 -23q-188 0 -297 116t-108 308v658h157v-619q0 -150 77 -234t215 -85q138 0 229 92q90 92 90 240v606h155v-1059h-155v184q-130 -207 -363 -207zM301 1260v129h639v-129h-639z"/>
<glyph glyph-name="Ubreve" horiz-adv-x="1554" unicode="Ŭ" d="M776 1544q-129 0 -212 62t-91 172h123q37 -106 180 -106t180 106h123q-8 -110 -91 -172t-212 -62zM777 -23q-273 0 -435 163t-162 460v834h162v-824q0 -229 117 -356t321 -127t318 121q115 121 114 352v834h162v-822q0 -307 -162 -471t-435 -164z"/>
<glyph glyph-name="ubreve" horiz-adv-x="1261" unicode="ŭ" d="M565 -23q-188 0 -297 116t-108 308v658h157v-619q0 -150 77 -234t215 -85q138 0 229 92q90 92 90 240v606h155v-1059h-155v184q-130 -207 -363 -207zM621 1214q-129 0 -212 68t-92 188h115q40 -129 188 -129t189 129h115q-8 -120 -91 -188t-212 -68z"/>
<glyph glyph-name="Uring" horiz-adv-x="1554" unicode="Ů" d="M777 -23q-273 0 -435 163t-162 460v834h162v-824q0 -229 117 -356t321 -127t318 121q115 121 114 352v834h162v-822q0 -307 -162 -471t-435 -164zM776 1522q-94 0 -160.5 57.5t-66.5 141.5q0 89 66 148q67 58 161 58t161 -58q67 -59 67 -145t-67 -144t-161 -58zM776 1599 q57 0 97 36t40 89q0 54 -39 90t-98 36t-98 -36t-39 -90t40 -89q40 -36 97 -36z"/>
<glyph glyph-name="uring" horiz-adv-x="1261" unicode="ů" d="M621 1192q-92 0 -158 63t-66 151t66 152q66 62 158 62q91 0 157 -62t66 -150t-66 -152t-157 -64zM621 1266q57 0 99 42t42 99t-42 99t-99 42t-99 -42t-43 -99q1 -57 43 -99t99 -42zM565 -23q-188 0 -297 116t-108 308v658h157v-619q0 -150 77 -234t215 -85q138 0 229 92 q90 92 90 240v606h155v-1059h-155v184q-130 -207 -363 -207z"/>
<glyph glyph-name="Uhungarumlaut" horiz-adv-x="1554" unicode="Ű" d="M777 -23q-273 0 -435 163t-162 460v834h162v-824q0 -229 117 -356t321 -127t318 121q115 121 114 352v834h162v-822q0 -307 -162 -471t-435 -164zM537 1554l204 265l158 -74l-235 -191h-127zM850 1554l207 265l157 -74l-235 -191h-129z"/>
<glyph glyph-name="uhungarumlaut" horiz-adv-x="1261" unicode="ű" d="M565 -23q-188 0 -297 116t-108 308v658h157v-619q0 -150 77 -234t215 -85q138 0 229 92q90 92 90 240v606h155v-1059h-155v184q-130 -207 -363 -207zM692 1219l195 297l153 -76l-225 -221h-123zM387 1219l193 297l153 -76l-223 -221h-123z"/>
<glyph glyph-name="Uogonek" horiz-adv-x="1554" unicode="Ų" d="M180 600v834h162v-824q0 -229 117 -356t321 -127t318 121q115 121 114 352v834h162v-822q0 -292 -145 -454t-395 -178q-76 -68 -76 -131q0 -87 151 -95v-90q-8 -2 -24 -2q-125 2 -194 48t-69 121t76 151q-240 22 -379 182t-139 436z"/>
<glyph glyph-name="uogonek" horiz-adv-x="1261" unicode="ų" d="M565 -23q-188 0 -297 116t-108 308v658h157v-619q0 -150 77 -234t215 -85q138 0 229 92q90 92 90 240v606h155v-1059h-24q-98 -84 -98 -150q0 -88 151 -96v-90q-8 -2 -25 -2q-125 2 -193 48t-69 125q0 79 103 171v178q-130 -207 -363 -207z"/>
<glyph glyph-name="Wcircumflex" horiz-adv-x="2267" unicode="Ŵ" d="M604 -10l-512 1444h176l410 -1194l393 1198h133l393 -1198l410 1194h170l-512 -1444h-137l-393 1163l-396 -1163h-135zM834 1561l225 241h147l226 -241h-148l-154 122l-153 -122h-143z"/>
<glyph glyph-name="wcircumflex" horiz-adv-x="1763" unicode="ŵ" d="M594 1219l217 268h139l217 -268h-135l-153 137l-154 -137h-131zM457 -8l-371 1067h168l278 -850l285 854h131l287 -854l278 850h164l-372 -1067h-138l-284 835l-287 -835h-139z"/>
<glyph glyph-name="Ycircumflex" horiz-adv-x="1466" unicode="Ŷ" d="M651 0v567l-596 867h197l483 -717l488 717h188l-596 -865v-569h-164zM434 1554l225 242h148l225 -242h-147l-154 123l-153 -123h-144z"/>
<glyph glyph-name="ycircumflex" horiz-adv-x="1210" unicode="ŷ" d="M343 -334q-118 0 -228 53l53 125q76 -39 157 -39t130 44t96 155l-481 1055h174l385 -883l340 883h168l-445 -1094q-68 -163 -150 -231t-199 -68zM324 1219l217 268h139l217 -268h-135l-154 137l-153 -137h-131z"/>
<glyph glyph-name="Ydieresis" horiz-adv-x="1466" unicode="Ÿ" d="M651 0v567l-596 867h197l483 -717l488 717h188l-596 -865v-569h-164zM829 1554v185h191v-185h-191zM446 1554v185h191v-185h-191z"/>
<glyph glyph-name="Zacute" horiz-adv-x="1419" unicode="Ź" d="M137 0v109l928 1179h-897v146h1118v-109l-930 -1180h930v-145h-1149zM662 1561l204 264l162 -74l-235 -190h-131z"/>
<glyph glyph-name="zacute" horiz-adv-x="1138" unicode="ź" d="M514 1219l193 297l163 -76l-233 -221h-123zM115 0v100l702 826h-678v133h893v-101l-704 -825h704v-133h-917z"/>
<glyph glyph-name="Zdotaccent" horiz-adv-x="1419" unicode="Ż" d="M627 1561v184h196v-184h-196zM137 0v109l928 1179h-897v146h1118v-109l-930 -1180h930v-145h-1149z"/>
<glyph glyph-name="zdotaccent" horiz-adv-x="1138" unicode="ż" d="M115 0v100l702 826h-678v133h893v-101l-704 -825h704v-133h-917zM481 1219v196h193v-196h-193z"/>
<glyph glyph-name="Zcaron" horiz-adv-x="1419" unicode="Ž" d="M1024 1802l-225 -241h-148l-225 241h147l154 -123l154 123h143zM137 0v109l928 1179h-897v146h1118v-109l-930 -1180h930v-145h-1149z"/>
<glyph glyph-name="zcaron" horiz-adv-x="1138" unicode="ž" d="M864 1487l-217 -268h-139l-217 268h135l154 -137l153 137h131zM115 0v100l702 826h-678v133h893v-101l-704 -825h704v-133h-917z"/>
<glyph glyph-name="florin" horiz-adv-x="1052" unicode="ƒ" d="M190 -10q-49 0 -106 8v135q39 -8 90 -8q133 0 160 156l90 483h-201v137h223l48 244q56 299 298 299q118 0 187 -23v-135q-81 20 -151 20t-113 -42q-43 -43 -62 -142l-41 -221h295v-137h-319l-92 -500q-29 -142 -102 -208t-204 -66z"/>
<glyph glyph-name="Aringacute" horiz-adv-x="1617" unicode="Ǻ" d="M80 0l614 1360q-112 56 -112 174q0 88 66 146q67 58 161 58t161 -58t66 -144q0 -117 -112 -176l614 -1360h-174l-168 379h-780l-170 -379h-166zM479 526h654l-326 729zM809 1411q59 0 98 36t39 89t-39 89t-98 36t-98 -36t-39 -89t39 -89t98 -36zM735 1800l209 236 l158 -72l-236 -164h-131z"/>
<glyph glyph-name="aringacute" horiz-adv-x="1185" unicode="ǻ" d="M526 1702l201 258l158 -76l-230 -182h-129zM492 -23q-160 1 -278 89t-118 241v4q0 164 123 253t309 89t346 -45v37q0 141 -81 215q-82 74 -234 74t-321 -78l-48 129q194 88 402 88t321 -112t113 -307v-7v-647h-152v160q-138 -183 -382 -183zM256 313q0 -95 76 -153 t207 -58q130 0 234 81q103 81 104 206v103q-155 45 -307 45h-5q-148 0 -228.5 -59.5t-80.5 -160.5v-4zM592 1214q-92 0 -158 64t-66 152t66 150t158 62t158 -62t66 -150t-66 -152t-158 -64zM592 1288q57 0 99 42t42 100t-42 99q-42 42 -99 42t-99 -42t-42 -99q0 -58 42 -100 t99 -42z"/>
<glyph glyph-name="AEacute" horiz-adv-x="2140" unicode="Ǽ" d="M1223 1561l204 264l162 -74l-235 -190h-131zM2007 1434v-148h-838v-489h746v-148h-746v-502h848v-147h-1011v379h-578l-223 -379h-170l842 1434h1130zM1006 526v764h-50l-446 -764h496z"/>
<glyph glyph-name="aeacute" horiz-adv-x="1951" unicode="ǽ" d="M909 1219l193 297l164 -76l-234 -221h-123zM496 -23h-4q-162 0 -279 87.5t-117 242.5v4q0 164 122 253t300 89t336 -45v37q0 141 -79 215t-223 74t-314 -78l-48 129q193 88 375 88q309 0 389 -227q64 109 170 172t236 63h3q225 0 357.5 -159.5t132.5 -399.5q0 -14 -4 -51 h-837q14 -166 120 -262t250 -96q190 0 334 149l99 -88q-174 -199 -437 -199q-128 1 -238 57t-182 156q-202 -211 -462 -211zM1361 948q-143 0 -239 -101t-112 -259h682q-12 156 -100 258t-231 102zM514 104q213 0 381 189q-37 92 -43 201q-164 43 -301 43h-4 q-134 0 -212.5 -59.5t-78.5 -160.5v-4q0 -97 74 -153t184 -56z"/>
<glyph glyph-name="Oslashacute" horiz-adv-x="1740" unicode="Ǿ" d="M1602 717q0 -305 -207 -523t-527 -219q-258 0 -450 150l-125 -135h-170l201 221q-184 211 -185 502v4q0 305 207 523t526 218q256 0 449 -149l127 135h170l-203 -223q186 -209 187 -500v-4zM305 719q0 -225 129 -389l785 860q-154 123 -351 123q-244 0 -404 -171 t-159 -421v-2zM872 121q244 0 404 171t160 421v2q0 219 -131 387l-785 -858q149 -123 352 -123zM805 1581l205 264l161 -73l-235 -191h-131z"/>
<glyph glyph-name="oslashacute" horiz-adv-x="1323" unicode="ǿ" d="M1214 532v-4q0 -227 -160 -390t-395 -163q-186 0 -331 109l-90 -94h-158l162 174q-131 150 -131 360v4q0 227 158 391q158 162 392 162h3q184 0 329 -108l92 98h160l-166 -176q135 -154 135 -363zM664 113h3q170 0 279.5 119.5t108.5 291.5v2q0 147 -80 256l-549 -587 q105 -82 238 -82zM659 944q-171 0 -281 -120t-110 -278t80 -272l549 588q-104 82 -238 82zM598 1219l193 297l163 -76l-233 -221h-123z"/>
<glyph glyph-name="Scommaaccent" horiz-adv-x="1310" unicode="Ș" d="M575 -315v170h185v-146q0 -186 -213 -209l-15 62q70 12 98 40t28 69q0 7 -1 14h-82zM694 -20q-330 0 -585 229l100 119q115 -104 230 -153.5t254 -49.5h6q144 0 233 69q88 69 88 175v4q0 103 -78 165t-314 112t-348 144q-114 94 -114 265v4q0 171 133 281t338 110 q285 0 504 -176l-94 -125q-190 156 -414 156q-137 0 -221 -67t-84 -165v-4q0 -105 81 -167t317 -113t346 -147q112 -96 112 -257v-4q0 -182 -137 -294q-138 -111 -353 -111z"/>
<glyph glyph-name="scommaaccent" horiz-adv-x="1019" unicode="ș" d="M422 -313v170h184v-146q0 -186 -213 -209l-14 62q69 12 97 40t28 71v12h-82zM526 -20q-114 0 -232 42t-206 113l80 113q180 -135 367 -135q96 0 157 46t62 122v4q0 73 -67 111t-173 68t-152 48q-47 18 -106 52q-117 67 -117 206v4q-1 135 101 219t260 84q205 0 381 -116 l-72 -119q-158 102 -313 102q-92 0 -148 -43t-57 -110v-5q0 -97 189 -154t256 -92q67 -34 97 -64q70 -69 70 -175v-4q-1 -147 -107 -232t-270 -85z"/>
<glyph glyph-name="schwa" horiz-adv-x="1212" unicode="ə" d="M571 1083q223 -1 376 -155t153 -396v-4q0 -231 -146 -391t-367 -160q-222 0 -356 160q-133 160 -133 400q0 33 2 51h840q-16 168 -122 263t-251 95q-190 0 -334 -149l-98 88q178 198 436 198zM590 111q144 0 238 102q96 102 112 258h-682q12 -156 100 -258t232 -102z"/>
<glyph glyph-name="circumflex" horiz-adv-x="1024" unicode="ˆ" d="M225 1219l217 268h140l217 -268h-135l-154 137l-154 -137h-131z"/>
<glyph glyph-name="caron" horiz-adv-x="1024" unicode="ˇ" d="M799 1487l-217 -268h-140l-217 268h135l154 -137l154 137h131z"/>
<glyph glyph-name="breve" horiz-adv-x="1024" unicode="˘" d="M512 1214q-129 0 -212 68t-91 188h115q41 -129 188 -129t188 129h115q-8 -120 -91 -188t-212 -68z"/>
<glyph glyph-name="dotaccent" horiz-adv-x="1024" unicode="˙" d="M416 1219v196h192v-196h-192z"/>
<glyph glyph-name="ring" horiz-adv-x="1024" unicode="˚" d="M512 1214q-92 0 -158 64t-66 152t66 150t158 62t158 -62t66 -150t-66 -152t-158 -64zM512 1288q57 0 99 42t42 100t-42 99q-42 42 -99 42t-99 -42t-42 -99q0 -58 42 -100t99 -42z"/>
<glyph glyph-name="ogonek" horiz-adv-x="1024" unicode="˛" d="M389 -172q0 92 133 205l109 -27q-106 -88 -107 -156q0 -88 152 -96v-90q-8 -2 -25 -2q-125 2 -193 48t-69 118z"/>
<glyph glyph-name="tilde" horiz-adv-x="1024" unicode="˜" d="M176 1227q58 215 180 215q60 0 162 -41q90 -41 128 -41t60 22t46 78l96 -26q-58 -215 -182 -215q-62 0 -158 41q-96 40 -132 40t-58 -22t-46 -78z"/>
<glyph glyph-name="hungarumlaut" horiz-adv-x="1024" unicode="˝" d="M494 1219l194 297l154 -76l-226 -221h-122zM188 1219l193 297l154 -76l-224 -221h-123z"/>
<glyph glyph-name="commaaccent" horiz-adv-x="1024" unicode="̦" d="M420 -313v170h184v-146q0 -186 -213 -209l-14 62q69 12 97 40t28 71v12h-82z"/>
<glyph glyph-name="baht" horiz-adv-x="1300" unicode="฿" d="M1143 1075q0 -248 -248 -338q303 -92 303 -344v-2q0 -183 -136 -287t-364 -104h-120l-35 -242h-121l35 242h-273v1434h494l24 161h123l-26 -170q160 -25 252 -117t92 -233zM686 662h-14l-80 -525h110q162 0 253 69q91 68 91 194t-92 194q-94 68 -268 68zM334 784h252 l78 512h-330v-512zM993 1038q0 110 -59 172q-59 63 -166 80l-76 -506q139 4 220 74t81 180zM334 137h151l82 525h-233v-525z"/>
<glyph glyph-name="Wgrave" horiz-adv-x="2267" unicode="Ẁ" d="M1200 1561h-131l-235 190l159 74zM604 -10l-512 1444h176l410 -1194l393 1198h133l393 -1198l410 1194h170l-512 -1444h-137l-393 1163l-396 -1163h-135z"/>
<glyph glyph-name="wgrave" horiz-adv-x="1763" unicode="ẁ" d="M457 -8l-371 1067h168l278 -850l285 854h131l287 -854l278 850h164l-372 -1067h-138l-284 835l-287 -835h-139zM821 1219l-233 221l164 76l192 -297h-123z"/>
<glyph glyph-name="Wacute" horiz-adv-x="2267" unicode="Ẃ" d="M1067 1561l205 264l162 -74l-236 -190h-131zM604 -10l-512 1444h176l410 -1194l393 1198h133l393 -1198l410 1194h170l-512 -1444h-137l-393 1163l-396 -1163h-135z"/>
<glyph glyph-name="wacute" horiz-adv-x="1763" unicode="ẃ" d="M815 1219l193 297l163 -76l-233 -221h-123zM457 -8l-371 1067h168l278 -850l285 854h131l287 -854l278 850h164l-372 -1067h-138l-284 835l-287 -835h-139z"/>
<glyph glyph-name="Wdieresis" horiz-adv-x="2267" unicode="Ẅ" d="M1231 1561v184h190v-184h-190zM848 1561v184h190v-184h-190zM604 -10l-512 1444h176l410 -1194l393 1198h133l393 -1198l410 1194h170l-512 -1444h-137l-393 1163l-396 -1163h-135z"/>
<glyph glyph-name="wdieresis" horiz-adv-x="1763" unicode="ẅ" d="M969 1219v194h182v-194h-182zM610 1219v194h183v-194h-183zM457 -8l-371 1067h168l278 -850l285 854h131l287 -854l278 850h164l-372 -1067h-138l-284 835l-287 -835h-139z"/>
<glyph glyph-name="Ygrave" horiz-adv-x="1466" unicode="Ỳ" d="M651 0v567l-596 867h197l483 -717l488 717h188l-596 -865v-569h-164zM799 1554h-131l-236 191l160 74z"/>
<glyph glyph-name="ygrave" horiz-adv-x="1210" unicode="ỳ" d="M343 -334q-118 0 -228 53l53 125q76 -39 157 -39t130 44t96 155l-481 1055h174l385 -883l340 883h168l-445 -1094q-68 -163 -150 -231t-199 -68zM551 1219l-234 221l164 76l193 -297h-123z"/>
<glyph glyph-name="enspace" horiz-adv-x="1024" unicode=" "/>
<glyph glyph-name="emspace" horiz-adv-x="2048" unicode=" "/>
<glyph glyph-name="threeperemspace" horiz-adv-x="681" unicode=" "/>
<glyph glyph-name="fourperemspace" horiz-adv-x="512" unicode=" "/>
<glyph glyph-name="figurespace" horiz-adv-x="1228" unicode=" "/>
<glyph glyph-name="thinspace" horiz-adv-x="272" unicode=" "/>
<glyph glyph-name="hairspace" horiz-adv-x="153" unicode=" "/>
<glyph glyph-name="endash" horiz-adv-x="1081" unicode="–" d="M133 537v157h815v-157h-815z"/>
<glyph glyph-name="emdash" horiz-adv-x="1839" unicode="—" d="M133 537v157h1573v-157h-1573z"/>
<glyph glyph-name="quoteleft" horiz-adv-x="501" unicode="‘" d="M147 979v184q-1 123 53 189t173 92l24 -72q-77 -28 -107 -67.5t-30 -96.5v-14h76v-215h-189z"/>
<glyph glyph-name="quoteright" horiz-adv-x="501" unicode="’" d="M168 1219v215h188v-185q0 -123 -54 -188t-173 -92l-25 71q139 49 139 161q0 9 -1 18h-74z"/>
<glyph glyph-name="quotesinglbase" horiz-adv-x="501" unicode="‚" d="M158 0v215h188v-184q0 -123 -54 -189t-173 -92l-25 72q138 49 138 159q0 10 -1 19h-73z"/>
<glyph glyph-name="quotedblleft" horiz-adv-x="911" unicode="“" d="M557 979v184q0 123 53 189t172 92l25 -72q-76 -28 -107 -67t-31 -94q0 -8 1 -17h75v-215h-188zM147 979v184q-1 123 53 189t173 92l24 -72q-77 -28 -107 -67.5t-30 -96.5v-14h76v-215h-189z"/>
<glyph glyph-name="quotedblright" horiz-adv-x="911" unicode="”" d="M578 1219v215h188v-185q0 -123 -54 -188t-173 -92l-25 71q138 49 138 159q0 10 -1 20h-73zM168 1219v215h188v-185q0 -123 -54 -188t-173 -92l-25 71q139 49 139 161q0 9 -1 18h-74z"/>
<glyph glyph-name="quotedblbase" horiz-adv-x="911" unicode="„" d="M567 0v215h189v-184q0 -123 -54 -189t-174 -92l-24 72q138 49 138 159q0 10 -1 19h-74zM158 0v215h188v-184q0 -123 -54 -189t-173 -92l-25 72q138 49 138 159q0 10 -1 19h-73z"/>
<glyph glyph-name="dagger" horiz-adv-x="839" unicode="†" d="M365 487l12 578l-254 -16v112l252 -16l-19 289h127l-18 -289l252 16v-112l-254 16l12 -578h-110z"/>
<glyph glyph-name="daggerdbl" horiz-adv-x="880" unicode="‡" d="M377 0l18 289l-252 -17v113l254 -16l-12 348l12 348l-254 -16v112l252 -16l-18 289h127l-19 -289l252 16v-112l-254 16l13 -348l-13 -348l254 16v-113l-252 17l19 -289h-127z"/>
<glyph glyph-name="bullet" horiz-adv-x="978" unicode="•" d="M489 453h-3q-109 0 -186.5 77.5t-78.5 188.5v4q0 111 79.5 188.5t184.5 77.5h3q106 0 188 -79t82 -187v-4q0 -111 -78.5 -188.5t-187.5 -77.5h-3z"/>
<glyph glyph-name="ellipsis" horiz-adv-x="1480" unicode="…" d="M1141 0v211h184v-211h-184zM649 0v211h182v-211h-182zM158 0v211h182v-211h-182z"/>
<glyph glyph-name="perthousand" horiz-adv-x="2480" unicode="‰" d="M435 831q81 0 133 72t53 176v4q1 105 -55 179t-137 74t-133 -72t-52 -177v-4q0 -106 55 -179t136 -73zM430 717q-141 0 -232 106t-92 256v4q0 151 92 259t235 108t233 -106t90 -257v-4q0 -150 -92 -258t-234 -108zM1452 1434l-1051 -1434h-147l553 748l500 686h145z M1087 350q-1 -106 55 -179t137 -73t133 72t52 176v4q0 106 -55 179t-136 73t-133 -72t-53 -176v-4zM1275 -16q-142 0 -233 106q-90 106 -90 256v4q0 150 92 258t234 109q142 -1 231 -107q90 -106 90 -256v-4q0 -152 -91 -259t-233 -107zM2051 98q81 0 133 72t52 176v4 q0 106 -55 179t-136 73t-133 -72t-52 -176v-4q0 -106 55 -179t136 -73zM2374 350q0 -150 -92 -258t-235 -108q-142 0 -232 106t-91 256v4q0 150 92 258t234 109q141 -1 232 -107t92 -256v-4z"/>
<glyph glyph-name="guilsinglleft" horiz-adv-x="671" unicode="‹" d="M436 86l-338 436v17l338 434l115 -66l-272 -375l272 -380z"/>
<glyph glyph-name="guilsinglright" horiz-adv-x="671" unicode="›" d="M236 86l-115 66l270 376l-270 379l115 66l335 -434v-17z"/>
<glyph glyph-name="fraction" horiz-adv-x="204" unicode="⁄" d="M-440 0l508 735l467 699h110l-508 -736l-467 -698h-110z"/>
<glyph glyph-name="zero.sup" d="M408 848q-133 0 -217 116q-83 116 -82 296v6q0 182 82 299q83 117 217 117t219 -116q84 -114 84 -296v-6q0 -182 -85 -299t-218 -117zM408 1583q-88 0 -139.5 -86t-51.5 -224v-5v-6q0 -140 52 -228q53 -88 141 -88t140 88t52 228v6q0 139 -53 227t-141 88z" unicode="⁰"/>
<glyph glyph-name="four.sup" d="M614 1047v-183h-98v183h-389l-23 92l396 534h114v-538h111v-88h-111zM516 1135v411l-303 -411h303z" unicode="⁴"/>
<glyph glyph-name="five.sup" d="M401 848q-160 0 -292 133l71 76q106 -113 226 -113q84 0 135 47t51 117t-52 111t-137 41t-172 -41l-71 43l28 399h474v-102h-386l-16 -234q68 31 174 31t187 -66q79 -66 79 -180t-85 -188t-214 -74z" unicode="⁵"/>
<glyph glyph-name="six.sup" d="M686 1120q0 -118 -80 -194t-201 -76q-122 0 -196 78q-98 98 -98 307v4q0 199 90 321t228 122t237 -93l-62 -80q-76 76 -167 76t-153 -86t-65 -217q84 92 201 92q118 0 192 -68t74 -186zM408 942q76 0 126 48t50 125t-47 123t-126 46t-130 -48t-51 -122t50 -123 q52 -49 128 -49z" unicode="⁶"/>
<glyph glyph-name="seven.sup" d="M139 1559v102h551v-80l-356 -717h-121l354 695h-428z" unicode="⁷"/>
<glyph glyph-name="eight.sup" d="M410 848q-129 0 -211 64t-82 167q0 135 147 199q-125 61 -125 184q0 96 78.5 157.5t189.5 61.5h4q115 0 193 -62t78 -157q0 -123 -123 -184q145 -59 146 -195q0 -107 -83 -171t-212 -64zM411 1317q73 0 121 39t48 99t-47 98t-122 38t-122 -38t-47 -98t48 -99t121 -39z M411 1231q-85 0 -138.5 -40.5t-53.5 -105.5q0 -67 52 -107q51 -40 139 -40t140 40t52 106t-53 106q-53 41 -138 41z" unicode="⁸"/>
<glyph glyph-name="nine.sup" d="M399 1147q-117 0 -191 70q-74 71 -75 189q0 118 79.5 195.5t198.5 77.5h3q121 0 196 -75q98 -102 99 -310v-4q0 -202 -89 -322q-90 -120 -232 -120t-245 98l60 78q84 -80 178 -80t156 83q61 83 63 212q-84 -92 -201 -92zM409 1237q79 0 130 48t51 126t-51 127t-127 49 t-126 -49t-50 -128t47 -126t126 -47z" unicode="⁹"/>
<glyph glyph-name="zero.inf" d="M408 -291q-133 0 -217 116q-83 116 -82 296v6q0 182 82 299q83 117 217 117t219 -115q84 -115 84 -297v-6q0 -182 -85 -299t-218 -117zM408 444q-88 0 -139.5 -86t-51.5 -224v-5v-6q0 -139 52 -227q53 -88 141 -88t140 88t52 227v6q0 139 -53 227t-141 88z" unicode="₀"/>
<glyph glyph-name="one.inf" horiz-adv-x="665" unicode="₁" d="M432 -270h-106v694l-176 -68l-27 93l225 88h84v-807z"/>
<glyph glyph-name="two.inf" d="M121 -270v90l295 258q86 72 122 123t36 109t-44 98q-41 38 -102 38h-6q-119 0 -213 -137l-78 56q117 178 297 178q112 0 184 -66t72 -154t-42 -149t-144 -149l-232 -197h424v-98h-569z" unicode="₂"/>
<glyph glyph-name="three.inf" d="M403 -291q-180 0 -299 144l72 71q100 -119 230 -119q70 0 117.5 40.5t47.5 106.5q0 70 -57 108t-149 38h-68l-21 68l259 258h-385v98h520v-86l-254 -252q120 -10 192 -67t72 -164t-79 -175t-198 -69z" unicode="₃"/>
<glyph glyph-name="four.inf" d="M614 -92v-182h-98v182h-389l-23 92l396 535h114v-539h111v-88h-111zM516 -4v412l-303 -412h303z" unicode="₄"/>
<glyph glyph-name="five.inf" d="M401 -291q-160 0 -292 133l71 76q106 -113 226 -113h3q82 0 132.5 47.5t50.5 117.5t-52 110q-52 41 -137 41t-172 -41l-71 43l28 399h474v-102h-386l-16 -234q68 31 174 31h3q104 0 184 -65q79 -66 79 -180t-85 -188t-214 -75z" unicode="₅"/>
<glyph glyph-name="six.inf" d="M686 -18q0 -116 -80 -194q-80 -77 -201 -77q-122 0 -196 78q-98 98 -98 307v4q0 199 90 321t228 122t237 -92l-62 -80q-76 75 -167 75t-153 -86t-65 -217q84 93 201 93q118 0 192 -69t74 -185zM408 -197q76 1 126 49t50 124t-47 123q-47 46 -126 46t-130 -48t-51 -122 t50 -123q52 -49 128 -49z" unicode="₆"/>
<glyph glyph-name="seven.inf" d="M139 420v102h551v-80l-356 -716h-121l354 694h-428z" unicode="₇"/>
<glyph glyph-name="eight.inf" d="M410 -291q-129 0 -211 65t-82 167q0 135 147 198q-125 61 -125 185q0 96 79 157t193 61q115 0 193 -62t78 -156q0 -123 -123 -185q145 -59 146 -194q0 -106 -83 -171t-212 -65zM411 178q73 0 121 39t48 99t-47 98t-122 39q-75 0 -122 -38q-47 -39 -47 -99t48 -99t121 -39 zM602 -55q0 67 -53 107t-138 40t-138.5 -40.5t-53.5 -105.5q0 -68 52 -107q51 -40 139 -40t140 40t52 106z" unicode="₈"/>
<glyph glyph-name="nine.inf" d="M414 541q121 0 196 -76q98 -102 99 -309v-4q0 -201 -89 -322q-90 -121 -232 -121t-245 98l60 78q84 -80 178 -80t156 83q61 83 63 212q-84 -92 -201 -92t-191 70t-75 188q0 118 80 197q80 78 201 78zM409 98q79 0 130 48t51 126t-51 127t-127 49t-126 -48 q-50 -50 -50 -129t47 -126t126 -47z" unicode="₉"/>
<glyph glyph-name="colonmonetary" horiz-adv-x="1239" unicode="₡" d="M104 709v14q0 293 150 485t385 224l27 163h102l-25 -157q102 -2 183 -31l32 188h103l-37 -231q59 -33 123 -86l-74 -127q-59 51 -80 63l-174 -1077q119 23 254 148l84 -105q-164 -156 -354 -180l-39 -242h-105l37 240q-100 4 -182 33l-43 -273h-104l51 318 q-145 84 -230 249q-84 165 -84 384zM723 1305h-6l-185 -1133q86 -43 193 -43l184 1135q-92 41 -186 41zM256 707q0 -322 193 -482l172 1067q-164 -37 -265 -188q-100 -152 -100 -381v-16z"/>
<glyph glyph-name="naira" horiz-adv-x="1689" unicode="₦" d="M1599 465h-202v-465h-187l-290 465h-474v-465h-151v465h-205v115h205v282h-205v115h205v457h201l282 -457h467v457h152v-457h202v-115h-202v-282h202v-115zM444 864v-286h414l-178 286h-236zM1245 578v286h-405l178 -286h227zM444 1239v-266h168l-166 266h-2zM1245 217 v252h-160l158 -252h2z"/>
<glyph glyph-name="rupee" horiz-adv-x="2213" unicode="₨" d="M168 0v1434h491q227 0 361 -117t133 -313v-7q0 -161 -92 -269t-244 -148l385 -580h-184l-363 551h-333v-551h-154zM322 688h327q158 0 253 82t95 221v6q0 141 -91 218t-255 77h-329v-604zM1737 -20q-225 0 -418 147l76 113q176 -131 348 -131q94 0 157 46q62 46 62 119v5 q0 63 -51 103t-216 93t-246 122t-81 183v4q0 131 100 213t270 82t345 -116l-66 -119q-162 106 -303 106q-90 0 -146 -44t-57 -111v-4q-1 -63 55 -105t222 -93q166 -52 243 -121t76 -183v-4q0 -139 -106 -222t-264 -83z"/>
<glyph glyph-name="won" horiz-adv-x="2263" unicode="₩" d="M2183 971v-115h-256l-78 -272h334v-115h-366l-134 -475h-184l-139 475h-457l-137 -475h-186l-136 475h-362v115h332l-78 272h-254v115h221l-129 463h174l121 -463h438l131 467h195l131 -467h438l121 463h168l-131 -463h223zM1014 858l-78 -278h393l-80 278h-235zM494 858 l71 -274h236l73 274h-380zM1393 858l77 -274h234l70 274h-381zM674 160h10l84 309h-174zM1589 160h8l78 309h-174zM1126 1257l-82 -286h175l-82 286h-11z"/>
<glyph glyph-name="sheqel" horiz-adv-x="1275" unicode="₪" d="M809 135h186v924h133v-1059h-321q-145 0 -223 70t-101 215l-65 415h110l60 -366q16 -102 68 -150t153 -49zM717 723q0 105 -52 153t-159 48h-225v-924h-134v1059h373q307 0 307 -293v-391h-110v348z"/>
<glyph glyph-name="Euro" horiz-adv-x="1474" unicode="€" d="M999 963v-127h-555q-6 -57 -6 -123t4 -99h557v-129h-532q47 -168 159 -266t244 -98t216 59t165 176l117 -82q-94 -141 -210 -220t-277 -79h-3q-213 0 -367.5 139.5t-209.5 370.5h-186v129h166q-6 46 -6 97q0 59 8 125h-168v127h192q57 221 209 358t354 137h2 q304 0 492 -280l-123 -88q-82 114 -167 168t-215 54t-233 -94q-103 -95 -153 -255h526z"/>
<glyph glyph-name="peso" horiz-adv-x="1482" unicode="₱" d="M274 0v907h-202v113h202v414h422q226 0 372 -112t163 -302h201v-113h-201q-18 -201 -177 -313t-386 -113h-230v-481h-164zM674 623q168 1 276 79t121 209h-637v-288h240zM434 1290v-276h635q-15 133 -118.5 204.5t-265.5 71.5h-5h-246z"/>
<glyph glyph-name="published" horiz-adv-x="1699" unicode="℗" d="M848 -25q-309 0 -524 216t-215 522v4q0 305 217 523t526 218t524 -216t215 -521v-4q0 -305 -217 -523t-526 -219zM176 713q0 -281 194 -477t479 -197q287 0 481 199t194 479v4q0 281 -194 477t-480 197q-286 0 -480 -199t-194 -479v-4zM598 352v760h299q135 0 215 -66 t80 -180v-4q0 -122 -89 -188t-220 -66h-170v-256h-115zM713 711h172q88 0 140 40t52 109v4q0 145 -190 146h-174v-299z"/>
<glyph glyph-name="servicemark" horiz-adv-x="1447" unicode="℠" d="M723 803v631h96l223 -347l226 347h94v-631h-90v483l-225 -342h-11l-225 342v-483h-88zM340 793q-156 0 -274 102l53 63q104 -88 223 -88q63 0 101 28t38 71t-35 67q-36 24 -140 48q-104 22 -156 62t-54 118q0 78 62 129t180 51q117 0 215 -80l-51 -66q-86 68 -185 68 q-59 0 -95 -27t-36 -67t35 -67t139 -49t157 -62q54 -40 54 -120q-1 -79 -67 -130t-164 -51z"/>
<glyph glyph-name="trademark" horiz-adv-x="1413" unicode="™" d="M688 803v631h96l226 -347l223 347h94v-631h-88v483l-225 -342h-13l-223 342v-483h-90zM256 803v545h-203v86h496v-86h-203v-545h-90z"/>
<glyph glyph-name="onethird" horiz-adv-x="1689" unicode="⅓" d="M1294 -20q-180 0 -299 143l72 72q100 -119 229 -119q70 0 118 41t48 109t-57 105q-57 38 -150 38h-67l-21 67l258 258h-385v99h521v-86l-254 -252q119 -9 191 -67t73 -165q0 -107 -79 -175t-198 -68zM426 641h-107v694l-176 -67l-26 92l225 86h84v-805zM229 0l508 735 l467 699h111l-508 -736l-467 -698h-111z"/>
<glyph glyph-name="twothirds" horiz-adv-x="1843" unicode="⅔" d="M1448 -20q-180 0 -299 143l72 72q100 -119 229 -119q70 0 118 41t48 109t-57 105q-57 38 -150 38h-68l-20 67l258 258h-385v99h520v-86l-254 -252q119 -9 192 -67q72 -58 72 -165t-78 -175t-198 -68zM100 641v90l295 258q86 72 122 123q36 52 36 110t-43 97t-109 39 q-119 0 -213 -137l-77 55q117 178 297 178q112 0 184 -66t72 -153t-42 -149t-145 -150l-231 -199h424v-96h-570zM379 0l508 735l467 699h110l-508 -736l-467 -698h-110z"/>
<glyph glyph-name="onefifth" horiz-adv-x="1689" unicode="⅕" d="M1292 -20q-160 0 -293 133l72 75q105 -112 223 -112h2q84 0 136 47q51 47 51 117t-52 110q-51 40 -137 41q-86 0 -172 -41l-71 43l28 400h473v-103h-385l-16 -233q69 31 175 31t185.5 -65.5t79.5 -177.5q-1 -117 -85.5 -191t-213.5 -74zM426 641h-107v694l-176 -67 l-26 92l225 86h84v-805zM240 0l508 735l466 699h111l-508 -736l-467 -698h-110z"/>
<glyph glyph-name="twofifths" horiz-adv-x="1843" unicode="⅖" d="M1446 -20q-160 0 -293 133l72 75q105 -112 223 -112h2q84 0 135 47t51 117t-52 110t-137 41q-85 0 -171 -41l-72 43l29 400h473v-103h-385l-16 -233q68 31 174 31t186 -66t80 -180t-85 -188t-214 -74zM399 0l508 735l467 699h111l-508 -736l-467 -698h-111zM100 641v90 l295 258q86 72 122 123q36 52 36 110t-43 97t-109 39q-119 0 -213 -137l-77 55q117 178 297 178q112 0 184 -66t72 -153t-42 -149t-145 -150l-231 -199h424v-96h-570z"/>
<glyph glyph-name="threefifths" horiz-adv-x="1843" unicode="⅗" d="M1446 -20q-160 0 -293 133l72 75q105 -112 223 -112h2q84 0 135 47t51 117t-52 110t-137 41q-85 0 -171 -41l-72 43l29 400h473v-103h-385l-16 -233q68 31 174 31t186 -66t80 -180t-85 -188t-214 -74zM369 0l508 735l466 699h111l-508 -736l-467 -698h-110zM383 621 q-180 0 -299 143l72 72q100 -119 229 -119q70 0 118 41q48 40 48 108t-57 106t-150 38h-68l-20 67l258 258h-385v99h520v-86l-254 -252q119 -10 192 -68t73 -164q0 -107 -80 -175q-78 -68 -197 -68z"/>
<glyph glyph-name="fourfifths" horiz-adv-x="1843" unicode="⅘" d="M594 817v-180h-98v180h-390l-22 94l395 533h115v-537h111v-90h-111zM1446 -20q-160 0 -293 133l72 75q105 -112 223 -112h2q84 0 135 47t51 117t-52 110t-137 41q-85 0 -171 -41l-72 43l29 400h473v-103h-385l-16 -233q68 31 174 31t186 -66t80 -180t-85 -188t-214 -74z M399 0l508 735l467 699h111l-508 -736l-467 -698h-111zM496 907v412l-303 -412h303z"/>
<glyph glyph-name="onesixth" horiz-adv-x="1689" unicode="⅙" d="M1311 506q117 0 191 -69t75 -185q0 -116 -80 -194q-80 -76 -202 -76t-195 77q-98 98 -99 308v4q1 199 90.5 320.5t226.5 121.5h2q138 0 236 -92l-61 -80q-76 76 -167 76t-153 -86t-65 -217q84 92 201 92zM256 0l508 735l467 699h110l-507 -736l-467 -698h-111zM426 641 h-107v694l-176 -67l-26 92l225 86h84v-805zM1298 74q76 0 126 48t50 125t-46 123q-48 46 -126 46t-130 -48t-52 -122t51 -123t127 -49z"/>
<glyph glyph-name="fivesixths" horiz-adv-x="1843" unicode="⅚" d="M1465 506q117 0 191 -69t75 -185q0 -116 -80 -194q-80 -76 -202 -76t-196 77q-98 98 -98 308v4q0 199 90 321q90 121 227 121h2q138 0 236 -92l-61 -80q-76 76 -167 76q-92 0 -154 -86t-64 -217q84 92 201 92zM381 621q-160 0 -293 133l72 75q105 -112 223 -112h2 q84 0 135 47t51 117q0 71 -52 111t-137 40t-171 -41l-72 43l29 400h473v-103h-385l-16 -233q68 30 174 30t186 -66t80 -180t-84.5 -187.5t-211.5 -73.5h-3zM379 0l508 735l467 699h110l-508 -736l-467 -698h-110zM1452 74q76 0 126 48t50 125t-47 123t-126 46t-130 -48 t-51 -122t51 -123t127 -49z"/>
<glyph glyph-name="oneeighth" horiz-adv-x="1689" unicode="⅛" d="M1300 -20q-128 0 -210 64t-82 167q0 135 147 199q-125 61 -125 184q0 96 78.5 157.5t189.5 61.5h4q114 0 192 -62t79 -157q0 -123 -123 -184q145 -59 145 -195q0 -107 -83 -171t-212 -64zM1133 587q0 -59 48 -99t121 -40q72 0 120 40q48 38 48 98t-46 99q-46 38 -122 38 q-75 0 -122 -38t-47 -98zM1493 216q0 66 -53 106t-138 40t-139 -40q-53 -41 -53 -107q0 -65 52 -105t140 -40t139 40q52 40 52 106zM426 641h-107v694l-176 -67l-26 92l225 86h84v-805zM252 0l508 735l467 699h110l-508 -736l-467 -698h-110z"/>
<glyph glyph-name="threeeighths" horiz-adv-x="1843" unicode="⅜" d="M1454 -20q-129 0 -211 64t-82 167q0 135 148 199q-125 61 -125 184q0 96 78.5 157.5t189.5 61.5h4q114 0 192 -62q79 -62 78 -157q0 -123 -122 -184q145 -59 145 -195q0 -107 -83 -171t-212 -64zM1455 723q-75 0 -122 -38t-47 -98q0 -59 48 -99t121 -40t121 40 q48 38 48 98t-47 99q-47 38 -122 38zM1455 362q-85 0 -138 -40t-53 -107q0 -65 52 -105t139 -40t139 40t52 106t-52 106q-54 40 -139 40zM379 0l508 735l467 699h110l-508 -736l-467 -698h-110zM383 621q-180 0 -299 143l72 72q100 -119 229 -119q70 0 118 41q48 40 48 108 t-57 106t-150 38h-68l-20 67l258 258h-385v99h520v-86l-254 -252q119 -10 192 -68t73 -164q0 -107 -80 -175q-78 -68 -197 -68z"/>
<glyph glyph-name="fiveeighths" horiz-adv-x="1843" unicode="⅝" d="M1454 -20q-129 0 -211 64t-82 167q0 135 148 199q-125 61 -125 184q0 96 78.5 157.5t189.5 61.5h4q114 0 192 -62q79 -62 78 -157q0 -123 -122 -184q145 -59 145 -195q0 -107 -83 -171t-212 -64zM1455 723q-75 0 -122 -38t-47 -98q0 -59 48 -99t121 -40t121 40 q48 38 48 98t-47 99q-47 38 -122 38zM1455 362q-85 0 -138 -40t-53 -107q0 -65 52 -105t139 -40t139 40t52 106t-52 106q-54 40 -139 40zM379 0l508 735l467 699h110l-508 -736l-467 -698h-110zM381 621q-160 0 -293 133l72 75q105 -112 223 -112h2q84 0 135 47t51 117 q0 71 -52 111t-137 40t-171 -41l-72 43l29 400h473v-103h-385l-16 -233q68 30 174 30t186 -66t80 -180t-84.5 -187.5t-211.5 -73.5h-3z"/>
<glyph glyph-name="seveneighths" horiz-adv-x="1843" unicode="⅞" d="M1454 -20q-129 0 -211 64t-82 167q0 135 148 199q-125 61 -125 184q0 96 78.5 157.5t189.5 61.5h4q114 0 192 -62q79 -62 78 -157q0 -123 -122 -184q145 -59 145 -195q0 -107 -83 -171t-212 -64zM1455 723q-75 0 -122 -38t-47 -98q0 -59 48 -99t121 -40t121 40 q48 38 48 98t-47 99q-47 38 -122 38zM1455 362q-85 0 -138 -40t-53 -107q0 -65 52 -105t139 -40t139 40t52 106t-52 106q-54 40 -139 40zM139 1331v103h551v-82l-356 -715h-121l354 694h-428zM317 0l508 735l467 699h111l-508 -736l-467 -698h-111z"/>
<glyph glyph-name="minus" horiz-adv-x="1280" unicode="−" d="M1141 645h-1002v152h1002v-152z"/>
<glyph glyph-name="Q.alt" d="M868 -25q-319 0 -524 216t-205 522v4q0 305 207 523t526 218q318 0 524 -216t206 -521v-4q0 -170 -70 -322t-195 -256l357 -338v-8h-242l-268 250q-145 -68 -316 -68zM872 125q244 0 403 170t159 418v4q0 248 -161 420t-405 172t-402 -170t-159 -418v-4q1 -248 161 -420 t404 -172z" horiz-adv-x="1740"/>
<glyph glyph-name="a.alt" d="M621 -23q-203 0 -355 150t-151 399v4q0 248 151 400q151 151 352 151h3q250 0 405 -225v203h158v-1059h-158v213q-159 -236 -405 -236zM649 119h3q152 0 266.5 115.5t113.5 293.5v4q0 176 -114 292q-115 116 -272 116t-263 -111t-107 -297v-4q0 -182 109.5 -295.5 t260.5 -113.5h3z" horiz-adv-x="1359"/>
<glyph glyph-name="aacute.alt" d="M623 1219l192 297l164 -76l-234 -221h-122zM621 -23q-203 0 -355 150t-151 399v4q0 248 151 400q151 151 352 151h3q250 0 405 -225v203h158v-1059h-158v213q-159 -236 -405 -236zM649 119h3q152 0 266.5 115.5t113.5 293.5v4q0 176 -114 292q-115 116 -272 116 t-263 -111t-107 -297v-4q0 -182 109.5 -295.5t260.5 -113.5h3z" horiz-adv-x="1359"/>
<glyph glyph-name="abreve.alt" d="M621 -23q-203 0 -355 150t-151 399v4q0 248 151 400q151 151 352 151h3q250 0 405 -225v203h158v-1059h-158v213q-159 -236 -405 -236zM649 119h3q152 0 266.5 115.5t113.5 293.5v4q0 176 -114 292q-115 116 -272 116t-263 -111t-107 -297v-4q0 -182 109.5 -295.5 t260.5 -113.5h3zM686 1214q-129 0 -212 68t-91 188h115q41 -129 188 -129t188 129h115q-8 -120 -91 -188t-212 -68z" horiz-adv-x="1359"/>
<glyph glyph-name="acircumflex.alt" d="M399 1219l217 268h140l217 -268h-135l-154 137l-154 -137h-131zM621 -23q-203 0 -355 150t-151 399v4q0 248 151 400q151 151 352 151h3q250 0 405 -225v203h158v-1059h-158v213q-159 -236 -405 -236zM649 119h3q152 0 266.5 115.5t113.5 293.5v4q0 176 -114 292 q-115 116 -272 116t-263 -111t-107 -297v-4q0 -182 109.5 -295.5t260.5 -113.5h3z" horiz-adv-x="1359"/>
<glyph glyph-name="adieresis.alt" d="M774 1219v194h182v-194h-182zM416 1219v194h182v-194h-182zM621 -23q-203 0 -355 150t-151 399v4q0 248 151 400q151 151 352 151h3q250 0 405 -225v203h158v-1059h-158v213q-159 -236 -405 -236zM649 119h3q152 0 266.5 115.5t113.5 293.5v4q0 176 -114 292 q-115 116 -272 116t-263 -111t-107 -297v-4q0 -182 109.5 -295.5t260.5 -113.5h3z" horiz-adv-x="1359"/>
<glyph glyph-name="agrave.alt" d="M621 -23q-203 0 -355 150t-151 399v4q0 248 151 400q151 151 352 151h3q250 0 405 -225v203h158v-1059h-158v213q-159 -236 -405 -236zM649 119h3q152 0 266.5 115.5t113.5 293.5v4q0 176 -114 292q-115 116 -272 116t-263 -111t-107 -297v-4q0 -182 109.5 -295.5 t260.5 -113.5h3zM627 1219l-234 221l164 76l193 -297h-123z" horiz-adv-x="1359"/>
<glyph glyph-name="amacron.alt" d="M621 -23q-203 0 -355 150t-151 399v4q0 248 151 400q151 151 352 151h3q250 0 405 -225v203h158v-1059h-158v213q-159 -236 -405 -236zM649 119h3q152 0 266.5 115.5t113.5 293.5v4q0 176 -114 292q-115 116 -272 116t-263 -111t-107 -297v-4q0 -182 109.5 -295.5 t260.5 -113.5h3zM367 1260v129h639v-129h-639z" horiz-adv-x="1359"/>
<glyph glyph-name="aogonek.alt" d="M621 -23q-203 0 -355 150t-151 399v4q0 248 151 400q151 151 352 151h3q250 0 405 -225v203h158v-1059h-27q-98 -84 -98 -151q0 -87 151 -95v-90q-8 -2 -24 -2q-125 2 -194 48q-68 46 -68 125t102 171v207q-160 -236 -405 -236zM649 119h3q152 0 266.5 115.5t113.5 293.5 v4q0 176 -114 292q-115 116 -272 116t-263 -111t-107 -297v-4q0 -182 109.5 -295.5t260.5 -113.5h3z" horiz-adv-x="1359"/>
<glyph glyph-name="aring.alt" d="M686 1214q-92 0 -158 64t-66 152t66 150t158 62t158 -62t66 -150t-66 -152t-158 -64zM686 1288q57 0 99 42t42 100t-42 99q-42 42 -99 42t-99 -42t-42 -99q0 -58 42 -100t99 -42zM621 -23q-203 0 -355 150t-151 399v4q0 248 151 400q151 151 352 151h3q250 0 405 -225 v203h158v-1059h-158v213q-159 -236 -405 -236zM649 119h3q152 0 266.5 115.5t113.5 293.5v4q0 176 -114 292q-115 116 -272 116t-263 -111t-107 -297v-4q0 -182 109.5 -295.5t260.5 -113.5h3z" horiz-adv-x="1359"/>
<glyph glyph-name="aring.alt2" d="M492 -23q-160 1 -278 89t-118 241v4q0 164 123 253t309 89t346 -45v37q0 141 -81 215q-82 74 -234 74t-321 -78l-48 129q145 63 254 80q-74 59 -74 149t66 153t158 63t158 -62t66 -156q0 -93 -85 -157q106 -25 185 -99q109 -109 108 -309v-647h-152v160 q-138 -183 -382 -183zM256 313q0 -95 76 -153t207 -58q130 0 234 81q103 81 104 206v103q-155 45 -307 45h-5q-148 0 -228.5 -59.5t-80.5 -160.5v-4zM453 1217q0 -57 42 -99t99 -43q57 0 99 42q42 41 42 99t-42 100t-99 42t-99 -42t-42 -99z" horiz-adv-x="1185"/>
<glyph glyph-name="aringacute.alt" d="M621 1702l198 258l160 -76l-231 -182h-127zM686 1214q-92 0 -158 64t-66 152t66 150t158 62t158 -62t66 -150t-66 -152t-158 -64zM686 1288q57 0 99 42t42 100t-42 99q-42 42 -99 42t-99 -42t-42 -99q0 -58 42 -100t99 -42zM621 -23q-203 0 -355 150t-151 399v4 q0 248 151 400q151 151 352 151h3q250 0 405 -225v203h158v-1059h-158v213q-159 -236 -405 -236zM649 119h3q152 0 266.5 115.5t113.5 293.5v4q0 176 -114 292q-115 116 -272 116t-263 -111t-107 -297v-4q0 -182 109.5 -295.5t260.5 -113.5h3z" horiz-adv-x="1359"/>
<glyph glyph-name="aringacute.alt2" d="M526 1503l201 258l158 -75l-230 -183h-129zM492 -23q-160 1 -278 89t-118 241v4q0 164 123 253t309 89t346 -45v37q0 141 -81 215q-82 74 -234 74t-321 -78l-48 129q145 63 254 80q-74 59 -74 149t66 153t158 63t158 -62t66 -156q0 -93 -85 -157q106 -25 185 -99 q109 -109 108 -309v-647h-152v160q-138 -183 -382 -183zM256 313q0 -95 76 -153t207 -58q130 0 234 81q103 81 104 206v103q-155 45 -307 45h-5q-148 0 -228.5 -59.5t-80.5 -160.5v-4zM453 1217q0 -57 42 -99t99 -43q57 0 99 42q42 41 42 99t-42 100t-99 42t-99 -42t-42 -99 z" horiz-adv-x="1185"/>
<glyph glyph-name="atilde.alt" d="M621 -23q-203 0 -355 150t-151 399v4q0 248 151 400q151 151 352 151h3q250 0 405 -225v203h158v-1059h-158v213q-159 -236 -405 -236zM649 119h3q152 0 266.5 115.5t113.5 293.5v4q0 176 -114 292q-115 116 -272 116t-263 -111t-107 -297v-4q0 -182 109.5 -295.5 t260.5 -113.5h3zM358 1227q58 215 180 215q60 0 162 -41q90 -41 128 -41t60 22t46 78l96 -26q-32 -115 -76 -165t-106 -50t-158 41q-96 40 -132 40t-58 -22t-45 -78z" horiz-adv-x="1359"/>
<glyph glyph-name="three.alt" d="M627 -25q-166 0 -305 70t-234 188l119 103q170 -213 424 -213q143 0 233 73t90 193v4q0 121 -100.5 190.5t-277.5 69.5h-5h-147v140h151h4q147 0 241.5 71.5t94.5 192.5v4q0 109 -85 179t-222 71q-217 0 -370 -205l-119 86q188 266 493 266q205 0 336 -108t131 -275v-4 q0 -240 -250 -336q289 -94 289 -342v-4q0 -176 -137 -295t-354 -119z" horiz-adv-x="1236"/>
<glyph glyph-name="registered.alt" d="M848 -25q-309 0 -524 216t-215 522v4q0 305 217 523t526 218t524 -216t215 -521v-4q0 -305 -217 -523t-526 -219zM176 713q0 -281 194 -477t479 -197q287 0 481 199t194 479v4q0 281 -194 477t-480 197q-286 0 -480 -199t-194 -479v-4zM559 358v760h340q145 0 225 -80 q61 -57 62 -147v-4q0 -87 -53 -145t-144 -78l236 -306h-140l-219 287h-194v-287h-113zM672 745h217q82 0 131 36t49 100v4q0 59 -46 95t-128 36h-223v-271z" horiz-adv-x="1699"/>
<glyph glyph-name="R_p" d="M168 0v1434h491q227 0 361 -117t133 -313v-7q0 -161 -92 -269t-244 -148l385 -580h-184l-363 551h-333v-551h-154zM1401 -328v1393h149v-205q135 227 355 227q176 0 307 -147t131 -397v-19q0 -250 -131 -398t-307 -149q-219 0 -355 222v-527h-149zM1544 522 q0 -180 100 -294t231 -115q132 1 223 111t91 298v19q0 184 -92 298q-92 113 -223 113t-230 -114t-100 -295v-21zM322 688h327q158 0 253 82t95 221v6q0 141 -91 218t-255 77h-329v-604z" horiz-adv-x="2433"/>
<glyph glyph-name="onehalf.alt" d="M705 641h-560v92h236v602l-207 -73l-27 90l254 94h84v-713h220v-92zM1165 0v90l295 258q86 72 122 123t36 109t-43 98q-43 39 -109 39q-119 0 -213 -137l-77 55q117 178 297 178h3q109 0 180.5 -65.5t72.5 -153.5q0 -88 -42 -150t-145 -149l-231 -197h424v-98h-570z M420 0l508 735l467 699h110l-508 -736l-467 -698h-110z" horiz-adv-x="1843"/>
<glyph glyph-name="onethird.alt" d="M705 641h-560v92h236v602l-207 -73l-27 90l254 94h84v-713h220v-92zM1448 -20q-180 0 -299 143l72 72q100 -119 229 -119q70 0 118 41t48 109t-57 105q-57 38 -150 38h-68l-20 67l258 258h-385v99h520v-86l-254 -252q119 -9 192 -67q72 -58 72 -165t-78 -175t-198 -68z M399 0l508 735l467 699h111l-508 -736l-467 -698h-111z" horiz-adv-x="1843"/>
<glyph glyph-name="onequarter.alt" d="M1638 178v-182h-98v182h-389l-23 92l396 535h114v-539h111v-88h-111zM705 641h-560v92h236v602l-207 -73l-27 90l254 94h84v-713h220v-92zM430 0l508 735l467 699h111l-508 -736l-467 -698h-111zM1540 266v412l-303 -412h303z" horiz-adv-x="1843"/>
<glyph glyph-name="onefifth.alt" d="M705 641h-560v92h236v602l-207 -73l-27 90l254 94h84v-713h220v-92zM1446 -20q-160 0 -293 133l72 75q105 -112 223 -112h2q84 0 135 47t51 117t-52 110t-137 41q-85 0 -171 -41l-72 43l29 400h473v-103h-385l-16 -233q68 31 174 31t186 -66t80 -180t-85 -188t-214 -74z M410 0l508 735l466 699h111l-508 -736l-467 -698h-110z" horiz-adv-x="1843"/>
<glyph glyph-name="onesixth.alt" d="M1465 506q117 0 191 -69t75 -185q0 -116 -80 -194q-80 -76 -202 -76t-196 77q-98 98 -98 308v4q0 199 90 321q90 121 227 121h2q138 0 236 -92l-61 -80q-76 76 -167 76q-92 0 -154 -86t-64 -217q84 92 201 92zM705 641h-560v92h236v602l-207 -73l-27 90l254 94h84v-713 h220v-92zM410 0l508 735l466 699h111l-508 -736l-467 -698h-110zM1452 74q76 0 126 48t50 125t-47 123t-126 46t-130 -48t-51 -122t51 -123t127 -49z" horiz-adv-x="1843"/>
<glyph glyph-name="oneeighth.alt" d="M705 641h-560v92h236v602l-207 -73l-27 90l254 94h84v-713h220v-92zM1454 -20q-129 0 -211 64t-82 167q0 135 148 199q-125 61 -125 184q0 96 78.5 157.5t189.5 61.5h4q114 0 192 -62q79 -62 78 -157q0 -123 -122 -184q145 -59 145 -195q0 -107 -83 -171t-212 -64z M1455 723q-75 0 -122 -38t-47 -98q0 -59 48 -99t121 -40t121 40q48 38 48 98t-47 99q-47 38 -122 38zM1455 362q-85 0 -138 -40t-53 -107q0 -65 52 -105t139 -40t139 40t52 106t-52 106q-54 40 -139 40zM410 0l508 735l466 699h111l-508 -736l-467 -698h-110z" horiz-adv-x="1843"/>
<glyph glyph-name="one.sup_alt" d="M715 868h-559v93h235v602l-207 -74l-26 92l254 94h84v-714h219v-93z"/>
<glyph glyph-name="one.inf_alt" d="M715 -270h-559v92h235v602l-207 -74l-26 92l254 95h84v-715h219v-92z"/>
<glyph glyph-name="zero.tab" d="M612 -25q-223 0 -364 198t-142 534v16q0 338 142 537q142 198 367 198q224 0 366 -197q141 -198 141 -534v-16q0 -336 -144 -536t-366 -200zM614 1317q-154 0 -250 -157t-98 -433v-16q0 -279 98 -437t250 -158q154 0 251 158q97 156 98 433v16v6q0 275 -97 431.5 t-250 156.5h-2z" horiz-adv-x="1228"/>
<glyph glyph-name="one.tab" d="M1149 0h-973v141h428v1133l-381 -133l-41 135l463 168h115v-1303h389v-141z" horiz-adv-x="1228"/>
<glyph glyph-name="two.tab" d="M1096 0h-992v125l514 463q166 152 232 248t66 210t-83 188q-83 75 -204 75h-4q-119 0 -208 -61.5t-175 -192.5l-117 88q104 159 220 235q115 76 301 76t310 -114t125 -289v-4q-1 -141 -75 -254t-254 -277l-412 -369h756v-147z" horiz-adv-x="1228"/>
<glyph glyph-name="three.tab" d="M604 -25q-309 0 -508 240l111 111q174 -205 401 -205q133 0 230 80q96 80 96 209v4q0 126 -99 194t-268 68h-121l-43 102l471 510h-712v146h913v-136l-465 -493q212 -5 350 -103t138 -282v-4q0 -195 -144 -318t-350 -123z" horiz-adv-x="1228"/>
<glyph glyph-name="three.tab_alt" d="M608 -25q-158 0 -294 70t-224 186l115 97q158 -211 409 -211q147 0 241 76q93 77 93 201t-99.5 192.5t-278.5 68.5h-5h-143v138h158h4q149 0 242.5 71.5t95.5 191.5q0 120 -84 190t-226 71q-223 0 -381 -207l-112 86q184 262 497 262q209 0 338 -108t129 -277 q-1 -129 -73 -215t-183 -127q283 -94 283 -344q0 -176 -140 -294t-362 -118z" horiz-adv-x="1228"/>
<glyph glyph-name="four.tab" d="M813 0v334h-707l-36 141l704 967h187v-977h202v-131h-202v-334h-148zM813 465v803l-586 -803h586z" horiz-adv-x="1228"/>
<glyph glyph-name="five.tab" d="M604 -25q-283 0 -504 222l105 114q187 -192 401 -192h2q152 0 248 88t96 227v4q0 135 -95 218t-251 83t-311 -77l-109 69l50 703h815v-150h-680l-35 -465q145 63 291 64q211 0 350 -120t139 -319v-4q0 -205 -146 -335t-366 -130z" horiz-adv-x="1228"/>
<glyph glyph-name="six.tab" d="M662 909q194 0 326 -122t132 -326v-4q0 -207 -140 -344t-348 -137t-341 133q-90 88 -132 214t-42 345v8q0 350 152 566q153 216 421 216q205 0 375 -145l-84 -125q-145 127 -297 127q-195 0 -301 -176t-107 -420v-17q132 207 386 207zM636 113q146 0 236 97q90 96 90 242 t-90 234t-240 88t-241 -94q-92 -94 -92 -236t95 -237q96 -94 242 -94z" horiz-adv-x="1228"/>
<glyph glyph-name="seven.tab" d="M145 1284v150h967v-123l-643 -1311h-178l639 1284h-785z" horiz-adv-x="1228"/>
<glyph glyph-name="eight.tab" d="M614 -23q-221 0 -366 114t-146 292v6q0 123 77 214t206 140q-240 109 -240 330v4q1 164 139 272q138 107 330 107t330 -108q137 -108 137 -271v-4q0 -221 -237 -330q129 -49 206 -140t76 -212v-6q0 -180 -146 -294t-366 -114zM614 113q162 1 257 79t96 195v4 q1 121 -101 199t-252 78t-250 -78t-102 -199v-4q0 -117 95 -195t257 -79zM614 799q131 0 221 74q89 75 89 190v4q0 109 -88 181t-222 73q-134 0 -221 -72q-88 -72 -88 -180v-6q0 -115 89 -189t220 -75z" horiz-adv-x="1228"/>
<glyph glyph-name="nine.tab" d="M565 512q-193 0 -325 123t-131 332v4q0 211 140 349t348 138t341 -133q90 -88 132 -214t42 -345v-8q0 -350 -153 -566t-420 -217q-215 0 -396 156l84 125q165 -137 307 -137t237 91q181 173 181 509q-131 -207 -387 -207zM594 1321q-146 0 -237 -98t-91 -248t90 -239 t239 -89t242 95t93 241t-95 242t-241 96z" horiz-adv-x="1228"/>
<glyph glyph-name="period.tab" d="M201 0v233h213v-233h-213z" horiz-adv-x="614"/>
<glyph glyph-name="comma.tab" d="M201 0v233h213v-202q0 -121 -60 -187t-180 -94l-24 72q138 49 138 159q0 10 -1 19h-86z" horiz-adv-x="614"/>
<glyph glyph-name="colon.tab" d="M201 827v232h213v-232h-213zM201 0v231h213v-231h-213z" horiz-adv-x="614"/>
<glyph glyph-name="semicolon.tab" d="M201 827v232h213v-232h-213zM201 0v231h213v-200q0 -121 -60 -187t-180 -94l-24 72q138 49 138 159q0 10 -1 19h-86z" horiz-adv-x="614"/>
<glyph glyph-name="twodotleader.tab" d="M819 0v219h205v-219h-205zM205 0v219h205v-219h-205z" horiz-adv-x="1228"/>
<glyph glyph-name="periodcentered.tab" d="M201 500v233h213v-233h-213z" horiz-adv-x="614"/>
<glyph glyph-name="slash.tab" d="M1188 1634l-1030 -1896h-148l1032 1896h146z" horiz-adv-x="1228"/>
<glyph glyph-name="bar.tab" d="M242 -262v1896h131v-1896h-131z" horiz-adv-x="614"/>
<glyph glyph-name="underscore.tab" d="M-4 -328v129h1237v-129h-1237z" horiz-adv-x="1228"/>
<glyph glyph-name="dollar.tab" d="M1114 378q0 -163 -132.5 -271.5t-340.5 -108.5h-4h-29l-30 -240h-123l30 252q-219 41 -387 191l82 116q156 -139 328 -176l63 521q-215 53 -314 146t-99 255t127 267t325 106l49 -2l21 161h123l-23 -178q154 -31 301 -139l-75 -121q-123 94 -248 127l-62 -504 q218 -53 318 -146t100 -256zM645 129h4q142 0 229.5 69.5t88.5 173.5q0 104 -65 164q-65 62 -224 101l-62 -508h29zM305 1072q1 -98 63 -162t220 -107l61 500q-16 2 -47 2q-135 0 -216 -67t-81 -166z" horiz-adv-x="1228"/>
<glyph glyph-name="sterling.tab" d="M287 750v225q0 229 129 358q117 121 313 121q238 0 393 -192l-110 -105q-127 152 -283 152q-121 0 -202 -81t-81 -249v-229h529v-138h-529v-471h678v-141h-997v90l160 43v479h-162v138h162z" horiz-adv-x="1228"/>
<glyph glyph-name="Euro.tab" d="M78 836v118h168q47 224 184 364t332 140q229 0 383 -196l-103 -103q-125 162 -282 162q-131 0 -225 -99t-134 -268h461v-118h-479q-6 -55 -6 -111v-12q0 -37 4 -103h481v-118h-463q39 -172 130.5 -275.5t223.5 -103.5h3q94 0 162 42t135 126l98 -91q-162 -215 -401 -215 h-3q-191 0 -325.5 139.5t-177.5 377.5h-166v118h147q-2 31 -2 99v16q0 74 4 111h-149z" horiz-adv-x="1228"/>
<glyph glyph-name="yen.tab" d="M178 344h361v205h-361v117h326l-463 768h178l397 -691l400 691h172l-467 -768h330v-117h-361v-205h361v-117h-361v-227h-151v227h-361v117z" horiz-adv-x="1228"/>
<glyph glyph-name="cent.tab" d="M664 309q197 0 354 172l94 -88q-193 -215 -457 -215q-31 0 -47 2l-37 -192h-131l43 217q-164 53 -263 192t-99 320v4q0 227 159 391t392 164h28l37 170h131l-39 -189q152 -41 277 -178l-96 -100q-115 119 -215 147l-164 -817h33zM272 717q0 -137 67 -239t179 -144 l160 811h-8q-170 0 -284 -122t-114 -302v-4z" horiz-adv-x="1228"/>
<glyph glyph-name="numbersign.tab" d="M68 500h208l64 442h-207v133h225l52 359h131l-54 -359h355l51 359h129l-51 -359h190v-133h-211l-61 -442h207v-133h-228l-51 -367h-129l51 367h-352l-51 -367h-129l51 367h-190v133zM469 944l-63 -446h354l63 446h-354z" horiz-adv-x="1228"/>
<glyph glyph-name="paragraph.tab" d="M834 0v541h-136h-4q-247 0 -400.5 117.5t-154.5 326.5q0 209 154 329t409 120h297v-1434h-165z" horiz-adv-x="1228"/>
<glyph glyph-name="section.tab" d="M637 -20q-266 0 -440 174l90 104q159 -149 353 -149h3h5q87 0 136 37q52 38 52 98t-66 106t-266 100t-294 122q-95 68 -95 166q0 99 73 160q74 60 199 75q-147 82 -147 206q0 123 99 199t253 76q266 0 440 -174l-90 -104q-159 149 -353 149h-3q-90 0 -141.5 -37.5 t-51.5 -96.5q0 -61 66 -107q65 -46 265 -100t295 -122t95 -167t-74 -159t-198 -75q147 -82 147 -206q0 -123 -99 -199t-253 -76zM262 761q0 -59 57 -101t212 -84t238 -42h8q78 0 133.5 39t55.5 99t-56 102q-58 41 -206 81t-238 43h-12q-80 0 -136 -38.5t-56 -98.5z" horiz-adv-x="1228"/>
<glyph glyph-name="degree.tab" d="M612 633q-170 0 -292 120q-121 118 -121 284q0 171 124 292q123 121 293 121t292 -121t122 -289t-123.5 -287.5t-291.5 -119.5h-3zM616 743q127 0 210 86t83 212t-85 212t-212 86t-210 -86t-83 -212t85 -212t212 -86z" horiz-adv-x="1228"/>
<glyph glyph-name="percent.tab" d="M918 696q110 0 176 -98t65 -250v-12q-1 -152 -67 -251t-174 -99t-176 97q-67 97 -66 251v10q0 154 66 253q67 99 176 99zM311 1448q109 0 175 -97t67 -251v-10q0 -154 -67 -253q-68 -99 -176 -99t-174 98t-66 249v13q0 152 66 251t175 99zM938 1434h106l-395 -736 l-358 -698h-107l396 735zM918 596q-62 0 -98 -68t-36 -178v-20q0 -110 35 -178t99 -68t98 69q35 69 35 177v20q0 110 -35 178t-98 68zM311 1350q-63 0 -98 -69t-35 -177v-21q0 -109 35 -177t98 -68t99 67q34 66 34 172v6v21q0 110 -35 178t-98 68z" horiz-adv-x="1228"/>
<glyph glyph-name="quotedbl.tab" d="M1016 1434v-11l-223 -546h-88l118 557h193zM565 1434v-11l-223 -546h-86l117 557h192z" horiz-adv-x="1228"/>
<glyph glyph-name="quotesingle.tab" d="M483 1434v-11l-221 -546h-90l119 557h192z" horiz-adv-x="614"/>
<glyph glyph-name="plus.tab" d="M1096 649h-408l2 -416h-151l2 416h-408v144h408l-2 415h151l-2 -415h408v-144z" horiz-adv-x="1228"/>
<glyph glyph-name="minus.tab" d="M1096 645h-963v152h963v-152z" horiz-adv-x="1228"/>
<glyph glyph-name="divide.tab" d="M512 1022v213h205v-213h-205zM1096 649h-963v144h963v-144zM512 209v211h205v-211h-205z" horiz-adv-x="1228"/>
<glyph glyph-name="equal.tab" d="M1061 883h-893v147h893v-147zM1061 412h-893v147h893v-147z" horiz-adv-x="1228"/>
<glyph glyph-name="multiply.tab" d="M963 266l-351 357l-350 -357l-102 103l356 350l-356 350l106 107l350 -357l351 357l102 -103l-356 -350l356 -350z" horiz-adv-x="1228"/>
<glyph glyph-name="less.tab" d="M1042 184l-907 471v133l907 469v-155l-747 -379l747 -383v-156z" horiz-adv-x="1228"/>
<glyph glyph-name="greater.tab" d="M1094 655l-908 -471v156l748 379l-748 383v155l908 -469v-133z" horiz-adv-x="1228"/>
<glyph glyph-name="plusminus.tab" d="M1096 745h-408l2 -399h-151l2 399h-408v144h408l-2 399h151l-2 -399h408v-144zM1096 0h-963v141h963v-141z" horiz-adv-x="1228"/>
<glyph glyph-name="space.tab" horiz-adv-x="614"/>
<glyph glyph-name="NUL" horiz-adv-x="0"/>
<glyph glyph-name="hfjslug" d="M1319 -410h-426l-16 29h-334l-17 -29h-424v621q29 0 48 19q18 19 18 46q0 26 -20 46t-46 20v1135h205l62 161h684l59 -161h207v-1887zM819 1153v-352h31v160h78v28h-78v135h88v29h-119zM377 1153v-352h31v162h96v-162h31v352h-31v-162h-96v162h-31zM985 799q63 0 64 73 v281h-33v-281q0 -45 -33 -45q-16 0 -41 11v-31q20 -8 43 -8zM729 1047q0 63 -55 63q-25 0 -41 -18q-15 -17 -15 -42q0 -34 27 -83q-47 -37 -47 -83q0 -89 56 -89h3q39 0 60 49h2l24 -49l25 12l-35 65q13 29 27 80l-27 6q-8 -37 -16 -61h-2l-33 64q47 43 47 86zM1071 662v-95 h16v25l17 16l31 -41h20l-41 54l37 41h-21l-40 -50h-3v50h-16zM1034 631q0 31 -35 31h-41v-95h17v31h24l21 -31h18l-24 35q20 8 20 29zM872 565q20 1 34 15q17 17 17 34t-16 34q-15 16 -35 16t-34 -16t-14 -34q0 -20 14 -34t34 -15zM750 567h16v35l37 60h-19l-26 -46l-27 46 h-18l37 -60v-35zM395 662v-95h70v15h-53v26h47v15h-47v24h53v15h-70zM270 662v-95h17v66l51 -66h14v95h-16v-66l-51 66h-15zM494 662l28 -97h17l22 70h2l23 -70h16l29 97h-17l-20 -72h-2l-23 72h-14l-23 -72h-2l-20 72h-16zM645 1055.5q0 29.5 27 29.5h2q27 -1 27 -35 t-31 -69q-25 45 -25 74.5zM659 823q-33 0 -33 45t33 78l41 -80q-16 -43 -41 -43zM997 612h-22v35h22q20 0 21 -16q-1 -19 -21 -19zM872.5 580q-32.5 0 -32.5 32q0 14 8.5 25.5t21.5 11.5h2q14 0 24 -11t9 -24q0 -34 -32.5 -34z" horiz-adv-x="1421"/>
<glyph glyph-name="i.dot" d="M180 1290v174h180v-174h-180zM190 0v1059h158v-1059h-158z" horiz-adv-x="538"/>
<glyph glyph-name="zero.num" d="M711 1036q0 -182 -85 -298t-219 -117q-134 0 -217 114q-82 115 -81 297v6q0 182 82 299q83 117 217 117t219 -116q84 -116 84 -296v-6zM408 1356q-88 0 -139.5 -86t-51.5 -225v-5v-6q0 -139 52 -227q53 -88 141 -88t140 88t52 227v6q0 140 -53 228t-141 88z"/>
<glyph glyph-name="one.num" d="M432 641h-106v694l-176 -67l-27 92l225 86h84v-805z" horiz-adv-x="665"/>
<glyph glyph-name="one.num_alt" d="M715 641h-559v92h235v602l-207 -73l-26 90l254 94h84v-713h219v-92z"/>
<glyph glyph-name="two.num" d="M121 641v90l295 258q86 72 122 123q36 52 36 110t-44 97q-43 39 -108 39q-119 0 -213 -137l-78 55q117 178 297 178q112 0 184 -66t72 -153t-42 -149t-144 -150l-232 -199h424v-96h-569z"/>
<glyph glyph-name="three.num" d="M403 621q-180 0 -299 143l72 72q100 -119 230 -119q70 0 118 41q47 39 47 105q0 71 -57 109t-149 38h-68l-21 67l259 258h-385v99h520v-86l-254 -252q120 -10 192 -68t72 -164q0 -107 -79 -175t-198 -68z"/>
<glyph glyph-name="four.num" d="M614 817v-180h-98v180h-389l-23 94l396 533h114v-537h111v-90h-111zM516 907v412l-303 -412h303z"/>
<glyph glyph-name="five.num" d="M401 621q-160 0 -292 133l71 75q105 -112 224 -112h2q84 0 135 47t51 117q0 71 -52 111t-137 40t-172 -41l-71 43l28 400h474v-103h-386l-16 -233q68 30 174 30t187 -66q79 -66 79 -180t-84.5 -187.5t-211.5 -73.5h-3z"/>
<glyph glyph-name="six.num" d="M420 1147q118 0 192 -69q74 -70 74 -186t-80 -192t-200 -77q-121 0 -197 75q-98 102 -98 310v4q0 198 90 320t228 122t237 -92l-62 -80q-80 76 -169 76t-151 -86t-65 -217q84 92 201 92zM408 715q76 0 126 48t50 125t-47 123t-126 46t-130 -48t-51 -122t50 -123 q52 -49 128 -49z"/>
<glyph glyph-name="seven.num" d="M139 1331v103h551v-82l-356 -715h-121l354 694h-428z"/>
<glyph glyph-name="eight.num" d="M410 621q-129 1 -211 65t-82 166q0 135 147 199q-125 63 -125 182q0 97 79 159t193 62q115 0 193 -62t78 -159q0 -121 -123 -182q145 -59 146 -195q0 -106 -83 -170t-212 -65zM242 1228q0 -60 47 -99t115 -39h7q73 0 121 38t48 100q0 60 -47 98t-122 38t-122 -38t-47 -98 zM411 1004q-85 0 -138.5 -40.5t-53.5 -105.5q0 -68 52 -108q50 -39 135 -39h4q88 0 140 40q52 39 52 105t-53 107t-138 41z"/>
<glyph glyph-name="nine.num" d="M133 1178q0 118 80 196t202 78t195 -78q98 -98 99 -307v-4q0 -201 -89 -322q-90 -121 -232 -121t-245 97l60 80q84 -80 178 -80t156 83q61 83 63 212q-84 -92 -201 -92t-191 70t-75 188zM409 1010q79 0 130 48t51 126t-51 127t-127 49t-126 -49t-50 -128t47 -126t126 -47 z"/>
<glyph glyph-name="zero.den" d="M408 -20q-133 0 -217 115q-83 116 -82 296v6q0 182 82 299q83 117 217 117t219 -115q84 -115 84 -297v-6q0 -183 -85 -299t-218 -116zM408 715q-88 0 -139.5 -86t-51.5 -225v-5v-6q0 -139 52 -227q53 -88 141 -88t140 88t52 227v6q0 139 -53 227t-141 89z"/>
<glyph glyph-name="one.den" d="M432 0h-106v694l-176 -67l-27 92l225 88h84v-807z" horiz-adv-x="665"/>
<glyph glyph-name="one.den_alt" d="M715 0h-559v92h235v602l-207 -73l-26 92l254 94h84v-715h219v-92z"/>
<glyph glyph-name="two.den" d="M121 0v90l295 258q86 72 122 123t36 109t-44 98q-43 39 -108 39q-119 0 -213 -137l-78 55q117 178 297 178h3q110 0 181.5 -65.5t71.5 -153.5t-42 -150t-144 -149l-232 -197h424v-98h-569z"/>
<glyph glyph-name="three.den" d="M403 -20q-180 0 -299 143l72 72q100 -119 230 -119q70 0 117.5 40.5t47.5 106.5q0 71 -57 108q-57 38 -149 38h-68l-21 67l259 258h-385v99h520v-86l-254 -252q120 -9 192 -67t72 -165t-79 -175t-198 -68z"/>
<glyph glyph-name="four.den" d="M614 178v-182h-98v182h-389l-23 92l396 535h114v-539h111v-88h-111zM516 266v412l-303 -412h303z"/>
<glyph glyph-name="five.den" d="M401 -20q-160 0 -292 133l71 75q105 -112 224 -112h2q84 0 135 47t51 117t-52 110t-137 41q-85 0 -172 -41l-71 43l28 400h474v-103h-386l-16 -233q68 31 174 31t187 -66q79 -66 79 -180t-85 -188t-214 -74z"/>
<glyph glyph-name="six.den" d="M420 506q118 0 192 -69t74 -185t-80 -194q-80 -76 -201 -76q-122 0 -196 77q-98 98 -98 308v4q0 199 89.5 320.5t226.5 121.5h2q138 0 237 -92l-62 -80q-76 76 -167 76t-153 -86t-65 -217q84 92 201 92zM408 74q76 0 126 48t50 125t-47 123t-126 46t-130 -48t-51 -122 t50 -123q52 -49 128 -49z"/>
<glyph glyph-name="seven.den" d="M139 690v103h551v-80l-356 -717h-121l354 694h-428z"/>
<glyph glyph-name="eight.den" d="M410 -20q-129 0 -211 64t-82 167q0 135 147 199q-125 61 -125 184q0 96 78.5 157.5t189.5 61.5h4q115 0 193 -62t78 -157q0 -123 -123 -184q145 -59 146 -195q0 -107 -83 -171t-212 -64zM242 587q0 -59 48 -99t121 -40t121 40q48 38 48 98t-47 99q-47 38 -122 38 t-122 -38t-47 -98zM602 216q0 66 -53 106t-138 40t-139 -40q-53 -41 -53 -107q0 -65 52 -105q51 -40 139 -40t140 40t52 106z"/>
<glyph glyph-name="nine.den" d="M133 537q0 119 79.5 196.5t198.5 77.5h3q121 0 196 -76q98 -102 99 -309v-4q0 -201 -89 -322q-90 -120 -232 -120t-245 98l60 78q84 -80 178 -80t156 83q61 83 63 212q-84 -92 -201 -92h-3q-115 0 -188.5 69.5t-74.5 188.5zM409 369q79 0 130 48t51 126t-51 127t-127 49 t-126 -49t-50 -128t47 -126t126 -47z"/>
<glyph glyph-name="caron.alt" d="M608 1534v-6l-106 -332h-76l31 338h151z" horiz-adv-x="1024"/>
<glyph glyph-name="acute.cap" d="M365 1561l204 264l162 -74l-235 -190h-131z" horiz-adv-x="1024"/>
<glyph glyph-name="hungarumlaut.cap" d="M178 1561l205 264l158 -74l-236 -190h-127zM492 1561l206 264l158 -74l-235 -190h-129z" horiz-adv-x="1024"/>
<glyph glyph-name="grave.cap" d="M659 1561h-131l-235 190l160 74z" horiz-adv-x="1024"/>
<glyph glyph-name="circumflex.cap" d="M213 1561l225 241h148l225 -241h-147l-154 122l-154 -122h-143z" horiz-adv-x="1024"/>
<glyph glyph-name="caron.cap" d="M811 1802l-225 -241h-148l-225 241h147l154 -123l154 123h143z" horiz-adv-x="1024"/>
<glyph glyph-name="breve.cap" d="M512 1556q-129 0 -212 62t-91 172h123q37 -106 180 -106t180 106h123q-8 -110 -91 -172t-212 -62z" horiz-adv-x="1024"/>
<glyph glyph-name="tilde.cap" d="M174 1571q58 209 180 209q60 0 161 -40t133 -40t54 22t46 74l100 -29q-58 -206 -180 -206q-60 0 -158 40q-98 39 -133 39t-57 -22t-46 -76z" horiz-adv-x="1024"/>
<glyph glyph-name="macron.cap" d="M176 1604v131h672v-131h-672z" horiz-adv-x="1024"/>
<glyph glyph-name="dieresis.cap" d="M608 1561v184h191v-184h-191zM225 1561v184h191v-184h-191z" horiz-adv-x="1024"/>
<glyph glyph-name="dotaccent.cap" d="M414 1561v184h196v-184h-196z" horiz-adv-x="1024"/>
<glyph glyph-name="ring.cap" d="M512 1556q-94 0 -160.5 57.5t-66.5 142.5q0 89 66 148q67 58 161 58t161 -58t67 -144t-68 -146q-66 -58 -160 -58zM512 1634q57 0 97 36t40 89t-39 89t-98 36t-98 -36t-39 -89t40 -89t97 -36z" horiz-adv-x="1024"/>
</font>
</defs>
</svg>
