<svg xmlns="http://www.w3.org/2000/svg" viewBox="0 0 125 155" enable-background="new 0 0 125 155"><g stroke="#4D4B50" stroke-width="2.5" stroke-miterlimit="10"><path d="M10.1 152.5h104.7c2.6 0 4.7-2.1 4.7-4.7V12.9c0-2.6-2.1-4.7-4.7-4.7H10.1c-2.6 0-4.7 2.1-4.7 4.7v134.8c0 2.7 2.2 4.8 4.7 4.8zM15.7 18h93.6v124.8H15.7zM30.7 42.2h63.6M30.7 56.1h63.6M30.7 70h63.6" fill="none"/><path fill="#F7F7F8" d="M76 13.1c-3.8-2-4.5-10.6-13.5-10.6-8.7 0-9.7 8.6-13.5 10.6-4.3 2.3-18.3 2.7-18.3 2.7v7.4h63.6v-7.4s-14-.4-18.3-2.7zm-13.5 2.1c-1.7 0-3-1.4-3-3s1.4-3 3-3c1.7 0 3 1.4 3 3s-1.3 3-3 3z"/><path fill="none" d="M30.7 83.9h63.6M30.7 97.8h63.6M30.7 111.7h63.6M30.7 125.5h63.6"/></g></svg>