<svg width="41" height="51" xmlns="http://www.w3.org/2000/svg"><path d="M19.425 20.018c-.945.24-1.534 1.268-1.314 2.296 1.813 8.484 2.209 17.377 1.142 25.717-.133 1.047.538 2.013 1.5 2.158.082.012.164.018.244.018.863 0 1.616-.692 1.74-1.648 1.123-8.8.71-18.175-1.202-27.111-.22-1.031-1.165-1.664-2.11-1.43zm-4.074 10.77c-.966.096-1.678 1.028-1.588 2.08.428 5.016.315 9.968-.335 14.717-.142 1.045.522 2.018 1.481 2.173.087.015.174.02.261.02.856 0 1.607-.681 1.737-1.63.69-5.052.81-10.312.357-15.634-.089-1.052-.977-1.836-1.913-1.727zm2.756-16.982c-1.983.502-3.667 1.814-4.745 3.694a8.847 8.847 0 0 0-.957 6.257 75.55 75.55 0 0 1 .6 3.135c.172 1.04 1.11 1.726 2.044 1.537.956-.19 1.588-1.188 1.412-2.226a77.668 77.668 0 0 0-.632-3.311 4.757 4.757 0 0 1 .517-3.367c.582-1.015 1.49-1.723 2.555-1.992 2.206-.56 4.406.945 4.916 3.338 1.888 8.827 2.382 17.67 1.47 26.288-.113 1.05.58 1.999 1.544 2.12.069.008.137.012.204.012.881 0 1.64-.719 1.744-1.694.959-9.054.442-18.338-1.538-27.591-.948-4.444-5.035-7.226-9.134-6.2zm-6.098 1.359c.605-.83.474-2.032-.288-2.687-.764-.656-1.868-.51-2.467.313-.31.425-.598.872-.863 1.335-1.907 3.33-2.509 7.263-1.691 11.077 1.5 7.027 1.85 14.249 1.013 20.882-.132 1.046.54 2.01 1.502 2.155.082.011.162.017.242.017.866 0 1.619-.693 1.74-1.652.895-7.09.524-14.79-1.074-22.269-.601-2.818-.157-5.725 1.252-8.188.197-.343.408-.67.634-.983zm21.15 17.523c-.968.053-1.716.95-1.668 2.005.16 3.529.11 7.074-.149 10.535-.08 1.053.641 1.976 1.61 2.062.047.004.095.006.143.006.907 0 1.676-.757 1.749-1.757.272-3.627.325-7.34.158-11.035-.048-1.056-.895-1.843-1.843-1.816zm-.428-2.638c.074 0 .147-.005.22-.015.964-.13 1.646-1.086 1.527-2.133a97.43 97.43 0 0 0-1.531-9.34c-1.399-6.564-6.957-11.33-13.213-11.33-.989 0-1.978.122-2.943.363-.8.202-1.582.482-2.33.835-.89.42-1.3 1.546-.916 2.515.387.97 1.424 1.417 2.312.996a9.591 9.591 0 0 1 1.725-.619 8.88 8.88 0 0 1 2.152-.265c4.64 0 8.754 3.52 9.789 8.373a93.8 93.8 0 0 1 1.467 8.944c.11.969.867 1.677 1.741 1.677zm5.924-12.923c-.8-3.755-2.568-7.204-5.111-9.98-.684-.747-1.797-.744-2.486.003-.688.745-.688 1.972-.004 2.719 2.08 2.271 3.524 5.119 4.177 8.179a99.629 99.629 0 0 1 2.176 23.202c-.025 1.056.74 2.1 1.71 2.1h.048c.95 0 1.73-.956 1.758-1.994a104.306 104.306 0 0 0-2.268-24.23zM3.515 32.779c.086 0 .173-.006.26-.02.959-.153 1.622-1.125 1.483-2.17a64.292 64.292 0 0 0-.84-4.811c-.96-4.474-.254-9.092 1.986-13 2.234-3.901 5.736-6.624 9.85-7.666 3.555-.89 7.339-.365 10.607 1.423.863.478 1.922.094 2.36-.848.437-.944.087-2.094-.78-2.569C24.445.93 19.82.298 15.462 1.385 10.43 2.66 6.153 5.987 3.42 10.753.682 15.532-.178 21.176.994 26.645c.322 1.514.586 3.027.785 4.5.128.95.879 1.634 1.737 1.634zM4.04 35.7h-.06c-.97 0-1.73.636-1.698 1.692.069 2.161.01 4.029-.176 6.093-.096 1.05.611 1.983 1.577 2.086.057.006.117.007.174.007.893 0 1.657-.606 1.746-1.593.202-2.231.268-4.393.195-6.724-.035-1.034-.815-1.561-1.758-1.561z" fill="#ED4A38"/></svg>