<?xml version="1.0" encoding="UTF-8"?>
<svg width="903px" height="736px" viewBox="0 0 903 736" version="1.1" xmlns="http://www.w3.org/2000/svg" xmlns:xlink="http://www.w3.org/1999/xlink">
    <!-- Generator: Sketch 43.2 (39069) - http://www.bohemiancoding.com/sketch -->
    <title>Artboard</title>
    <desc>Created with Sketch.</desc>
    <defs></defs>
    <g id="Page-1" stroke="none" stroke-width="1" fill="none" fill-rule="evenodd">
        <g id="Artboard" fill-rule="nonzero" fill="#31363C">
            <g id="monogram-mask.KPLCSFEZviQN0jQ7veN2RQ" transform="translate(18.000000, 26.000000)">
                <path d="M102.454476,140.082907 L102.454476,520.14483 C104.793289,533.855081 100.471341,547.860191 90.81254,557.870093 L0.487179,667.433879 L0.487179,681.881849 L256.609758,681.881849 L256.609758,667.433879 L166.284397,557.870093 C156.554756,547.876759 151.965188,533.96394 153.83957,520.14483 L153.83957,191.453474 L378.649357,681.881849 L404.74335,681.881849 L597.838899,191.453474 L597.838899,582.35138 C597.838899,592.786025 597.838899,594.792684 591.01432,601.61534 L521.564152,669.039209 L521.564152,683.487179 L858.77883,683.487179 L858.77883,669.039209 L791.737342,603.22067 C785.819193,598.709511 782.88349,591.295107 784.109868,583.95671 L784.109868,100.350985 C782.88349,93.012586 785.819193,85.59818 791.737342,81.087023 L860.38462,15.268485 L860.38462,0.820513 L622.728558,0.820513 L453.318322,423.423685 L260.624219,0.820513 L11.326223,0.820513 L11.326223,15.268485 L91.615433,111.989629 C99.497477,119.094029 103.522833,129.527186 102.454476,140.082907 Z" id="Rectangle-path"></path>
            </g>
        </g>
    </g>
</svg>