<?xml version="1.0" encoding="UTF-8"?>
<svg width="18px" height="14px" viewBox="0 0 18 14" version="1.1" xmlns="http://www.w3.org/2000/svg" xmlns:xlink="http://www.w3.org/1999/xlink">
    <!-- Generator: Sketch 43.2 (39069) - http://www.bohemiancoding.com/sketch -->
    <title>medium</title>
    <desc>Created with Sketch.</desc>
    <defs></defs>
    <g id="Page-1" stroke="none" stroke-width="1" fill="none" fill-rule="evenodd">
        <g id="medium" fill-rule="nonzero" fill="#31363C">
            <path d="M17.7502384,2 C17.7502384,2 17,2 17,2.7501426 L17,11.2504211 C17,11.2504211 17,12 17.7502384,12 L18,12 L18,14 L12,14 L12,12 L13,12 L13,2.6999512 L12.9000244,2.6999512 L9.8354492,14 L7.1365967,14 L4.0999761,2.6999512 L4.0000005,2.6999512 L4.0000005,12 L5.0000005,12 L5.0000005,14 L4.99999999e-07,14 L4.99999999e-07,12 L0.2497632,12 C0.2497632,12 1.0000005,12 1.0000005,11.2498569 L1.0000005,2.7495794 C1.0000005,2.7495794 1.0000005,2 0.2497631,2 L4.99999999e-07,2 L4.99999999e-07,0 L6.6340337,0 L8.9609375,8.6591797 L9.0375977,8.6591797 L11.3859863,0 L18,0 L18,2 L17.7502384,2 Z" id="Shape"></path>
        </g>
    </g>
</svg>