<svg xmlns="http://www.w3.org/2000/svg" viewBox="0 0 170 155" enable-background="new 0 0 170 155"><path stroke="#4D4B50" stroke-width="2.5" stroke-miterlimit="10" fill="none" d="M4.4 151.3l53.7-11.1 53.8 11.1 53.7-11.1V2.5l-53.7 11.1L58.1 2.5 4.4 13.6z"/><g stroke="#4D4B50" stroke-width="2.5" stroke-miterlimit="10" fill="none"><path d="M25.1 57c-.3.8-.6 2.3-.7 4.4"/><path stroke-dasharray="8.5704,8.5704" d="M24.7 69.9c1.5 12.7 8.3 29.8 29.7 29.8 41.6 0 17.2-52.7 62-52.7 36 0 33.2 30.6 29.5 45.8"/><path d="M144.8 96.9c-.8 2.6-1.4 4.2-1.4 4.2"/></g><path stroke="#4D4B50" stroke-width="2.5" stroke-miterlimit="10" fill="none" d="M139 104.9l8.9 8.9M147.9 104.9l-8.9 8.9"/><circle stroke="#4D4B50" stroke-width="2.5" stroke-miterlimit="10" cx="27.8" cy="47" r="3.5" fill="none"/><path stroke="#4D4B50" stroke-width="2.5" stroke-miterlimit="10" fill="none" d="M58.1 2.5v137.7M111.9 14.8v137.7"/></svg>