<?xml version="1.0" encoding="utf-8"?>
<!-- Generator: Adobe Illustrator 18.0.0, SVG Export Plug-In . SVG Version: 6.00 Build 0)  -->
<!DOCTYPE svg PUBLIC "-//W3C//DTD SVG 1.1//EN" "http://www.w3.org/Graphics/SVG/1.1/DTD/svg11.dtd">
<svg version="1.1" id="Layer_1" xmlns="http://www.w3.org/2000/svg" xmlns:xlink="http://www.w3.org/1999/xlink" x="0px" y="0px"
	 viewBox="0 0 175 130" enable-background="new 0 0 175 130" xml:space="preserve">
<g>
	<g>
		<g>
			<path fill="none" stroke="#4D4B50" stroke-width="2.5" stroke-miterlimit="10" d="M129.9,72.9c0,0-0.3-5-0.7-7
				c-1.8-7.9-6.3-14.4-16.5-14.4c-7.8,0-14.1,6.6-14.1,14.7s6.4,14.2,14.2,14.2c0,0,0,0,0,0s4.2,0.6,5.3,5.1
				c1.3,5.4-3.7,22.1-19.4,23.1v6.5c0,0,24.5-1,29.9-28.4C129.6,81.9,130.2,75.9,129.9,72.9z"/>
			<path fill="none" stroke="#4D4B50" stroke-width="2.5" stroke-miterlimit="10" d="M171.2,72.9c0,0-0.3-5-0.7-7
				c-1.8-7.9-6.3-14.4-16.5-14.4c-7.8,0-14.1,6.6-14.1,14.7s6.4,14.2,14.2,14.2c0,0,0,0,0,0s4.2,0.6,5.3,5.1
				c1.3,5.4-3.7,22.1-19.4,23.1v6.5c0,0,24.5-1,29.9-28.4C170.8,81.9,171.5,75.9,171.2,72.9z"/>
		</g>
		<g>
			<path fill="none" stroke="#4D4B50" stroke-width="2.5" stroke-miterlimit="10" d="M45.1,57.1c0,0,0.3,5,0.7,7
				c1.8,7.9,6.3,14.4,16.5,14.4c7.8,0,14.1-6.6,14.1-14.7s-6.4-14.2-14.2-14.2c0,0,0,0,0,0s-4.2-0.6-5.3-5.1
				c-1.3-5.4,3.7-22.1,19.4-23.1V15c0,0-24.5,1-29.9,28.4C45.4,48.1,44.8,54.1,45.1,57.1z"/>
			<path fill="none" stroke="#4D4B50" stroke-width="2.5" stroke-miterlimit="10" d="M3.8,57.1c0,0,0.3,5,0.7,7
				c1.8,7.9,6.3,14.4,16.5,14.4c7.8,0,14.1-6.6,14.1-14.7S28.8,49.7,21,49.7c0,0,0,0,0,0s-4.2-0.6-5.3-5.1
				c-1.3-5.4,3.7-22.1,19.4-23.1V15c0,0-24.5,1-29.9,28.4C4.2,48.1,3.5,54.1,3.8,57.1z"/>
		</g>
	</g>
</g>
</svg>
