<svg xmlns="http://www.w3.org/2000/svg" viewBox="0 0 200 155" enable-background="new 0 0 200 155"><g stroke="#4D4B50" stroke-width="2.5" stroke-miterlimit="10"><path d="M126 152.5H25.8V12H126c3 0 5.5 2.5 5.5 5.5V147c0 3-2.4 5.5-5.5 5.5z" fill="none"/><path fill="#F7F7F8" d="M126 143H25.8V2.5H126c3 0 5.5 2.5 5.5 5.5v129.5c0 3-2.4 5.5-5.5 5.5zM101.6 2.5h11.3v150h-11.3z"/><g fill="none"><path d="M170.1 145.5c-10.5 0-19.2-8.6-19.2-19.2V99c0-10.5 8.6-19.2 19.2-19.2 10.5 0 19.2 8.6 19.2 19.2v27.3c-.1 10.5-8.7 19.2-19.2 19.2z"/><g stroke-linecap="round" stroke-linejoin="round"><path d="M167.3 17h19.5c6.2 0 11.2 5 11.2 11.2 0 6.2-5 11.2-11.2 11.2h-28.9M157.9 39.4c-4.9 0-8.8 4-8.8 8.8 0 4.9 4 8.8 8.8 8.8h33.2M191.1 57.1c3.6 0 6.5 2.9 6.5 6.5s-2.9 6.5-6.5 6.5h-12.6M178.4 70c-4.9 0-8.8 4-8.8 8.8"/></g><path d="M170.1 98.9c-.9 0-1.6-.7-1.6-1.6v-8.1c0-.9.7-1.6 1.6-1.6.9 0 1.6.7 1.6 1.6v8.1c0 .9-.7 1.6-1.6 1.6z"/></g><path fill="#F7F7F8" d="M69.612 94.354l-8.203 8.203-54.73-54.73 8.202-8.202z"/><path fill="none" d="M1.99 39.424l4.596-4.596 6.505 6.505-4.595 4.596zM62.1 103.1l15.6 7.5-7.4-15.7"/><path fill="none" d="M74.2 108.8l1.7-1.7 1.6 3.3zM16.7 40.1c1.9-1.9 5-1.9 6.9 0L41 57.6c.8.8 1.3 1.8 1.5 2.9.1.5.2 1.3-.5 2.3"/><path d="M41.9 62.8c-.3.3-.8.3-1.1 0l-5.1-5.1c-.3-.3-.3-.8 0-1.1.3-.3.8-.3 1.1 0l5.1 5.1c.4.3.4.8 0 1.1z" fill="none"/></g></svg>